<svg version="1.1" viewBox="0.0 0.0 280.0524934383202 307.49081364829397" fill="none" stroke="none" stroke-linecap="square" stroke-miterlimit="10" xmlns:xlink="http://www.w3.org/1999/xlink" xmlns="http://www.w3.org/2000/svg"><clipPath id="p.0"><path d="m0 0l280.0525 0l0 307.4908l-280.0525 0l0 -307.4908z" clip-rule="nonzero"/></clipPath><g clip-path="url(#p.0)"><path fill="#000000" fill-opacity="0.0" d="m0 0l280.0525 0l0 307.4908l-280.0525 0z" fill-rule="evenodd"/><path fill="#434343" d="m-0.005249344 -0.002624672l280.063 0l0 307.49606l-280.063 0z" fill-rule="evenodd"/><path stroke="#434343" stroke-width="1.0" stroke-linejoin="round" stroke-linecap="butt" d="m-0.005249344 -0.002624672l280.063 0l0 307.49606l-280.063 0z" fill-rule="evenodd"/><path fill="#63a79d" d="m12.695538 9.540683l102.20473 0l0 109.25984l-102.20473 0zm23.352757 23.352757l0 62.55433l55.499214 0l0 -62.55433z" fill-rule="evenodd"/><path stroke="#63a79d" stroke-width="2.0" stroke-linejoin="round" stroke-linecap="butt" d="m12.695538 9.540683l102.20473 0l0 109.25984l-102.20473 0zm23.352757 23.352757l0 62.55433l55.499214 0l0 -62.55433z" fill-rule="evenodd"/><path fill="#63a79d" d="m12.856003 222.35957l0 -17.724106l84.18492 0l0 -91.72471l17.736336 0l0 109.448814z" fill-rule="evenodd"/><path stroke="#63a79d" stroke-width="2.0" stroke-linejoin="round" stroke-linecap="butt" d="m12.856003 222.35957l0 -17.724106l84.18492 0l0 -91.72471l17.736336 0l0 109.448814z" fill-rule="evenodd"/><path fill="#434343" d="m12.073491 239.13124l255.90552 0l0 50.29921l-255.90552 0z" fill-rule="evenodd"/><path stroke="#ffffff" stroke-width="1.0" stroke-linejoin="round" stroke-linecap="butt" d="m12.073491 239.13124l255.90552 0l0 50.29921l-255.90552 0z" fill-rule="evenodd"/><path fill="#ffffff" d="m92.97113 289.43045l26.739067 -50.29921l20.316048 0l-26.739067 50.29921z" fill-rule="evenodd"/><path fill="#ffffff" d="m140.02625 289.43045l26.739075 -50.29921l20.31604 0l-26.73906 50.29921z" fill-rule="evenodd"/><path fill="#434343" d="m187.08136 15.527559l80.8819 0l0 214.29921l-80.8819 0z" fill-rule="evenodd"/><path stroke="#ffffff" stroke-width="1.0" stroke-linejoin="round" stroke-linecap="butt" d="m187.08136 15.527559l80.8819 0l0 214.29921l-80.8819 0z" fill-rule="evenodd"/><path fill="#000000" fill-opacity="0.0" d="m251.75862 11.953158l0 221.44882l-48.472443 0l0 -221.44882z" fill-rule="evenodd"/><path fill="#ffffff" d="m219.71861 91.39046l7.375 -4.578125q0 -0.78125 0.109375 -2.484375l-7.484375 0l0 -2.34375l17.171875 0q0 0.125 0.078125 1.8125q0.09375 1.703125 0.09375 2.484375q0 6.1875 -4.921875 6.1875q-1.609375 0 -2.90625 -1.0q-1.296875 -1.0 -1.609375 -2.375l-7.90625 4.984375l0 -2.6875zm15.0625 -7.0625l-5.578125 0q-0.125 0.84375 -0.125 1.640625q0 2.109375 0.671875 3.0625q0.6875 0.96875 2.4375 0.96875q1.4375 0 2.0625 -1.03125q0.640625 -1.03125 0.640625 -3.25q0 -0.359375 -0.109375 -1.390625zm0 13.859375l-4.765625 0l0 5.671875l-2.0 0l0 -5.671875l-6.1875 0l0 7.78125l-2.109375 0l0 -10.125l17.171875 0l0 10.25l-2.109375 0l0 -7.90625zm0 16.761719l-15.0625 0l0 -2.34375l15.0625 0l0 -5.453125l2.109375 0l0 13.5l-2.109375 0l0 -5.703125zm-6.328125 5.53125q3.71875 0 6.21875 1.859375q2.515625 1.875 2.515625 5.0625q0 3.5625 -2.3125 5.46875q-2.296875 1.90625 -6.421875 1.90625q-4.234375 0 -6.640625 -1.90625q-2.390625 -1.90625 -2.390625 -5.46875q0 -3.25 2.53125 -5.09375q2.53125 -1.828125 6.5 -1.828125zm0 2.46875q-2.953125 0 -4.9375 1.15625q-1.984375 1.171875 -1.984375 3.296875q0 2.390625 1.8125 3.65625q1.828125 1.265625 5.109375 1.265625q6.625 0 6.625 -4.921875q0 -2.1875 -1.78125 -3.328125q-1.78125 -1.125 -4.84375 -1.125zm8.4375 14.53125l0 2.34375l-11.75 0q-1.578125 0 -2.59375 0.984375q-1.015625 1.0 -1.015625 2.640625q0 1.734375 0.984375 2.734375q0.984375 1.0 2.671875 1.0l11.703125 0l0 2.34375l-11.9375 0q-2.609375 0 -4.078125 -1.625q-1.453125 -1.625 -1.453125 -4.421875q0 -2.890625 1.421875 -4.453125q1.4375 -1.546875 4.109375 -1.546875l11.9375 0zm-17.171875 25.078125l7.375 -4.578125q0 -0.78125 0.109375 -2.484375l-7.484375 0l0 -2.34375l17.171875 0q0 0.125 0.078125 1.8125q0.09375 1.703125 0.09375 2.484375q0 6.1875 -4.921875 6.1875q-1.609375 0 -2.90625 -1.0q-1.296875 -1.0 -1.609375 -2.375l-7.90625 4.984375l0 -2.6875zm15.0625 -7.0625l-5.578125 0q-0.125 0.84375 -0.125 1.640625q0 2.109375 0.671875 3.0625q0.6875 0.96875 2.4375 0.96875q1.4375 0 2.0625 -1.03125q0.640625 -1.03125 0.640625 -3.25q0 -0.359375 -0.109375 -1.390625z" fill-rule="nonzero"/></g></svg>