<svg version="1.1" viewBox="0.0 0.0 784.4146981627297 246.753280839895" fill="none" stroke="none" stroke-linecap="square" stroke-miterlimit="10" xmlns:xlink="http://www.w3.org/1999/xlink" xmlns="http://www.w3.org/2000/svg"><clipPath id="p.0"><path d="m0 0l784.4147 0l0 246.75328l-784.4147 0l0 -246.75328z" clip-rule="nonzero"/></clipPath><g clip-path="url(#p.0)"><path fill="#000000" fill-opacity="0.0" d="m0 0l784.4147 0l0 246.75328l-784.4147 0z" fill-rule="evenodd"/><path fill="#000000" d="m123.54724 93.21916l545.13385 0l0 60.314957l-545.13385 0z" fill-rule="evenodd"/><path stroke="#ffffff" stroke-width="12.0" stroke-linejoin="round" stroke-linecap="butt" d="m123.54724 93.21916l545.13385 0l0 60.314957l-545.13385 0z" fill-rule="evenodd"/><path fill="#ffffff" d="m336.89716 136.71663l0 -24.265617l3.46875 0l0 24.265617l-3.46875 0zm2.828125 -10.718742l0 -2.609375l14.34375 0l0 2.609375l-14.34375 0zm12.703125 10.718742l0 -24.265617l3.46875 0l0 24.265617l-3.46875 0zm-13.265625 -21.906242l-5.140625 -0.609375l0.03125 -1.75l5.234375 0l-0.125 2.359375zm0.671875 0.140625l-0.03125 -2.5l3.515625 0l0.21875 1.203125q-0.828125 0.359375 -1.796875 0.6875q-0.96875 0.3125 -1.90625 0.609375zm14.859375 -0.140625l-5.140625 -0.609375l0.03125 -1.75l5.21875 0l-0.109375 2.359375zm0.671875 0.140625l-0.03125 -2.5l3.5 0l0.234375 1.203125q-0.828125 0.359375 -1.796875 0.6875q-0.96875 0.3125 -1.90625 0.609375zm-21.421875 21.765617l-0.21875 -1.1875q0.859375 -0.421875 1.796875 -0.734375q0.953125 -0.3125 1.890625 -0.578125l0.046875 2.5l-3.515625 0zm4.78125 0l0.109375 -2.359375l5.15625 0.609375l-0.046875 1.75l-5.21875 0zm10.75 0l-0.234375 -1.1875q0.859375 -0.421875 1.8125 -0.734375q0.953125 -0.3125 1.890625 -0.578125l0.03125 2.5l-3.5 0zm4.78125 0l0.109375 -2.359375l5.140625 0.609375l-0.03125 1.75l-5.21875 0zm8.883087 0l0 -16.687492l1.828125 -1.375l1.484375 1.296875l0 16.765617l-3.3125 0zm-2.65625 0l-0.1875 -1.234375q0.671875 -0.328125 1.8125 -0.703125q1.140625 -0.375 1.84375 -0.5625l-0.515625 2.5l-2.953125 0zm4.96875 0l0.03125 -2.5q0.96875 0.078125 2.0 0.25q1.03125 0.15625 1.65625 0.453125l-0.21875 1.796875l-3.46875 0zm-5.109375 -15.156242l-0.453125 -1.75q1.125 -0.53125 2.515625 -0.828125q1.40625 -0.296875 2.5625 -0.328125l0.484375 0.921875l-1.640625 1.71875l-3.46875 0.265625zm4.625 -6.234375q-0.71875 -0.296875 -1.578125 -0.953125q-0.859375 -0.65625 -1.296875 -1.28125q0.40625 -0.859375 1.03125 -1.65625q0.640625 -0.8125 1.25 -1.1875q0.78125 0.296875 1.578125 1.0q0.796875 0.6875 1.21875 1.25q-0.265625 0.734375 -0.921875 1.5625q-0.65625 0.8125 -1.28125 1.265625zm12.470154 22.140617q-1.5 0 -3.140625 -0.46875q-1.640625 -0.46875 -3.46875 -1.46875l1.375 -3.296875q1.421875 0.9375 3.359375 1.78125q1.9375 0.84375 4.0312195 1.140625q0.484375 -0.421875 0.75 -0.953125q0.265625 -0.546875 0.265625 -1.21875q0 -1.078125 -0.671875 -1.78125q-0.6718445 -0.71875 -1.7187195 -1.234375q-1.046875 -0.53125 -2.25 -1.015625q-1.1875 -0.484375 -2.234375 -1.1093674q-1.046875 -0.640625 -1.71875 -1.59375q-0.671875 -0.953125 -0.671875 -2.40625q0 -1.75 1.0 -2.9375q1.015625 -1.203125 2.640625 -1.796875q1.625 -0.609375 3.453125 -0.609375q1.3124695 0 2.5155945 0.296875q1.21875 0.296875 2.265625 0.828125l-1.15625 2.984375q-1.265625 -1.078125 -3.0780945 -1.53125q-1.8125 -0.453125 -3.3125 -0.296875q-0.703125 0.453125 -0.953125 1.03125q-0.234375 0.578125 -0.234375 1.09375q0 1.015625 0.671875 1.671875q0.671875 0.640625 1.734375 1.15625q1.0625 0.5 2.265625 1.0q1.2187195 0.5 2.2812195 1.15625q1.0625 0.6562424 1.734375 1.6718674q0.671875 1.0 0.671875 2.484375q0 2.390625 -1.796875 3.90625q-1.78125 1.515625 -4.6093445 1.515625zm3.1249695 -13.031242l-0.40625 -4.59375l3.0625 -0.21875q0.078125 1.1875 -0.078125 2.421875q-0.140625 1.234375 -0.5625 2.390625l-2.015625 0zm12.062439 12.843742q-0.78125 0.03125 -1.671875 -0.421875q-0.875 -0.4375 -1.484375 -1.1875q-0.609375 -0.75 -0.609375 -1.53125l0 -14.406242l1.5625 -5.0l1.75 0l0 5.296875l0 12.140617q0 1.109375 0.265625 1.5625q0.265625 0.453125 0.96875 0.453125q0.703125 0 1.65625 -0.28125q0.953125 -0.28125 1.78125 -0.578125l0.625 1.703125l-4.84375 2.25zm-6.078125 -15.187492l-0.265625 -1.796875q1.109375 -0.53125 2.171875 -0.75q1.078125 -0.21875 2.046875 -0.328125l0.859375 0.921875l-1.640625 1.875l-3.171875 0.078125zm2.984375 0.03125l0 -2.875l7.875 0l0.140625 1.078125l-1.75 1.796875l-6.265625 0zm18.053589 15.343742q-2.34375 0 -4.265625 -1.171875q-1.921875 -1.1875 -3.078125 -3.328125q-1.15625 -2.140625 -1.15625 -5.0624924q0 -2.984375 1.171875 -5.09375q1.171875 -2.109375 3.09375 -3.203125q1.921875 -1.109375 4.171875 -1.109375q2.3125 0 4.15625 1.140625q1.84375 1.140625 2.9375 3.296875q1.109375 2.140625 1.109375 5.2031174q0 3.09375 -1.125 5.171875q-1.109375 2.0625 -2.96875 3.109375q-1.84375 1.046875 -4.046875 1.046875zm0.421875 -2.4375q0.859375 0 1.78125 -0.25q1.046875 -0.71875 1.5625 -1.796875q0.53125 -1.078125 0.703125 -2.265625q0.171875 -1.203125 0.171875 -2.171875q0 -2.0624924 -0.515625 -3.8124924q-0.5 -1.75 -1.609375 -2.828125q-1.09375 -1.09375 -2.875 -1.09375q-0.859375 0 -1.609375 0.25q-0.75 0.234375 -1.234375 0.578125q-0.96875 1.15625 -1.359375 2.75q-0.390625 1.578125 -0.390625 3.109375q0 1.9374924 0.546875 3.6718674q0.5625 1.734375 1.75 2.796875q1.203125 1.0625 3.078125 1.0625zm12.4687805 1.6875l0 -16.687492l1.828125 -1.375l1.484375 1.296875l0 16.765617l-3.3125 0zm-2.65625 0l-0.1875 -1.234375q0.671875 -0.328125 1.8125 -0.703125q1.140625 -0.375 1.84375 -0.5625l-0.515625 2.5l-2.953125 0zm4.96875 0l0.03125 -2.5q0.96875 0.078125 2.0 0.25q1.03125 0.15625 1.65625 0.453125l-0.21875 1.796875l-3.46875 0zm-5.109375 -15.156242l-0.453125 -1.75q1.125 -0.53125 2.515625 -0.828125q1.40625 -0.296875 2.5625 -0.328125l0.484375 0.921875l-1.640625 1.71875l-3.46875 0.265625zm4.625 -6.234375q-0.71875 -0.296875 -1.578125 -0.953125q-0.859375 -0.65625 -1.296875 -1.28125q0.40625 -0.859375 1.03125 -1.65625q0.640625 -0.8125 1.25 -1.1875q0.78125 0.296875 1.578125 1.0q0.796875 0.6875 1.21875 1.25q-0.265625 0.734375 -0.921875 1.5625q-0.65625 0.8125 -1.28125 1.265625zm8.735748 21.390617l0 -16.687492l1.828125 -1.375l1.484375 1.296875l0 16.765617l-3.3125 0zm2.234375 -9.249992l-0.75 -2.171875l5.75 -6.125q1.265625 -0.515625 2.328125 -0.40625q1.078125 0.109375 1.96875 0.671875q0.03125 0.703125 -0.015625 1.46875q-0.03125 0.765625 -0.109375 1.5625q-0.0625 0.78125 -0.21875 1.546875q-0.140625 0.765625 -0.328125 1.46875l-2.015625 0l-0.40625 -4.109375q-0.9375 0.53125 -2.078125 1.421875q-1.140625 0.890625 -2.25 2.078125q-1.09375 1.171875 -1.875 2.59375zm-5.03125 -5.90625l-0.453125 -1.75q1.125 -0.53125 2.515625 -0.828125q1.40625 -0.296875 2.5625 -0.328125l0.484375 0.921875l-1.640625 1.71875l-3.46875 0.265625zm0.25 15.156242l-0.1875 -1.234375q0.671875 -0.328125 1.8125 -0.703125q1.140625 -0.375 1.84375 -0.5625l-0.515625 2.5l-2.953125 0zm5.265625 0l0.03125 -2.5q0.640625 0 1.515625 0.109375q0.875 0.109375 1.671875 0.265625q0.8125 0.140625 1.21875 0.328125l-0.21875 1.796875l-4.21875 0zm18.925232 0.5625q-2.28125 0 -4.0 -0.75q-1.703125 -0.75 -2.875 -2.015625q-1.15625 -1.265625 -1.71875 -2.875q-0.546875 -1.609375 -0.546875 -3.359375q0 -1.8593674 0.609375 -3.6093674q0.625 -1.765625 1.734375 -3.140625q1.125 -1.390625 2.703125 -2.203125q1.59375 -0.828125 3.5 -0.828125q1.453125 0 2.6875 0.484375q1.234375 0.484375 2.140625 1.375q0.921875 0.875 1.40625 2.0625q0.484375 1.1875 0.4375 2.609375l-3.171875 1.3125q0.1875 -1.640625 -0.484375 -2.9375q-0.671875 -1.3125 -1.953125 -2.015625q-1.28125 -0.71875 -2.9375 -0.609375q-1.15625 0.59375 -1.84375 1.71875q-0.6875 1.109375 -1.015625 2.421875q-0.3125 1.3125 -0.3125 2.578125q0 2.2031174 0.8125 3.7499924q0.828125 1.546875 2.203125 2.375q1.390625 0.8125 3.109375 0.8125q1.125 0 2.3125 -0.328125q1.203125 -0.34375 2.46875 -0.90625l0.5625 1.609375l-5.828125 2.46875zm3.953125 -10.156242l-9.890625 -0.1875l0 -1.9375l11.609375 -0.53125l0.40625 0.5625l-2.125 2.09375z" fill-rule="nonzero"/><path fill="#999999" d="m537.74146 123.37664l0 0c67.83972 0 122.834656 -54.99494 122.834656 -122.83465l0 0l0 0c0 67.83971 54.994934 122.83465 122.834656 122.83465l0 0l0 0c-67.83972 0 -122.834656 54.99494 -122.834656 122.83465l0 0c0 -67.83971 -54.994934 -122.83465 -122.834656 -122.83465z" fill-rule="evenodd"/><path stroke="#999999" stroke-width="1.0" stroke-linejoin="round" stroke-linecap="butt" d="m537.74146 123.37664l0 0c67.83972 0 122.834656 -54.99494 122.834656 -122.83465l0 0l0 0c0 67.83971 54.994934 122.83465 122.834656 122.83465l0 0l0 0c-67.83972 0 -122.834656 54.99494 -122.834656 122.83465l0 0c0 -67.83971 -54.994934 -122.83465 -122.834656 -122.83465z" fill-rule="evenodd"/><path fill="#000000" d="m584.98553 123.37664l0 0c41.74756 0 75.590576 -33.84304 75.590576 -75.590546l0 0l0 0c0 41.74751 33.843018 75.590546 75.590576 75.590546l0 0l0 0c-41.74756 0 -75.590576 33.84304 -75.590576 75.59055l0 0c0 -41.747513 -33.843018 -75.59055 -75.590576 -75.59055z" fill-rule="evenodd"/><path stroke="#000000" stroke-width="1.0" stroke-linejoin="round" stroke-linecap="butt" d="m584.98553 123.37664l0 0c41.74756 0 75.590576 -33.84304 75.590576 -75.590546l0 0l0 0c0 41.74751 33.843018 75.590546 75.590576 75.590546l0 0l0 0c-41.74756 0 -75.590576 33.84304 -75.590576 75.59055l0 0c0 -41.747513 -33.843018 -75.59055 -75.590576 -75.59055z" fill-rule="evenodd"/><path fill="#999999" d="m660.5126 114.9635l38.740173 38.740158l-17.31842 0l-21.41864 -21.418655l-21.418701 21.418655l-17.324585 0z" fill-rule="evenodd"/><path stroke="#999999" stroke-width="1.0" stroke-linejoin="round" stroke-linecap="butt" d="m660.5126 114.9635l38.740173 38.740158l-17.31842 0l-21.41864 -21.418655l-21.418701 21.418655l-17.324585 0z" fill-rule="evenodd"/><path fill="#999999" d="m1.003937 123.37664l0 0c67.8397 0 122.83465 -54.99494 122.83465 -122.83465l0 0l0 0c0 67.83971 54.99494 122.83465 122.83465 122.83465l0 0l0 0c-67.83971 0 -122.83465 54.99494 -122.83465 122.83465l0 0c0 -67.83971 -54.99495 -122.83465 -122.83465 -122.83465z" fill-rule="evenodd"/><path stroke="#999999" stroke-width="1.0" stroke-linejoin="round" stroke-linecap="butt" d="m1.003937 123.37664l0 0c67.8397 0 122.83465 -54.99494 122.83465 -122.83465l0 0l0 0c0 67.83971 54.99494 122.83465 122.83465 122.83465l0 0l0 0c-67.83971 0 -122.83465 54.99494 -122.83465 122.83465l0 0c0 -67.83971 -54.99495 -122.83465 -122.83465 -122.83465z" fill-rule="evenodd"/><path fill="#000000" d="m48.24803 123.37664l0 0c41.747505 0 75.59055 -33.84304 75.59055 -75.590546l0 0l0 0c0 41.74751 33.84304 75.590546 75.59055 75.590546l0 0l0 0c-41.747513 0 -75.59055 33.84304 -75.59055 75.59055l0 0c0 -41.747513 -33.84305 -75.59055 -75.59055 -75.59055z" fill-rule="evenodd"/><path stroke="#000000" stroke-width="1.0" stroke-linejoin="round" stroke-linecap="butt" d="m48.24803 123.37664l0 0c41.747505 0 75.59055 -33.84304 75.59055 -75.590546l0 0l0 0c0 41.74751 33.84304 75.590546 75.59055 75.590546l0 0l0 0c-41.747513 0 -75.59055 33.84304 -75.59055 75.59055l0 0c0 -41.747513 -33.84305 -75.59055 -75.59055 -75.59055z" fill-rule="evenodd"/><path fill="#999999" d="m123.77503 114.9635l38.74015 38.740158l-17.31839 0l-21.418663 -21.418655l-21.418655 21.418655l-17.3246 0z" fill-rule="evenodd"/><path stroke="#999999" stroke-width="1.0" stroke-linejoin="round" stroke-linecap="butt" d="m123.77503 114.9635l38.74015 38.740158l-17.31839 0l-21.418663 -21.418655l-21.418655 21.418655l-17.3246 0z" fill-rule="evenodd"/></g></svg>