<svg version="1.1" viewBox="0.0 0.0 784.4146981627297 246.753280839895" fill="none" stroke="none" stroke-linecap="square" stroke-miterlimit="10" xmlns:xlink="http://www.w3.org/1999/xlink" xmlns="http://www.w3.org/2000/svg"><clipPath id="p.0"><path d="m0 0l784.4147 0l0 246.75328l-784.4147 0l0 -246.75328z" clip-rule="nonzero"/></clipPath><g clip-path="url(#p.0)"><path fill="#000000" fill-opacity="0.0" d="m0 0l784.4147 0l0 246.75328l-784.4147 0z" fill-rule="evenodd"/><path fill="#000000" d="m123.54724 93.21916l545.13385 0l0 60.314957l-545.13385 0z" fill-rule="evenodd"/><path stroke="#666666" stroke-width="12.0" stroke-linejoin="round" stroke-linecap="butt" d="m123.54724 93.21916l545.13385 0l0 60.314957l-545.13385 0z" fill-rule="evenodd"/><path fill="#999999" d="m348.2221 136.71663l-0.21875 -1.1875q0.859375 -0.421875 1.796875 -0.734375q0.953125 -0.3125 1.890625 -0.578125l0.046875 2.5l-3.515625 0zm3.875 0l0.125 -2.359375l5.140625 0.609375l-0.03125 1.75l-5.234375 0zm17.25 0l-0.21875 -1.1875q0.859375 -0.421875 1.8125 -0.734375q0.953125 -0.3125 1.875 -0.578125l0.046875 2.5l-3.515625 0zm4.78125 0l0.109375 -2.359375l5.15625 0.609375l-0.046875 1.75l-5.21875 0zm-22.875 0l0.84375 -24.265617l4.53125 0l-2.875 1.796875l0.8125 6.796875l-0.375 15.671867l-2.9375 0zm10.484375 0.265625l-8.25 -22.843742l3.140625 -1.6875l7.71875 21.546867l0.640625 2.125l-3.25 0.859375zm3.25 -0.859375l-2.0625 -0.75l8.140625 -22.921867l1.9375 1.390625l-8.015625 22.281242zm7.390625 0.59375l-0.265625 -15.671867l0.59375 -7.0625l-1.640625 -1.53125l4.25 0l0.421875 24.265617l-3.359375 0zm-18.140625 -21.906242l-5.15625 -0.609375l0.03125 -1.75l5.234375 0l-0.109375 2.359375zm20.1875 0.140625l-0.03125 -2.5l3.5 0l0.234375 1.203125q-0.828125 0.359375 -1.796875 0.6875q-0.96875 0.3125 -1.90625 0.609375zm19.18628 22.328117q-0.40625 -0.046875 -1.015625 -0.515625q-0.59375 -0.453125 -1.125 -1.15625q-0.515625 -0.71875 -0.6875 -1.421875l0 -0.53125l0 -8.843742q0 -1.75 -0.421875 -2.625q-0.40625 -0.890625 -1.421875 -1.375q-1.03125 0.046875 -2.25 0.234375q-1.21875 0.1875 -1.953125 0.40625l-0.3125 3.875l-1.96875 0.15625q-0.484375 -0.9375 -0.75 -2.125q-0.265625 -1.203125 -0.328125 -2.359375q0.84375 -0.484375 2.015625 -0.953125q1.1875 -0.46875 2.421875 -0.859375q1.234375 -0.390625 2.265625 -0.625q1.046875 -0.25 1.609375 -0.25q0.828125 0 1.625 0.4375q0.8125 0.421875 1.453125 1.046875q0.65625 0.609375 0.921875 1.125q0.265625 0.5 0.359375 1.203125q0.09375 0.703125 0.09375 2.6875l0 8.703117q0 0.40625 0.265625 0.578125q0.28125 0.15625 0.703125 0.15625q0.40625 0 0.875 -0.109375q0.46875 -0.109375 0.84375 -0.21875l0.546875 1.640625l-3.765625 1.71875zm-6.859375 -0.046875q-2.0625 0.234375 -3.359375 -0.4375q-1.28125 -0.671875 -1.90625 -1.765625q-0.609375 -1.109375 -0.609375 -2.1875q0 -1.09375 0.609375 -2.15625q0.625 -1.0625 2.015625 -1.84375l8.203125 -0.21875l-0.140625 2.015625l-0.609375 -0.046875q-1.03125 -0.109375 -2.171875 -0.09375q-1.140625 0.015625 -2.140625 0.234375q-0.984375 0.203125 -1.625 0.703125q-0.625 0.5 -0.625 1.40625q0 0.484375 0.234375 0.953125q0.25 0.453125 0.734375 0.75q1.078125 0.046875 2.234375 -0.25q1.171875 -0.296875 2.15625 -0.703125q0.984375 -0.421875 1.546875 -0.6875l0 1.578125l-4.546875 2.75zm19.036438 8.109375q-1.46875 0 -2.78125 -0.34375q-1.296875 -0.328125 -2.3125 -1.0q-1.0 -0.671875 -1.5 -1.671875q-0.5 -0.984375 -0.359375 -2.28125l5.71875 -5.265625l3.09375 0.109375q-1.375 0.75 -2.703125 1.6875q-1.328125 0.921875 -2.203125 1.890625q-0.875 0.96875 -0.875 1.796875q0 0.9375 1.171875 1.484375q1.171875 0.5625 2.96875 0.5625q1.53125 0 3.125 -0.4375q1.609375 -0.421875 2.953125 -1.296875q1.34375 -0.875 2.0625 -2.171875q-1.125 -0.671875 -3.34375 -1.265625q-2.21875 -0.578125 -4.96875 -0.9375q-2.734375 -0.375 -5.5 -0.421875l-0.671875 -1.75q0.75 -0.890625 1.734375 -1.84375q0.984375 -0.953125 2.03125 -1.734375q1.046875 -0.796875 1.875 -1.15625l1.78125 0.59375q-1.046875 0.703125 -2.15625 1.609375q-1.09375 0.890625 -1.765625 1.640625q1.34375 0.03125 3.078125 0.234375q1.75 0.203125 3.546875 0.578125q1.8125 0.375 3.46875 0.8125q1.671875 0.421875 2.90625 0.90625q0.375 1.796875 -0.046875 3.28125q-0.40625 1.5 -1.4375 2.6875q-1.015625 1.203125 -2.453125 2.015625q-1.4375 0.828125 -3.109375 1.25q-1.65625 0.4375 -3.328125 0.4375zm1.296875 -14.375q-1.828125 0 -3.625 -0.703125q-1.78125 -0.71875 -2.96875 -2.125q-1.171875 -1.4218674 -1.171875 -3.5468674q0 -2.09375 1.15625 -3.515625q1.15625 -1.421875 2.953125 -2.140625q1.796875 -0.734375 3.65625 -0.734375q1.9375 0 3.6875 0.75q1.765625 0.75 2.90625 2.1875q1.140625 1.4375 1.140625 3.515625q0 2.09375 -1.1875 3.5156174q-1.171875 1.421875 -2.953125 2.109375q-1.765625 0.6875 -3.59375 0.6875zm2.5 -2.390625q1.046875 -0.8593674 1.421875 -1.8281174q0.375 -0.96875 0.375 -1.828125q0 -1.1875 -0.578125 -2.25q-0.578125 -1.078125 -1.59375 -1.75q-1.0 -0.671875 -2.34375 -0.71875q-1.34375 -0.0625 -2.875 0.71875q-0.703125 0.859375 -0.96875 1.71875q-0.265625 0.859375 -0.265625 1.71875q0 1.71875 0.8125 2.953125q0.828125 1.2343674 2.359375 1.6249924q1.53125 0.390625 3.65625 -0.359375zm1.796875 -6.2656174q0.03125 -1.234375 0.453125 -2.21875q0.4375 -1.0 1.140625 -1.71875q0.71875 -0.734375 1.609375 -1.21875q0.90625 -0.484375 1.90625 -0.671875l0.71875 3.890625q-2.84375 0 -4.9375 1.5625l-0.890625 0.375zm10.381226 14.406242l0 -16.687492l1.828125 -1.375l1.484375 1.296875l0 16.765617l-3.3125 0zm-2.65625 0l-0.1875 -1.234375q0.671875 -0.328125 1.8125 -0.703125q1.140625 -0.375 1.84375 -0.5625l-0.515625 2.5l-2.953125 0zm4.96875 0l0.03125 -2.5q0.96875 0.078125 2.0 0.25q1.03125 0.15625 1.65625 0.453125l-0.21875 1.796875l-3.46875 0zm-5.109375 -15.156242l-0.453125 -1.75q1.125 -0.53125 2.515625 -0.828125q1.40625 -0.296875 2.5625 -0.328125l0.484375 0.921875l-1.640625 1.71875l-3.46875 0.265625zm4.625 -6.234375q-0.71875 -0.296875 -1.578125 -0.953125q-0.859375 -0.65625 -1.296875 -1.28125q0.40625 -0.859375 1.03125 -1.65625q0.640625 -0.8125 1.25 -1.1875q0.78125 0.296875 1.578125 1.0q0.796875 0.6875 1.21875 1.25q-0.265625 0.734375 -0.921875 1.5625q-0.65625 0.8125 -1.28125 1.265625zm14.813904 21.953117q-2.28125 0 -4.0 -0.75q-1.703125 -0.75 -2.875 -2.015625q-1.15625 -1.265625 -1.71875 -2.875q-0.546875 -1.609375 -0.546875 -3.359375q0 -1.8593674 0.609375 -3.6093674q0.625 -1.765625 1.734375 -3.140625q1.125 -1.390625 2.703125 -2.203125q1.59375 -0.828125 3.5 -0.828125q1.453125 0 2.6875 0.484375q1.234375 0.484375 2.140625 1.375q0.921875 0.875 1.40625 2.0625q0.484375 1.1875 0.4375 2.609375l-3.171875 1.3125q0.1875 -1.640625 -0.484375 -2.9375q-0.671875 -1.3125 -1.953125 -2.015625q-1.28125 -0.71875 -2.9375 -0.609375q-1.15625 0.59375 -1.84375 1.71875q-0.6875 1.109375 -1.015625 2.421875q-0.3125 1.3125 -0.3125 2.578125q0 2.2031174 0.8125 3.7499924q0.828125 1.546875 2.203125 2.375q1.390625 0.8125 3.109375 0.8125q1.125 0 2.3125 -0.328125q1.203125 -0.34375 2.46875 -0.90625l0.5625 1.609375l-5.828125 2.46875zm3.953125 -10.156242l-9.890625 -0.1875l0 -1.9375l11.609375 -0.53125l0.40625 0.5625l-2.125 2.09375z" fill-rule="nonzero"/><path fill="#999999" d="m537.74146 123.37664l0 0c67.83972 0 122.834656 -54.99494 122.834656 -122.83465l0 0l0 0c0 67.83971 54.994934 122.83465 122.834656 122.83465l0 0l0 0c-67.83972 0 -122.834656 54.99494 -122.834656 122.83465l0 0c0 -67.83971 -54.994934 -122.83465 -122.834656 -122.83465z" fill-rule="evenodd"/><path stroke="#999999" stroke-width="1.0" stroke-linejoin="round" stroke-linecap="butt" d="m537.74146 123.37664l0 0c67.83972 0 122.834656 -54.99494 122.834656 -122.83465l0 0l0 0c0 67.83971 54.994934 122.83465 122.834656 122.83465l0 0l0 0c-67.83972 0 -122.834656 54.99494 -122.834656 122.83465l0 0c0 -67.83971 -54.994934 -122.83465 -122.834656 -122.83465z" fill-rule="evenodd"/><path fill="#000000" d="m584.98553 123.37664l0 0c41.74756 0 75.590576 -33.84304 75.590576 -75.590546l0 0l0 0c0 41.74751 33.843018 75.590546 75.590576 75.590546l0 0l0 0c-41.74756 0 -75.590576 33.84304 -75.590576 75.59055l0 0c0 -41.747513 -33.843018 -75.59055 -75.590576 -75.59055z" fill-rule="evenodd"/><path stroke="#000000" stroke-width="1.0" stroke-linejoin="round" stroke-linecap="butt" d="m584.98553 123.37664l0 0c41.74756 0 75.590576 -33.84304 75.590576 -75.590546l0 0l0 0c0 41.74751 33.843018 75.590546 75.590576 75.590546l0 0l0 0c-41.74756 0 -75.590576 33.84304 -75.590576 75.59055l0 0c0 -41.747513 -33.843018 -75.59055 -75.590576 -75.59055z" fill-rule="evenodd"/><path fill="#999999" d="m660.5126 114.9635l38.740173 38.740158l-17.31842 0l-21.41864 -21.418655l-21.418701 21.418655l-17.324585 0z" fill-rule="evenodd"/><path stroke="#999999" stroke-width="1.0" stroke-linejoin="round" stroke-linecap="butt" d="m660.5126 114.9635l38.740173 38.740158l-17.31842 0l-21.41864 -21.418655l-21.418701 21.418655l-17.324585 0z" fill-rule="evenodd"/><path fill="#999999" d="m1.003937 123.37664l0 0c67.8397 0 122.83465 -54.99494 122.83465 -122.83465l0 0l0 0c0 67.83971 54.99494 122.83465 122.83465 122.83465l0 0l0 0c-67.83971 0 -122.83465 54.99494 -122.83465 122.83465l0 0c0 -67.83971 -54.99495 -122.83465 -122.83465 -122.83465z" fill-rule="evenodd"/><path stroke="#999999" stroke-width="1.0" stroke-linejoin="round" stroke-linecap="butt" d="m1.003937 123.37664l0 0c67.8397 0 122.83465 -54.99494 122.83465 -122.83465l0 0l0 0c0 67.83971 54.99494 122.83465 122.83465 122.83465l0 0l0 0c-67.83971 0 -122.83465 54.99494 -122.83465 122.83465l0 0c0 -67.83971 -54.99495 -122.83465 -122.83465 -122.83465z" fill-rule="evenodd"/><path fill="#000000" d="m48.24803 123.37664l0 0c41.747505 0 75.59055 -33.84304 75.59055 -75.590546l0 0l0 0c0 41.74751 33.84304 75.590546 75.59055 75.590546l0 0l0 0c-41.747513 0 -75.59055 33.84304 -75.59055 75.59055l0 0c0 -41.747513 -33.84305 -75.59055 -75.59055 -75.59055z" fill-rule="evenodd"/><path stroke="#000000" stroke-width="1.0" stroke-linejoin="round" stroke-linecap="butt" d="m48.24803 123.37664l0 0c41.747505 0 75.59055 -33.84304 75.59055 -75.590546l0 0l0 0c0 41.74751 33.84304 75.590546 75.59055 75.590546l0 0l0 0c-41.747513 0 -75.59055 33.84304 -75.59055 75.59055l0 0c0 -41.747513 -33.84305 -75.59055 -75.59055 -75.59055z" fill-rule="evenodd"/><path fill="#999999" d="m123.77503 114.9635l38.74015 38.740158l-17.31839 0l-21.418663 -21.418655l-21.418655 21.418655l-17.3246 0z" fill-rule="evenodd"/><path stroke="#999999" stroke-width="1.0" stroke-linejoin="round" stroke-linecap="butt" d="m123.77503 114.9635l38.74015 38.740158l-17.31839 0l-21.418663 -21.418655l-21.418655 21.418655l-17.3246 0z" fill-rule="evenodd"/></g></svg>