<svg version="1.1" viewBox="0.0 0.0 784.4146981627297 246.753280839895" fill="none" stroke="none" stroke-linecap="square" stroke-miterlimit="10" xmlns:xlink="http://www.w3.org/1999/xlink" xmlns="http://www.w3.org/2000/svg"><clipPath id="p.0"><path d="m0 0l784.4147 0l0 246.75328l-784.4147 0l0 -246.75328z" clip-rule="nonzero"/></clipPath><g clip-path="url(#p.0)"><path fill="#000000" fill-opacity="0.0" d="m0 0l784.4147 0l0 246.75328l-784.4147 0z" fill-rule="evenodd"/><path fill="#000000" d="m123.54724 93.21916l545.13385 0l0 60.314957l-545.13385 0z" fill-rule="evenodd"/><path stroke="#666666" stroke-width="12.0" stroke-linejoin="round" stroke-linecap="butt" d="m123.54724 93.21916l545.13385 0l0 60.314957l-545.13385 0z" fill-rule="evenodd"/><path fill="#999999" d="m330.39673 127.57601l0.109375 -2.6875q0.859375 0.1875 1.828125 0.296875q0.96875 0.109375 1.8125 0.171875q0.84375 0.046875 1.296875 0.046875q2.015625 0 3.21875 -0.8125q1.21875 -0.828125 1.78125 -2.109375q0.5625 -1.296875 0.5625 -2.71875q0 -1.15625 -0.328125 -2.21875q-0.3125 -1.0625 -0.96875 -1.890625q-0.65625 -0.84375 -1.625 -1.296875l-7.015625 0.59375l-5.515625 -2.5l10.40625 -0.296875q2.984375 0 4.9375 1.140625q1.96875 1.140625 2.9375 2.890625q0.96875 1.75 0.96875 3.703125q0 1.890625 -0.953125 3.671875q-0.953125 1.765625 -2.84375 2.890625q-1.875 1.125 -4.703125 1.125l-5.90625 0zm-5.1875 9.140617l-0.21875 -1.1875q0.859375 -0.421875 1.796875 -0.734375q0.953125 -0.3125 1.890625 -0.578125l0.046875 2.5l-3.515625 0zm5.53125 0l0.109375 -2.359375l5.140625 0.609375l-0.03125 1.75l-5.21875 0zm-2.578125 0l0 -24.265617l3.46875 0l0 24.265617l-3.46875 0zm0.921875 -22.249992l-3.578125 -0.21875l0.046875 -1.796875l3.46875 0l0.0625 2.015625zm19.348145 22.249992l0 -26.062492l1.828125 -1.375l1.484375 1.3125l0 26.124992l-3.3125 0zm11.375 0l0 -11.046867q0 -2.28125 -0.703125 -3.15625q-0.703125 -0.875 -1.6875 -0.875q-0.734375 0 -1.765625 0.4375q-1.03125 0.421875 -2.109375 1.0625q-1.078125 0.625 -1.984375 1.328125l-0.671875 -1.5625q1.765625 -1.234375 3.421875 -2.1875q1.65625 -0.953125 2.9375 -1.5q1.296875 -0.5625 1.96875 -0.5625q0.703125 0.109375 1.375 0.515625q0.671875 0.40625 1.21875 0.9375q0.546875 0.515625 0.8125 1.046875q0.171875 0.328125 0.28125 0.859375q0.125 0.515625 0.171875 1.359375q0.0625 0.84375 0.0625 2.140625l0 11.203117l-3.328125 0zm-14.171875 -24.531242l-0.453125 -1.75q1.125 -0.515625 2.515625 -0.8125q1.40625 -0.3125 2.5625 -0.34375l0.484375 0.9375l-1.640625 1.71875l-3.46875 0.25zm0.21875 24.531242l-0.1875 -1.234375q0.671875 -0.328125 1.8125 -0.703125q1.140625 -0.375 1.84375 -0.5625l-0.515625 2.5l-2.953125 0zm4.625 0l0.03125 -2.5q0.984375 0.078125 2.0 0.25q1.03125 0.15625 1.671875 0.453125l-0.234375 1.796875l-3.46875 0zm7.390625 0l-0.1875 -1.234375q0.671875 -0.328125 1.8125 -0.703125q1.140625 -0.375 1.84375 -0.5625l-0.515625 2.5l-2.953125 0zm4.25 0l0.046875 -2.5q0.96875 0.078125 1.984375 0.25q1.03125 0.15625 1.671875 0.453125l-0.21875 1.796875l-3.484375 0zm7.3594055 8.09375l-1.859375 -3.390625q1.96875 -0.859375 3.71875 -1.90625q1.765625 -1.046875 3.21875 -2.640625q-0.484375 -0.1875 -1.03125 -0.484375q-0.53125 -0.3125 -0.953125 -0.6875l-5.8125 -16.046867l3.6875 -0.40625l3.59375 10.671867l0.625 4.296875l0.71875 0q0.78125 -2.125 1.578125 -4.734375q0.796875 -2.6249924 1.46875 -5.2812424q0.671875 -2.671875 1.125 -4.953125l3.515625 0q-0.71875 2.46875 -1.578125 5.171875q-0.859375 2.703125 -1.75 5.3437424q-0.890625 2.625 -1.71875 4.859375q-0.859375 2.015625 -2.015625 3.84375q-1.15625 1.828125 -2.75 3.40625q-1.578125 1.59375 -3.78125 2.9375zm0.296875 -23.468742l-4.515625 -0.265625l0.03125 -1.828125l5.203125 0l-0.71875 2.09375zm-0.109375 0.5625l0.515625 -2.65625l2.953125 0l0.234375 1.34375q-0.90625 0.375 -1.828125 0.6875q-0.90625 0.3125 -1.875 0.625zm11.765625 -0.5625l-4.53125 -0.265625l0.046875 -1.828125l5.1875 0l-0.703125 2.09375zm-0.34375 0.5625l0.515625 -2.65625l2.953125 0l0.234375 1.34375q-0.90625 0.375 -1.828125 0.6875q-0.90625 0.3125 -1.875 0.625zm10.869843 15.562492q-1.5 0 -3.140625 -0.46875q-1.640625 -0.46875 -3.46875 -1.46875l1.375 -3.296875q1.421875 0.9375 3.359375 1.78125q1.9375 0.84375 4.03125 1.140625q0.484375 -0.421875 0.75 -0.953125q0.265625 -0.546875 0.265625 -1.21875q0 -1.078125 -0.671875 -1.78125q-0.671875 -0.71875 -1.71875 -1.234375q-1.046875 -0.53125 -2.25 -1.015625q-1.1875 -0.484375 -2.234375 -1.1093674q-1.046875 -0.640625 -1.71875 -1.59375q-0.671875 -0.953125 -0.671875 -2.40625q0 -1.75 1.0 -2.9375q1.015625 -1.203125 2.640625 -1.796875q1.625 -0.609375 3.453125 -0.609375q1.3125 0 2.515625 0.296875q1.21875 0.296875 2.265625 0.828125l-1.15625 2.984375q-1.265625 -1.078125 -3.078125 -1.53125q-1.8125 -0.453125 -3.3125 -0.296875q-0.703125 0.453125 -0.953125 1.03125q-0.234375 0.578125 -0.234375 1.09375q0 1.015625 0.671875 1.671875q0.671875 0.640625 1.734375 1.15625q1.0625 0.5 2.265625 1.0q1.21875 0.5 2.28125 1.15625q1.0625 0.6562424 1.734375 1.6718674q0.671875 1.0 0.671875 2.484375q0 2.390625 -1.796875 3.90625q-1.78125 1.515625 -4.609375 1.515625zm3.125 -13.031242l-0.40625 -4.59375l3.0625 -0.21875q0.078125 1.1875 -0.078125 2.421875q-0.140625 1.234375 -0.5625 2.390625l-2.015625 0zm8.781189 12.281242l0 -16.687492l1.828125 -1.375l1.484375 1.296875l0 16.765617l-3.3125 0zm-2.65625 0l-0.1875 -1.234375q0.671875 -0.328125 1.8125 -0.703125q1.140625 -0.375 1.84375 -0.5625l-0.515625 2.5l-2.953125 0zm4.96875 0l0.03125 -2.5q0.96875 0.078125 2.0 0.25q1.03125 0.15625 1.65625 0.453125l-0.21875 1.796875l-3.46875 0zm-5.109375 -15.156242l-0.453125 -1.75q1.125 -0.53125 2.515625 -0.828125q1.40625 -0.296875 2.5625 -0.328125l0.484375 0.921875l-1.640625 1.71875l-3.46875 0.265625zm4.625 -6.234375q-0.71875 -0.296875 -1.578125 -0.953125q-0.859375 -0.65625 -1.296875 -1.28125q0.40625 -0.859375 1.03125 -1.65625q0.640625 -0.8125 1.25 -1.1875q0.78125 0.296875 1.578125 1.0q0.796875 0.6875 1.21875 1.25q-0.265625 0.734375 -0.921875 1.5625q-0.65625 0.8125 -1.28125 1.265625zm14.251373 21.953117q-2.5 0.03125 -4.4375 -1.21875q-1.9375 -1.25 -3.046875 -3.375q-1.09375 -2.125 -1.09375 -4.671875q0 -2.9062424 1.34375 -5.0468674q1.34375 -2.15625 3.484375 -3.34375q2.15625 -1.203125 4.609375 -1.203125q2.171875 0 3.75 0.828125q1.59375 0.828125 2.1875 1.90625l-1.609375 2.71875q-0.59375 -0.96875 -1.765625 -1.734375q-1.171875 -0.765625 -2.6875 -1.109375q-1.515625 -0.359375 -3.125 0.015625q-1.265625 1.15625 -1.953125 2.90625q-0.6875 1.75 -0.6875 3.65625q0 1.8749924 0.609375 3.3749924q0.625 1.484375 1.78125 2.359375q1.15625 0.875 2.6875 0.875q1.1875 0 2.65625 -0.625q1.484375 -0.640625 3.203125 -2.03125l-0.109375 1.828125l-5.796875 3.890625zm0.484375 7.046875l-0.1875 -1.21875q0.671875 -0.34375 1.8125 -0.71875q1.140625 -0.375 1.84375 -0.5625l0 2.5l-3.46875 0zm5.078125 0l0.046875 -2.5q0.96875 0.078125 1.984375 0.25q1.03125 0.171875 1.671875 0.46875l-0.234375 1.78125l-3.46875 0zm-1.75 0l0 -23.093742l0.453125 -1.3125l4.09375 -0.671875l0.640625 1.796875l-1.859375 1.1875l0 22.093742l-3.328125 0zm13.74057 -7.046875q-0.71875 -0.1875 -1.359375 -0.578125q-0.625 -0.390625 -1.125 -0.890625q-0.5 -0.515625 -0.8125 -0.953125q-0.21875 -0.375 -0.375 -0.890625q-0.140625 -0.53125 -0.203125 -1.34375q-0.046875 -0.828125 -0.046875 -2.109375l0 -10.484367l1.828125 -1.375l1.484375 1.296875l0 10.796867q0 1.9375 0.59375 2.796875q0.609375 0.859375 1.875 0.859375q1.34375 0 2.921875 -0.71875q1.59375 -0.734375 3.015625 -1.671875l0.671875 1.609375q-1.375 1.078125 -3.03125 1.90625q-1.640625 0.8125 -3.109375 1.28125q-1.46875 0.46875 -2.328125 0.46875zm-6.71875 -15.718742l-0.453125 -1.75q1.125 -0.53125 2.515625 -0.828125q1.40625 -0.296875 2.5625 -0.328125l0.484375 0.921875l-1.640625 1.71875l-3.46875 0.265625zm16.609375 15.718742q-0.421875 -0.046875 -1.015625 -0.515625q-0.59375 -0.453125 -1.09375 -1.15625q-0.5 -0.71875 -0.6875 -1.421875l0 -0.53125l0 -13.624992l1.828125 -1.375l1.484375 1.296875l0 13.562492q0 0.40625 0.28125 0.578125q0.28125 0.15625 0.6875 0.15625q0.421875 0 0.875 -0.109375q0.46875 -0.109375 0.84375 -0.21875l0.5625 1.640625l-3.765625 1.71875zm-5.609375 -15.718742l-0.4375 -1.75q1.109375 -0.53125 2.515625 -0.828125q1.40625 -0.296875 2.5625 -0.328125l0.484375 0.921875l-1.640625 1.71875l-3.484375 0.265625zm19.639954 15.718742q-2.28125 0 -4.0 -0.75q-1.703125 -0.75 -2.875 -2.015625q-1.15625 -1.265625 -1.71875 -2.875q-0.546875 -1.609375 -0.546875 -3.359375q0 -1.8593674 0.609375 -3.6093674q0.625 -1.765625 1.734375 -3.140625q1.125 -1.390625 2.703125 -2.203125q1.59375 -0.828125 3.5 -0.828125q1.453125 0 2.6875 0.484375q1.234375 0.484375 2.140625 1.375q0.921875 0.875 1.40625 2.0625q0.484375 1.1875 0.4375 2.609375l-3.171875 1.3125q0.1875 -1.640625 -0.484375 -2.9375q-0.671875 -1.3125 -1.953125 -2.015625q-1.28125 -0.71875 -2.9375 -0.609375q-1.15625 0.59375 -1.84375 1.71875q-0.6875 1.109375 -1.015625 2.421875q-0.3125 1.3125 -0.3125 2.578125q0 2.2031174 0.8125 3.7499924q0.828125 1.546875 2.203125 2.375q1.390625 0.8125 3.109375 0.8125q1.125 0 2.3125 -0.328125q1.203125 -0.34375 2.46875 -0.90625l0.5625 1.609375l-5.828125 2.46875zm3.953125 -10.156242l-9.890625 -0.1875l0 -1.9375l11.609375 -0.53125l0.40625 0.5625l-2.125 2.09375z" fill-rule="nonzero"/><path fill="#999999" d="m537.74146 123.37664l0 0c67.83972 0 122.834656 -54.99494 122.834656 -122.83465l0 0l0 0c0 67.83971 54.994934 122.83465 122.834656 122.83465l0 0l0 0c-67.83972 0 -122.834656 54.99494 -122.834656 122.83465l0 0c0 -67.83971 -54.994934 -122.83465 -122.834656 -122.83465z" fill-rule="evenodd"/><path stroke="#999999" stroke-width="1.0" stroke-linejoin="round" stroke-linecap="butt" d="m537.74146 123.37664l0 0c67.83972 0 122.834656 -54.99494 122.834656 -122.83465l0 0l0 0c0 67.83971 54.994934 122.83465 122.834656 122.83465l0 0l0 0c-67.83972 0 -122.834656 54.99494 -122.834656 122.83465l0 0c0 -67.83971 -54.994934 -122.83465 -122.834656 -122.83465z" fill-rule="evenodd"/><path fill="#000000" d="m584.98553 123.37664l0 0c41.74756 0 75.590576 -33.84304 75.590576 -75.590546l0 0l0 0c0 41.74751 33.843018 75.590546 75.590576 75.590546l0 0l0 0c-41.74756 0 -75.590576 33.84304 -75.590576 75.59055l0 0c0 -41.747513 -33.843018 -75.59055 -75.590576 -75.59055z" fill-rule="evenodd"/><path stroke="#000000" stroke-width="1.0" stroke-linejoin="round" stroke-linecap="butt" d="m584.98553 123.37664l0 0c41.74756 0 75.590576 -33.84304 75.590576 -75.590546l0 0l0 0c0 41.74751 33.843018 75.590546 75.590576 75.590546l0 0l0 0c-41.74756 0 -75.590576 33.84304 -75.590576 75.59055l0 0c0 -41.747513 -33.843018 -75.59055 -75.590576 -75.59055z" fill-rule="evenodd"/><path fill="#999999" d="m660.5126 114.9635l38.740173 38.740158l-17.31842 0l-21.41864 -21.418655l-21.418701 21.418655l-17.324585 0z" fill-rule="evenodd"/><path stroke="#999999" stroke-width="1.0" stroke-linejoin="round" stroke-linecap="butt" d="m660.5126 114.9635l38.740173 38.740158l-17.31842 0l-21.41864 -21.418655l-21.418701 21.418655l-17.324585 0z" fill-rule="evenodd"/><path fill="#999999" d="m1.003937 123.37664l0 0c67.8397 0 122.83465 -54.99494 122.83465 -122.83465l0 0l0 0c0 67.83971 54.99494 122.83465 122.83465 122.83465l0 0l0 0c-67.83971 0 -122.83465 54.99494 -122.83465 122.83465l0 0c0 -67.83971 -54.99495 -122.83465 -122.83465 -122.83465z" fill-rule="evenodd"/><path stroke="#999999" stroke-width="1.0" stroke-linejoin="round" stroke-linecap="butt" d="m1.003937 123.37664l0 0c67.8397 0 122.83465 -54.99494 122.83465 -122.83465l0 0l0 0c0 67.83971 54.99494 122.83465 122.83465 122.83465l0 0l0 0c-67.83971 0 -122.83465 54.99494 -122.83465 122.83465l0 0c0 -67.83971 -54.99495 -122.83465 -122.83465 -122.83465z" fill-rule="evenodd"/><path fill="#000000" d="m48.24803 123.37664l0 0c41.747505 0 75.59055 -33.84304 75.59055 -75.590546l0 0l0 0c0 41.74751 33.84304 75.590546 75.59055 75.590546l0 0l0 0c-41.747513 0 -75.59055 33.84304 -75.59055 75.59055l0 0c0 -41.747513 -33.84305 -75.59055 -75.59055 -75.59055z" fill-rule="evenodd"/><path stroke="#000000" stroke-width="1.0" stroke-linejoin="round" stroke-linecap="butt" d="m48.24803 123.37664l0 0c41.747505 0 75.59055 -33.84304 75.59055 -75.590546l0 0l0 0c0 41.74751 33.84304 75.590546 75.59055 75.590546l0 0l0 0c-41.747513 0 -75.59055 33.84304 -75.59055 75.59055l0 0c0 -41.747513 -33.84305 -75.59055 -75.59055 -75.59055z" fill-rule="evenodd"/><path fill="#999999" d="m123.77503 114.9635l38.74015 38.740158l-17.31839 0l-21.418663 -21.418655l-21.418655 21.418655l-17.3246 0z" fill-rule="evenodd"/><path stroke="#999999" stroke-width="1.0" stroke-linejoin="round" stroke-linecap="butt" d="m123.77503 114.9635l38.74015 38.740158l-17.31839 0l-21.418663 -21.418655l-21.418655 21.418655l-17.3246 0z" fill-rule="evenodd"/></g></svg>