<svg version="1.1" viewBox="0.0 0.0 249.7270341207349 246.99475065616798" fill="none" stroke="none" stroke-linecap="square" stroke-miterlimit="10" xmlns:xlink="http://www.w3.org/1999/xlink" xmlns="http://www.w3.org/2000/svg"><clipPath id="p.0"><path d="m0 0l249.72704 0l0 246.99475l-249.72704 0l0 -246.99475z" clip-rule="nonzero"/></clipPath><g clip-path="url(#p.0)"><path fill="#000000" fill-opacity="0.0" d="m0 0l249.72704 0l0 246.99475l-249.72704 0z" fill-rule="evenodd"/><path fill="#999999" d="m2.027559 123.49606l0 0c67.83971 0 122.83465 -54.99494 122.83465 -122.83465l0 0l0 0c0 67.83971 54.99494 122.83465 122.83465 122.83465l0 0l0 0c-67.83971 0 -122.83465 54.99495 -122.83465 122.83464l0 0c0 -67.83969 -54.99494 -122.83464 -122.83465 -122.83464z" fill-rule="evenodd"/><path stroke="#999999" stroke-width="1.0" stroke-linejoin="round" stroke-linecap="butt" d="m2.027559 123.49606l0 0c67.83971 0 122.83465 -54.99494 122.83465 -122.83465l0 0l0 0c0 67.83971 54.99494 122.83465 122.83465 122.83465l0 0l0 0c-67.83971 0 -122.83465 54.99495 -122.83465 122.83464l0 0c0 -67.83969 -54.99494 -122.83464 -122.83465 -122.83464z" fill-rule="evenodd"/><path fill="#000000" d="m49.271652 123.49606l0 0c41.747513 0 75.59055 -33.84304 75.59055 -75.59055l0 0l0 0c0 41.747513 33.84304 75.59055 75.59055 75.59055l0 0l0 0c-41.747513 0 -75.59055 33.84305 -75.59055 75.590546l0 0c0 -41.747498 -33.84304 -75.590546 -75.59055 -75.590546z" fill-rule="evenodd"/><path stroke="#000000" stroke-width="1.0" stroke-linejoin="round" stroke-linecap="butt" d="m49.271652 123.49606l0 0c41.747513 0 75.59055 -33.84304 75.59055 -75.59055l0 0l0 0c0 41.747513 33.84304 75.59055 75.59055 75.59055l0 0l0 0c-41.747513 0 -75.59055 33.84305 -75.59055 75.590546l0 0c0 -41.747498 -33.84304 -75.590546 -75.59055 -75.590546z" fill-rule="evenodd"/><path fill="#999999" d="m124.79865 115.082924l38.74015 38.740166l-17.31839 0l-21.418663 -21.41867l-21.418655 21.41867l-17.3246 0z" fill-rule="evenodd"/><path stroke="#999999" stroke-width="1.0" stroke-linejoin="round" stroke-linecap="butt" d="m124.79865 115.082924l38.74015 38.740166l-17.31839 0l-21.418663 -21.41867l-21.418655 21.41867l-17.3246 0z" fill-rule="evenodd"/><path fill="#ffffff" d="m33.32021 146.15224q23.59666 7.7747955 47.193325 11.541458l-22.88583 -1.2151947q67.23581 16.27098 134.47163 0l-22.885834 1.2151947q23.596664 -3.7666626 47.19333 -11.541458l-22.885834 28.138794l22.885834 14.942749q-12.153748 4.0045013 -24.307495 6.945694l0 3.3805695q-67.23582 16.27098 -134.47163 0l0 -3.3805695q-12.153748 -2.9411926 -24.307495 -6.945694l22.885826 -14.942749z" fill-rule="evenodd"/><path fill="#cbcbcb" d="m80.513535 161.07426q44.349983 7.0794525 88.69997 0l0 -3.3805695l22.885834 -1.2151947q-67.23582 16.27098 -134.47163 0l22.88583 1.2151947z" fill-rule="evenodd"/><path fill="#000000" fill-opacity="0.0" d="m33.32021 146.15224q23.59666 7.7747955 47.193325 11.541458l-22.88583 -1.2151947q67.23581 16.27098 134.47163 0l-22.885834 1.2151947q23.596664 -3.7666626 47.19333 -11.541458l-22.885834 28.138794l22.885834 14.942749q-12.153748 4.0045013 -24.307495 6.945694l0 3.3805695q-67.23582 16.27098 -134.47163 0l0 -3.3805695q-12.153748 -2.9411926 -24.307495 -6.945694l22.885826 -14.942749zm24.307495 50.027237l0 -39.700974m134.47163 0l0 39.700974m-111.5858 -38.48578l0 3.3805695m88.69997 0l0 -3.3805695" fill-rule="evenodd"/><path stroke="#cccccc" stroke-width="1.0" stroke-linejoin="round" stroke-linecap="butt" d="m33.32021 146.15224q23.59666 7.7747955 47.193325 11.541458l-22.88583 -1.2151947q67.23581 16.27098 134.47163 0l-22.885834 1.2151947q23.596664 -3.7666626 47.19333 -11.541458l-22.885834 28.138794l22.885834 14.942749q-12.153748 4.0045013 -24.307495 6.945694l0 3.3805695q-67.23582 16.27098 -134.47163 0l0 -3.3805695q-12.153748 -2.9411926 -24.307495 -6.945694l22.885826 -14.942749zm24.307495 50.027237l0 -39.700974m134.47163 0l0 39.700974m-111.5858 -38.48578l0 3.3805695m88.69997 0l0 -3.3805695" fill-rule="evenodd"/><path fill="#000000" d="m91.79041 187.15576l0.078125 -1.921875q0.609375 0.140625 1.296875 0.21875q0.703125 0.078125 1.296875 0.125q0.59375 0.03125 0.921875 0.03125q1.4375 0 2.296875 -0.578125q0.875 -0.59375 1.265625 -1.515625q0.40625 -0.921875 0.40625 -1.9375q0 -0.8125 -0.234375 -1.578125q-0.21875 -0.765625 -0.6875 -1.359375q-0.46875 -0.59375 -1.15625 -0.921875l-5.015625 0.421875l-3.9375 -1.78125l7.4375 -0.21875q2.125 0 3.515625 0.828125q1.40625 0.8125 2.09375 2.0625q0.703125 1.25 0.703125 2.640625q0 1.359375 -0.6875 2.625q-0.671875 1.265625 -2.015625 2.0625q-1.34375 0.796875 -3.375 0.796875l-4.203125 0zm-3.71875 6.53125l-0.15625 -0.859375q0.609375 -0.28125 1.28125 -0.5q0.6875 -0.234375 1.359375 -0.421875l0.03125 1.78125l-2.515625 0zm3.953125 0l0.078125 -1.671875l3.671875 0.421875l-0.015625 1.25l-3.734375 0zm-1.84375 0l0 -17.328125l2.484375 0l0 17.328125l-2.484375 0zm0.671875 -15.890625l-2.5625 -0.15625l0.03125 -1.28125l2.46875 0l0.0625 1.4375zm14.471603 15.890625l0 -11.921875l1.3125 -0.984375l1.0625 0.9375l0 11.96875l-2.375 0zm1.59375 -6.609375l-0.53125 -1.546875l4.109375 -4.375q0.90625 -0.375 1.65625 -0.28125q0.765625 0.078125 1.40625 0.46875q0.03125 0.515625 0 1.0625q-0.03125 0.53125 -0.078125 1.09375q-0.046875 0.5625 -0.15625 1.109375q-0.109375 0.546875 -0.25 1.046875l-1.4375 0l-0.28125 -2.921875q-0.671875 0.375 -1.484375 1.015625q-0.8125 0.640625 -1.609375 1.484375q-0.78125 0.828125 -1.34375 1.84375zm-3.59375 -4.21875l-0.3125 -1.25q0.796875 -0.375 1.796875 -0.578125q1.0 -0.21875 1.828125 -0.25l0.34375 0.671875l-1.171875 1.21875l-2.484375 0.1875zm0.1875 10.828125l-0.140625 -0.875q0.484375 -0.25 1.296875 -0.515625q0.8125 -0.265625 1.328125 -0.390625l-0.375 1.78125l-2.109375 0zm3.765625 0l0.015625 -1.78125q0.453125 0 1.078125 0.078125q0.625 0.078125 1.203125 0.1875q0.578125 0.109375 0.875 0.234375l-0.171875 1.28125l-3.0 0zm13.053009 0.53125q-1.671875 0 -3.046875 -0.828125q-1.375 -0.84375 -2.203125 -2.375q-0.828125 -1.546875 -0.828125 -3.625q0 -2.125 0.84375 -3.625q0.84375 -1.515625 2.203125 -2.296875q1.375 -0.796875 2.984375 -0.796875q1.6406174 0 2.9531174 0.828125q1.328125 0.8125 2.109375 2.34375q0.796875 1.53125 0.796875 3.71875q0 2.203125 -0.796875 3.6875q-0.796875 1.484375 -2.125 2.234375q-1.3125 0.734375 -2.8906174 0.734375zm0.296875 -1.734375q0.609375 0 1.2812424 -0.1875q0.75 -0.5 1.109375 -1.265625q0.375 -0.78125 0.5 -1.625q0.125 -0.859375 0.125 -1.5625q0 -1.453125 -0.359375 -2.703125q-0.359375 -1.265625 -1.15625 -2.03125q-0.7812424 -0.78125 -2.0624924 -0.78125q-0.609375 0 -1.140625 0.171875q-0.53125 0.171875 -0.890625 0.421875q-0.6875 0.828125 -0.96875 1.96875q-0.28125 1.125 -0.28125 2.21875q0 1.375 0.390625 2.625q0.40625 1.234375 1.265625 2.0q0.859375 0.75 2.1875 0.75zm8.400658 1.203125l0 -15.0q0 -1.578125 0.625 -2.6875q0.640625 -1.125 1.640625 -1.71875q1.0 -0.609375 2.125 -0.609375q0.78125 0 1.5625 0.3125q0.78125 0.296875 1.453125 0.984375l-1.5 2.140625q-0.90625 -0.90625 -1.984375 -1.1875q-1.078125 -0.28125 -2.03125 0.09375l0.640625 5.46875l-0.171875 0.609375l0 11.59375l-2.359375 0zm-1.6875 0l-0.125 -0.875q0.46875 -0.25 1.28125 -0.515625q0.8125 -0.265625 1.328125 -0.390625l-0.375 1.78125l-2.109375 0zm3.84375 0l0.015625 -1.78125q0.703125 0.046875 1.4375 0.171875q0.734375 0.109375 1.1875 0.328125l-0.171875 1.28125l-2.46875 0zm-3.8125 -10.421875l-0.15625 -1.3125q0.796875 -0.375 1.546875 -0.53125q0.765625 -0.15625 1.453125 -0.203125l0.59375 0.640625l-1.140625 1.328125l-2.296875 0.078125zm2.84375 0l0 -2.046875l4.109375 0l0.078125 0.734375l-1.25 1.3125l-2.9375 0zm8.0 10.421875l0 -11.921875l1.3125 -0.984375l1.0625 0.9375l0 11.96875l-2.375 0zm-1.890625 0l-0.140625 -0.875q0.484375 -0.25 1.296875 -0.515625q0.8125 -0.265625 1.328125 -0.390625l-0.375 1.78125l-2.109375 0zm3.546875 0l0.015625 -1.78125q0.703125 0.046875 1.4375 0.171875q0.734375 0.109375 1.1875 0.328125l-0.171875 1.28125l-2.46875 0zm-3.65625 -10.828125l-0.3125 -1.25q0.796875 -0.375 1.796875 -0.578125q1.0 -0.21875 1.828125 -0.25l0.34375 0.671875l-1.171875 1.21875l-2.484375 0.1875zm3.3125 -4.453125q-0.515625 -0.203125 -1.125 -0.671875q-0.609375 -0.46875 -0.9375 -0.921875q0.296875 -0.609375 0.75 -1.171875q0.453125 -0.578125 0.875 -0.859375q0.5625 0.21875 1.125 0.71875q0.578125 0.484375 0.875 0.890625q-0.1875 0.53125 -0.65625 1.125q-0.453125 0.578125 -0.90625 0.890625zm6.233597 15.28125l0 -18.609375l1.3125 -0.984375l1.0625 0.9375l0 18.65625l-2.375 0zm-1.890625 0l-0.140625 -0.875q0.484375 -0.25 1.296875 -0.515625q0.8125 -0.265625 1.328125 -0.390625l-0.375 1.78125l-2.109375 0zm3.546875 0l0.015625 -1.78125q0.703125 0.046875 1.4375 0.171875q0.734375 0.109375 1.1875 0.328125l-0.171875 1.28125l-2.46875 0zm-3.65625 -17.515625l-0.3125 -1.25q0.796875 -0.375 1.796875 -0.578125q1.0 -0.21875 1.828125 -0.25l0.34375 0.671875l-1.171875 1.21875l-2.484375 0.1875zm13.887283 17.921875q-1.625 0 -2.859375 -0.53125q-1.21875 -0.546875 -2.046875 -1.453125q-0.828125 -0.90625 -1.234375 -2.046875q-0.390625 -1.140625 -0.390625 -2.40625q0 -1.328125 0.4375 -2.578125q0.4375 -1.25 1.234375 -2.234375q0.8125 -0.984375 1.9375 -1.578125q1.140625 -0.59375 2.5 -0.59375q1.03125 0 1.90625 0.359375q0.890625 0.34375 1.546875 0.96875q0.65625 0.625 1.0 1.484375q0.34375 0.84375 0.3125 1.859375l-2.265625 0.9375q0.140625 -1.171875 -0.34375 -2.109375q-0.484375 -0.9375 -1.40625 -1.4375q-0.90625 -0.515625 -2.09375 -0.421875q-0.8125 0.421875 -1.3125 1.21875q-0.5 0.796875 -0.734375 1.734375q-0.21875 0.9375 -0.21875 1.84375q0 1.5625 0.59375 2.671875q0.59375 1.109375 1.578125 1.703125q0.984375 0.578125 2.203125 0.578125q0.796875 0 1.65625 -0.234375q0.859375 -0.25 1.765625 -0.640625l0.390625 1.140625l-4.15625 1.765625zm2.828125 -7.25l-7.0625 -0.140625l0 -1.390625l8.28125 -0.375l0.296875 0.40625l-1.515625 1.5z" fill-rule="nonzero"/></g></svg>