<svg version="1.1" viewBox="0.0 0.0 456.9763779527559 682.1548556430446" fill="none" stroke="none" stroke-linecap="square" stroke-miterlimit="10" xmlns:xlink="http://www.w3.org/1999/xlink" xmlns="http://www.w3.org/2000/svg"><clipPath id="p.0"><path d="m0 0l456.97638 0l0 682.15485l-456.97638 0l0 -682.15485z" clip-rule="nonzero"/></clipPath><g clip-path="url(#p.0)"><path fill="#000000" fill-opacity="0.0" d="m0 0l456.97638 0l0 682.15485l-456.97638 0z" fill-rule="evenodd"/><path fill="#000000" fill-opacity="0.0" d="m6.141732 105.490555l0 0c55.387062 0 100.28715 -44.90008 100.28715 -100.28714l244.1186 0l0 0c0 55.387062 44.900085 100.28714 100.28717 100.28714l0 471.17377l0 0c-55.387085 0 -100.28717 44.900085 -100.28717 100.28711l-244.1186 0c0 -55.387024 -44.900085 -100.28711 -100.28715 -100.28711z" fill-rule="evenodd"/><path stroke="#bf9000" stroke-width="3.0" stroke-linejoin="round" stroke-linecap="butt" d="m6.141732 105.490555l0 0c55.387062 0 100.28715 -44.90008 100.28715 -100.28714l244.1186 0l0 0c0 55.387062 44.900085 100.28714 100.28717 100.28714l0 471.17377l0 0c-55.387085 0 -100.28717 44.900085 -100.28717 100.28711l-244.1186 0c0 -55.387024 -44.900085 -100.28711 -100.28715 -100.28711z" fill-rule="evenodd"/><path fill="#000000" fill-opacity="0.0" d="m43.05512 38.32152l370.86615 0l0 605.5118l-370.86615 0z" fill-rule="evenodd"/><path stroke="#bf9000" stroke-width="3.0" stroke-linejoin="round" stroke-linecap="butt" d="m43.05512 38.32152l370.86615 0l0 605.5118l-370.86615 0z" fill-rule="evenodd"/></g></svg>