<svg version="1.1" viewBox="0.0 0.0 806.1233595800525 121.76902887139107" fill="none" stroke="none" stroke-linecap="square" stroke-miterlimit="10" xmlns:xlink="http://www.w3.org/1999/xlink" xmlns="http://www.w3.org/2000/svg"><clipPath id="p.0"><path d="m0 0l806.12335 0l0 121.76903l-806.12335 0l0 -121.76903z" clip-rule="nonzero"/></clipPath><g clip-path="url(#p.0)"><path fill="#000000" fill-opacity="0.0" d="m0 0l806.12335 0l0 121.76903l-806.12335 0z" fill-rule="evenodd"/><g filter="url(#shadowFilter-p.1)"><use xlink:href="#p.1" transform="matrix(1.0 0.0 0.0 1.0 18.270908923884505 -8.134732808398953)"/></g><defs><filter id="shadowFilter-p.1" filterUnits="userSpaceOnUse"><feGaussianBlur in="SourceAlpha" stdDeviation="2.0" result="blur"/><feComponentTransfer in="blur" color-interpolation-filters="sRGB"><feFuncR type="linear" slope="0" intercept="0.0"/><feFuncG type="linear" slope="0" intercept="0.0"/><feFuncB type="linear" slope="0" intercept="0.0"/><feFuncA type="linear" slope="0.5" intercept="0"/></feComponentTransfer></filter></defs><g id="p.1"><path fill="#ffffff" d="m392.1983 104.11956l-311.21262 -29.543312l311.21262 -29.543304z" fill-rule="evenodd"/></g><g filter="url(#shadowFilter-p.2)"><use xlink:href="#p.2" transform="matrix(1.0 0.0 0.0 1.0 18.270908923884516 -8.134732808398953)"/></g><defs><filter id="shadowFilter-p.2" filterUnits="userSpaceOnUse"><feGaussianBlur in="SourceAlpha" stdDeviation="2.0" result="blur"/><feComponentTransfer in="blur" color-interpolation-filters="sRGB"><feFuncR type="linear" slope="0" intercept="0.0"/><feFuncG type="linear" slope="0" intercept="0.0"/><feFuncB type="linear" slope="0" intercept="0.0"/><feFuncA type="linear" slope="0.5" intercept="0"/></feComponentTransfer></filter></defs><g id="p.2"><path fill="#000000" d="m392.19568 104.11956l311.2126 -29.543312l-311.2126 -29.543304z" fill-rule="evenodd"/></g><g filter="url(#shadowFilter-p.3)"><use xlink:href="#p.3" transform="matrix(1.0 0.0 0.0 1.0 24.99619238845148 -0.4363102362204697)"/></g><defs><filter id="shadowFilter-p.3" filterUnits="userSpaceOnUse"><feGaussianBlur in="SourceAlpha" stdDeviation="2.0" result="blur"/><feComponentTransfer in="blur" color-interpolation-filters="sRGB"><feFuncR type="linear" slope="0" intercept="0.0"/><feFuncG type="linear" slope="0" intercept="0.0"/><feFuncB type="linear" slope="0" intercept="0.0"/><feFuncA type="linear" slope="0.5" intercept="0"/></feComponentTransfer></filter></defs><g id="p.3"><path fill="#ffffff" d="m668.4401 68.33496l-8.141724 12.787399c0 5.340576E-5 -6.1035156E-5 1.2207031E-4 0 1.9073486E-4c0 6.1035156E-5 6.1035156E-5 1.2207031E-4 1.2207031E-4 1.6021729E-4l13.731506 8.740898l0 0c7.062622 4.495949 16.433228 2.4155273 20.92981 -4.646759l8.141724 -12.787407l0 0c6.1035156E-5 -1.1444092E-4 6.1035156E-5 -2.670288E-4 -6.1035156E-5 -3.4332275E-4l-13.731506 -8.740902l0 0c-7.062683 -4.4959526 -16.433289 -2.4155273 -20.92987 4.646763z" fill-rule="evenodd"/><path stroke="#000000" stroke-width="1.0" stroke-linejoin="round" stroke-linecap="butt" d="m668.4401 68.33496l-8.141724 12.787399c0 5.340576E-5 -6.1035156E-5 1.2207031E-4 0 1.9073486E-4c0 6.1035156E-5 6.1035156E-5 1.2207031E-4 1.2207031E-4 1.6021729E-4l13.731506 8.740898l0 0c7.062622 4.495949 16.433228 2.4155273 20.92981 -4.646759l8.141724 -12.787407l0 0c6.1035156E-5 -1.1444092E-4 6.1035156E-5 -2.670288E-4 -6.1035156E-5 -3.4332275E-4l-13.731506 -8.740902l0 0c-7.062683 -4.4959526 -16.433289 -2.4155273 -20.92987 4.646763z" fill-rule="evenodd"/></g><g filter="url(#shadowFilter-p.4)"><use xlink:href="#p.4" transform="matrix(1.0 0.0 0.0 1.0 24.9961923884514 -0.4363102362204697)"/></g><defs><filter id="shadowFilter-p.4" filterUnits="userSpaceOnUse"><feGaussianBlur in="SourceAlpha" stdDeviation="2.0" result="blur"/><feComponentTransfer in="blur" color-interpolation-filters="sRGB"><feFuncR type="linear" slope="0" intercept="0.0"/><feFuncG type="linear" slope="0" intercept="0.0"/><feFuncB type="linear" slope="0" intercept="0.0"/><feFuncA type="linear" slope="0.5" intercept="0"/></feComponentTransfer></filter></defs><g id="p.4"><path fill="#ffffff" d="m706.35913 11.236621l-22.141724 -9.196851c-1.2207031E-4 -4.0769577E-5 -2.4414062E-4 -4.1007996E-5 -3.0517578E-4 -7.1525574E-7c-1.2207031E-4 4.029274E-5 -1.8310547E-4 1.1754036E-4 -2.4414062E-4 2.1505356E-4l-11.240234 26.411343c-5.185486 12.183891 0.52404785 26.178452 12.752563 31.257732l22.141724 9.196854l0 0c2.4414062E-4 8.392334E-5 4.272461E-4 -1.5258789E-5 5.493164E-4 -2.1362305E-4l11.240234 -26.411346l0 0c5.185486 -12.183889 -0.52404785 -26.178453 -12.752563 -31.257732z" fill-rule="evenodd"/><path stroke="#000000" stroke-width="1.0" stroke-linejoin="round" stroke-linecap="butt" d="m706.35913 11.236621l-22.141724 -9.196851c-1.2207031E-4 -4.0769577E-5 -2.4414062E-4 -4.1007996E-5 -3.0517578E-4 -7.1525574E-7c-1.2207031E-4 4.029274E-5 -1.8310547E-4 1.1754036E-4 -2.4414062E-4 2.1505356E-4l-11.240234 26.411343c-5.185486 12.183891 0.52404785 26.178452 12.752563 31.257732l22.141724 9.196854l0 0c2.4414062E-4 8.392334E-5 4.272461E-4 -1.5258789E-5 5.493164E-4 -2.1362305E-4l11.240234 -26.411346l0 0c5.185486 -12.183889 -0.52404785 -26.178453 -12.752563 -31.257732z" fill-rule="evenodd"/></g><g filter="url(#shadowFilter-p.5)"><use xlink:href="#p.5" transform="matrix(1.0 0.0 0.0 1.0 24.99619238845148 -0.4363102362204697)"/></g><defs><filter id="shadowFilter-p.5" filterUnits="userSpaceOnUse"><feGaussianBlur in="SourceAlpha" stdDeviation="2.0" result="blur"/><feComponentTransfer in="blur" color-interpolation-filters="sRGB"><feFuncR type="linear" slope="0" intercept="0.0"/><feFuncG type="linear" slope="0" intercept="0.0"/><feFuncB type="linear" slope="0" intercept="0.0"/><feFuncA type="linear" slope="0.5" intercept="0"/></feComponentTransfer></filter></defs><g id="p.5"><path fill="#ffffff" d="m717.2212 109.460945l-11.055115 10.346451c-6.1035156E-5 4.5776367E-5 -1.2207031E-4 7.6293945E-5 -1.8310547E-4 6.866455E-5c-6.1035156E-5 0 -1.2207031E-4 -3.0517578E-5 -1.8310547E-4 -7.6293945E-5l-11.0164795 -12.129982l0 0c-5.6222534 -6.1903305 -5.2304688 -15.840858 0.8751221 -21.555046l11.055115 -10.346458l0 0c6.1035156E-5 -9.1552734E-5 2.4414062E-4 -8.392334E-5 3.6621094E-4 1.5258789E-5l11.0164795 12.129982l0 0c5.6222534 6.1903305 5.2304688 15.840851 -0.8751221 21.555046z" fill-rule="evenodd"/><path stroke="#000000" stroke-width="1.0" stroke-linejoin="round" stroke-linecap="butt" d="m717.2212 109.460945l-11.055115 10.346451c-6.1035156E-5 4.5776367E-5 -1.2207031E-4 7.6293945E-5 -1.8310547E-4 6.866455E-5c-6.1035156E-5 0 -1.2207031E-4 -3.0517578E-5 -1.8310547E-4 -7.6293945E-5l-11.0164795 -12.129982l0 0c-5.6222534 -6.1903305 -5.2304688 -15.840858 0.8751221 -21.555046l11.055115 -10.346458l0 0c6.1035156E-5 -9.1552734E-5 2.4414062E-4 -8.392334E-5 3.6621094E-4 1.5258789E-5l11.0164795 12.129982l0 0c5.6222534 6.1903305 5.2304688 15.840851 -0.8751221 21.555046z" fill-rule="evenodd"/></g><g filter="url(#shadowFilter-p.6)"><use xlink:href="#p.6" transform="matrix(1.0 0.0 0.0 1.0 24.99619238845148 -0.4363102362204697)"/></g><defs><filter id="shadowFilter-p.6" filterUnits="userSpaceOnUse"><feGaussianBlur in="SourceAlpha" stdDeviation="2.0" result="blur"/><feComponentTransfer in="blur" color-interpolation-filters="sRGB"><feFuncR type="linear" slope="0" intercept="0.0"/><feFuncG type="linear" slope="0" intercept="0.0"/><feFuncB type="linear" slope="0" intercept="0.0"/><feFuncA type="linear" slope="0.5" intercept="0"/></feComponentTransfer></filter></defs><g id="p.6"><path fill="#ffffff" d="m766.2792 61.733063l12.897644 20.330711c6.1035156E-5 9.1552734E-5 6.1035156E-5 1.9836426E-4 0 3.0517578E-4c0 1.0681152E-4 -6.1035156E-5 1.9836426E-4 -1.2207031E-4 2.5177002E-4l-23.640808 15.731644c-11.070068 7.366745 -25.818604 4.2362976 -32.941772 -6.9920425l-12.897644 -20.330711l0 0c-1.2207031E-4 -1.8310547E-4 -6.1035156E-5 -4.348755E-4 1.2207031E-4 -5.569458E-4l23.640808 -15.7316475l0 0c11.070068 -7.3667374 25.818604 -4.236294 32.941772 6.9920464z" fill-rule="evenodd"/><path stroke="#000000" stroke-width="1.0" stroke-linejoin="round" stroke-linecap="butt" d="m766.2792 61.733063l12.897644 20.330711c6.1035156E-5 9.1552734E-5 6.1035156E-5 1.9836426E-4 0 3.0517578E-4c0 1.0681152E-4 -6.1035156E-5 1.9836426E-4 -1.2207031E-4 2.5177002E-4l-23.640808 15.731644c-11.070068 7.366745 -25.818604 4.2362976 -32.941772 -6.9920425l-12.897644 -20.330711l0 0c-1.2207031E-4 -1.8310547E-4 -6.1035156E-5 -4.348755E-4 1.2207031E-4 -5.569458E-4l23.640808 -15.7316475l0 0c11.070068 -7.3667374 25.818604 -4.236294 32.941772 6.9920464z" fill-rule="evenodd"/></g><path fill="#ffffff" d="m392.25543 50.65499l0 0c13.385315 0 24.236237 10.709911 24.236237 23.921257c0 13.2113495 -10.850922 23.921265 -24.236237 23.921265l0 -11.960632c6.7796326 0 12.275604 -5.3549576 12.275604 -11.960632c0 -6.6056747 -5.4959717 -11.9606285 -12.275604 -11.9606285z" fill-rule="evenodd"/><path fill="#000000" d="m392.25412 50.65499l0 0c-13.385284 0 -24.236206 10.709911 -24.236206 23.921257c0 13.2113495 10.850922 23.921265 24.236206 23.921265l0 -11.960632c-6.779602 0 -12.275574 -5.3549576 -12.275574 -11.960632c0 -6.6056747 5.4959717 -11.9606285 12.275574 -11.9606285z" fill-rule="evenodd"/><g filter="url(#shadowFilter-p.7)"><use xlink:href="#p.7" transform="matrix(1.0 0.0 0.0 1.0 24.996192388451444 -0.4363102362204697)"/></g><defs><filter id="shadowFilter-p.7" filterUnits="userSpaceOnUse"><feGaussianBlur in="SourceAlpha" stdDeviation="2.0" result="blur"/><feComponentTransfer in="blur" color-interpolation-filters="sRGB"><feFuncR type="linear" slope="0" intercept="0.0"/><feFuncG type="linear" slope="0" intercept="0.0"/><feFuncB type="linear" slope="0" intercept="0.0"/><feFuncA type="linear" slope="0.5" intercept="0"/></feComponentTransfer></filter></defs><g id="p.7"><path fill="#000000" d="m14.938838 61.734375l-12.897638 20.330711c-5.698204E-5 9.1552734E-5 -7.6532364E-5 1.9836426E-4 -5.4121017E-5 3.0517578E-4c2.2411346E-5 1.0681152E-4 8.4638596E-5 1.9836426E-4 1.733303E-4 2.5177002E-4l23.640797 15.731644c11.070063 7.366745 25.818594 4.2362976 32.941765 -6.9920425l12.897636 -20.330711l0 0c1.2207031E-4 -1.8310547E-4 6.866455E-5 -4.348755E-4 -1.2207031E-4 -5.569458E-4l-23.640797 -15.7316475l0 0c-11.070061 -7.3667374 -25.81859 -4.236294 -32.941757 6.9920464z" fill-rule="evenodd"/><path stroke="#ffffff" stroke-width="1.0" stroke-linejoin="round" stroke-linecap="butt" d="m14.938838 61.734375l-12.897638 20.330711c-5.698204E-5 9.1552734E-5 -7.6532364E-5 1.9836426E-4 -5.4121017E-5 3.0517578E-4c2.2411346E-5 1.0681152E-4 8.4638596E-5 1.9836426E-4 1.733303E-4 2.5177002E-4l23.640797 15.731644c11.070063 7.366745 25.818594 4.2362976 32.941765 -6.9920425l12.897636 -20.330711l0 0c1.2207031E-4 -1.8310547E-4 6.866455E-5 -4.348755E-4 -1.2207031E-4 -5.569458E-4l-23.640797 -15.7316475l0 0c-11.070061 -7.3667374 -25.81859 -4.236294 -32.941757 6.9920464z" fill-rule="evenodd"/></g><g filter="url(#shadowFilter-p.8)"><use xlink:href="#p.8" transform="matrix(1.0 0.0 0.0 1.0 24.99619238845144 -0.4363102362204697)"/></g><defs><filter id="shadowFilter-p.8" filterUnits="userSpaceOnUse"><feGaussianBlur in="SourceAlpha" stdDeviation="2.0" result="blur"/><feComponentTransfer in="blur" color-interpolation-filters="sRGB"><feFuncR type="linear" slope="0" intercept="0.0"/><feFuncG type="linear" slope="0" intercept="0.0"/><feFuncB type="linear" slope="0" intercept="0.0"/><feFuncA type="linear" slope="0.5" intercept="0"/></feComponentTransfer></filter></defs><g id="p.8"><path fill="#000000" d="m74.85888 11.237933l22.141731 -9.196851c9.918213E-5 -4.053116E-5 2.0599365E-4 -4.0769577E-5 3.0517578E-4 -7.1525574E-7c9.918213E-5 4.029274E-5 1.7547607E-4 1.1754036E-4 2.2125244E-4 2.1505356E-4l11.240257 26.411343c5.185478 12.183891 -0.5240555 26.178452 -12.752594 31.257732l-22.141731 9.196854l0 0c-2.0599365E-4 8.392334E-5 -4.4250488E-4 -1.5258789E-5 -5.264282E-4 -2.1362305E-4l-11.240261 -26.411346l0 0c-5.185478 -12.183889 0.5240555 -26.178453 12.752598 -31.257732z" fill-rule="evenodd"/><path stroke="#ffffff" stroke-width="1.0" stroke-linejoin="round" stroke-linecap="butt" d="m74.85888 11.237933l22.141731 -9.196851c9.918213E-5 -4.053116E-5 2.0599365E-4 -4.0769577E-5 3.0517578E-4 -7.1525574E-7c9.918213E-5 4.029274E-5 1.7547607E-4 1.1754036E-4 2.2125244E-4 2.1505356E-4l11.240257 26.411343c5.185478 12.183891 -0.5240555 26.178452 -12.752594 31.257732l-22.141731 9.196854l0 0c-2.0599365E-4 8.392334E-5 -4.4250488E-4 -1.5258789E-5 -5.264282E-4 -2.1362305E-4l-11.240261 -26.411346l0 0c-5.185478 -12.183889 0.5240555 -26.178453 12.752598 -31.257732z" fill-rule="evenodd"/></g><g filter="url(#shadowFilter-p.9)"><use xlink:href="#p.9" transform="matrix(1.0 0.0 0.0 1.0 24.99619238845144 -0.4363102362204697)"/></g><defs><filter id="shadowFilter-p.9" filterUnits="userSpaceOnUse"><feGaussianBlur in="SourceAlpha" stdDeviation="2.0" result="blur"/><feComponentTransfer in="blur" color-interpolation-filters="sRGB"><feFuncR type="linear" slope="0" intercept="0.0"/><feFuncG type="linear" slope="0" intercept="0.0"/><feFuncB type="linear" slope="0" intercept="0.0"/><feFuncA type="linear" slope="0.5" intercept="0"/></feComponentTransfer></filter></defs><g id="p.9"><path fill="#000000" d="m63.996807 109.46226l11.055119 10.346458c4.5776367E-5 4.5776367E-5 1.1444092E-4 6.866455E-5 1.7547607E-4 6.1035156E-5c6.866455E-5 0 1.296997E-4 -3.0517578E-5 1.7547607E-4 -7.6293945E-5l11.016502 -12.129982l0 0c5.6222534 -6.1903305 5.2304535 -15.840858 -0.8751221 -21.555046l-11.055122 -10.346458l0 0c-9.918213E-5 -9.1552734E-5 -2.593994E-4 -8.392334E-5 -3.5095215E-4 1.5258789E-5l-11.016499 12.129982l0 0c-5.622257 6.1903305 -5.2304535 15.840851 0.8751221 21.555046z" fill-rule="evenodd"/><path stroke="#ffffff" stroke-width="1.0" stroke-linejoin="round" stroke-linecap="butt" d="m63.996807 109.46226l11.055119 10.346458c4.5776367E-5 4.5776367E-5 1.1444092E-4 6.866455E-5 1.7547607E-4 6.1035156E-5c6.866455E-5 0 1.296997E-4 -3.0517578E-5 1.7547607E-4 -7.6293945E-5l11.016502 -12.129982l0 0c5.6222534 -6.1903305 5.2304535 -15.840858 -0.8751221 -21.555046l-11.055122 -10.346458l0 0c-9.918213E-5 -9.1552734E-5 -2.593994E-4 -8.392334E-5 -3.5095215E-4 1.5258789E-5l-11.016499 12.129982l0 0c-5.622257 6.1903305 -5.2304535 15.840851 0.8751221 21.555046z" fill-rule="evenodd"/></g><g filter="url(#shadowFilter-p.10)"><use xlink:href="#p.10" transform="matrix(1.0 0.0 0.0 1.0 24.99619238845145 -0.4363102362204697)"/></g><defs><filter id="shadowFilter-p.10" filterUnits="userSpaceOnUse"><feGaussianBlur in="SourceAlpha" stdDeviation="2.0" result="blur"/><feComponentTransfer in="blur" color-interpolation-filters="sRGB"><feFuncR type="linear" slope="0" intercept="0.0"/><feFuncG type="linear" slope="0" intercept="0.0"/><feFuncB type="linear" slope="0" intercept="0.0"/><feFuncA type="linear" slope="0.5" intercept="0"/></feComponentTransfer></filter></defs><g id="p.10"><path fill="#000000" d="m112.77785 68.33627l8.141731 12.787399c3.8146973E-5 5.340576E-5 4.5776367E-5 1.2207031E-4 3.0517578E-5 1.9073486E-4c-1.5258789E-5 6.1035156E-5 -5.340576E-5 1.2207031E-4 -1.0681152E-4 1.6021729E-4l-13.731514 8.740898l0 0c-7.062668 4.495949 -16.433273 2.4155273 -20.929832 -4.646759l-8.141731 -12.787407l0 0c-6.866455E-5 -1.1444092E-4 -3.8146973E-5 -2.670288E-4 8.392334E-5 -3.4332275E-4l13.731506 -8.740902l0 0c7.0626755 -4.4959526 16.433273 -2.4155273 20.929832 4.646763z" fill-rule="evenodd"/><path stroke="#ffffff" stroke-width="1.0" stroke-linejoin="round" stroke-linecap="butt" d="m112.77785 68.33627l8.141731 12.787399c3.8146973E-5 5.340576E-5 4.5776367E-5 1.2207031E-4 3.0517578E-5 1.9073486E-4c-1.5258789E-5 6.1035156E-5 -5.340576E-5 1.2207031E-4 -1.0681152E-4 1.6021729E-4l-13.731514 8.740898l0 0c-7.062668 4.495949 -16.433273 2.4155273 -20.929832 -4.646759l-8.141731 -12.787407l0 0c-6.866455E-5 -1.1444092E-4 -3.8146973E-5 -2.670288E-4 8.392334E-5 -3.4332275E-4l13.731506 -8.740902l0 0c7.0626755 -4.4959526 16.433273 -2.4155273 20.929832 4.646763z" fill-rule="evenodd"/></g></g></svg>