<svg version="1.1" viewBox="0.0 0.0 502.5328083989501 755.6955380577427" fill="none" stroke="none" stroke-linecap="square" stroke-miterlimit="10" xmlns:xlink="http://www.w3.org/1999/xlink" xmlns="http://www.w3.org/2000/svg"><clipPath id="p.0"><path d="m0 0l502.5328 0l0 755.69556l-502.5328 0l0 -755.69556z" clip-rule="nonzero"/></clipPath><g clip-path="url(#p.0)"><path fill="#000000" fill-opacity="0.0" d="m0 0l502.5328 0l0 755.69556l-502.5328 0z" fill-rule="evenodd"/><g filter="url(#shadowFilter-p.1)"><use xlink:href="#p.1" transform="matrix(1.0 0.0 0.0 1.0 68.80877165354329 -48.18042073490814)"/></g><defs><filter id="shadowFilter-p.1" filterUnits="userSpaceOnUse"><feGaussianBlur in="SourceAlpha" stdDeviation="7.0" result="blur"/><feComponentTransfer in="blur" color-interpolation-filters="sRGB"><feFuncR type="linear" slope="0" intercept="0.0"/><feFuncG type="linear" slope="0" intercept="0.0"/><feFuncB type="linear" slope="0" intercept="0.0"/><feFuncA type="linear" slope="0.3" intercept="0"/></feComponentTransfer></filter></defs><g id="p.1"><path fill="#434343" d="m108.845146 66.338585l31.561699 -13.417324l26.422546 0l-31.561691 13.417324z" fill-rule="evenodd"/><path stroke="#434343" stroke-width="1.0" stroke-linejoin="round" stroke-linecap="butt" d="m108.845146 66.338585l31.561699 -13.417324l26.422546 0l-31.561691 13.417324z" fill-rule="evenodd"/></g><g filter="url(#shadowFilter-p.2)"><use xlink:href="#p.2" transform="matrix(1.0 0.0 0.0 1.0 68.80877165354329 -48.18042073490815)"/></g><defs><filter id="shadowFilter-p.2" filterUnits="userSpaceOnUse"><feGaussianBlur in="SourceAlpha" stdDeviation="7.0" result="blur"/><feComponentTransfer in="blur" color-interpolation-filters="sRGB"><feFuncR type="linear" slope="0" intercept="0.0"/><feFuncG type="linear" slope="0" intercept="0.0"/><feFuncB type="linear" slope="0" intercept="0.0"/><feFuncA type="linear" slope="0.3" intercept="0"/></feComponentTransfer></filter></defs><g id="p.2"><path fill="#434343" d="m274.57333 749.187l31.350525 -13.417297l29.121918 0l-31.350525 13.417297z" fill-rule="evenodd"/><path stroke="#434343" stroke-width="1.0" stroke-linejoin="round" stroke-linecap="butt" d="m274.57333 749.187l31.350525 -13.417297l29.121918 0l-31.350525 13.417297z" fill-rule="evenodd"/></g><g filter="url(#shadowFilter-p.3)"><use xlink:href="#p.3" transform="matrix(1.0 0.0 0.0 1.0 68.8087716535433 -48.18042073490815)"/></g><defs><filter id="shadowFilter-p.3" filterUnits="userSpaceOnUse"><feGaussianBlur in="SourceAlpha" stdDeviation="7.0" result="blur"/><feComponentTransfer in="blur" color-interpolation-filters="sRGB"><feFuncR type="linear" slope="0" intercept="0.0"/><feFuncG type="linear" slope="0" intercept="0.0"/><feFuncB type="linear" slope="0" intercept="0.0"/><feFuncA type="linear" slope="0.3" intercept="0"/></feComponentTransfer></filter></defs><g id="p.3"><path fill="#434343" d="m40.100468 292.91467l87.881805 442.2362l207.19702 0l87.881805 -442.2362z" fill-rule="evenodd"/><path stroke="#434343" stroke-width="1.0" stroke-linejoin="round" stroke-linecap="butt" d="m40.100468 292.91467l87.881805 442.2362l207.19702 0l87.881805 -442.2362z" fill-rule="evenodd"/><path fill="#000000" d="m251.88828 484.28464l0 13.359375l-5.921875 0q-1.78125 0 -2.703125 -0.359375q-0.9375 -0.359375 -1.484375 -1.28125q-0.5625 -0.90625 -0.5625 -2.015625q0 -1.40625 0.921875 -2.390625q0.921875 -0.96875 2.84375 -1.234375q-0.703125 -0.34375 -1.078125 -0.671875q-0.765625 -0.703125 -1.453125 -1.765625l-2.328125 -3.640625l2.21875 0l1.765625 2.78125q0.78125 1.203125 1.28125 1.828125q0.5 0.640625 0.90625 0.890625q0.390625 0.265625 0.796875 0.359375q0.296875 0.078125 0.984375 0.078125l2.046875 0l0 -5.9375l1.765625 0zm-1.765625 7.453125l-3.796875 0q-1.21875 0 -1.890625 0.25q-0.6875 0.265625 -1.046875 0.8125q-0.359375 0.546875 -0.359375 1.1875q0 0.953125 0.6875 1.5625q0.6875 0.609375 2.1875 0.609375l4.21875 0l0 -4.421875zm-17.785446 -6.265625q0.921875 -0.765625 1.765625 -1.09375q0.828125 -0.3125 1.796875 -0.3125q1.59375 0 2.453125 0.78125q0.859375 0.78125 0.859375 1.984375q0 0.71875 -0.328125 1.296875q-0.328125 0.59375 -0.84375 0.9375q-0.53125 0.359375 -1.1875 0.546875q-0.46875 0.125 -1.453125 0.25q-1.984375 0.234375 -2.921875 0.5625q-0.015625 0.34375 -0.015625 0.421875q0 1.0 0.46875 1.421875q0.625 0.546875 1.875 0.546875q1.15625 0 1.703125 -0.40625q0.546875 -0.40625 0.8125 -1.421875l1.609375 0.21875q-0.21875 1.015625 -0.71875 1.640625q-0.5 0.640625 -1.453125 0.984375q-0.953125 0.34375 -2.1875 0.34375q-1.25 0 -2.015625 -0.296875q-0.78125 -0.28125 -1.140625 -0.734375q-0.375 -0.4375 -0.515625 -1.109375q-0.078125 -0.421875 -0.078125 -1.515625l0 -2.1875q0 -2.28125 -0.109375 -2.890625q-0.109375 -0.59375 -0.40625 -1.15625l1.703125 0q0.265625 0.515625 0.328125 1.1875zm0.140625 3.671875q0.890625 -0.375 2.671875 -0.625q1.015625 -0.140625 1.4375 -0.328125q0.421875 -0.1875 0.65625 -0.53125q0.21875 -0.34375 0.21875 -0.78125q0 -0.65625 -0.5 -1.09375q-0.5 -0.4375 -1.453125 -0.4375q-0.9375 0 -1.671875 0.40625q-0.75 0.421875 -1.09375 1.140625q-0.265625 0.5625 -0.265625 1.640625l0 0.609375zm-10.516342 -1.3125l-1.609375 -0.21875q0.265625 -1.65625 1.359375 -2.609375q1.078125 -0.9375 2.671875 -0.9375q1.984375 0 3.1875 1.296875q1.203125 1.296875 1.203125 3.71875q0 1.578125 -0.515625 2.75q-0.515625 1.171875 -1.578125 1.75q-1.0625 0.59375 -2.3125 0.59375q-1.578125 0 -2.578125 -0.796875q-1.0 -0.796875 -1.28125 -2.265625l1.59375 -0.234375q0.234375 0.96875 0.8125 1.453125q0.578125 0.5 1.390625 0.5q1.234375 0 2.015625 -0.890625q0.78125 -0.890625 0.78125 -2.8125q0 -1.953125 -0.75 -2.84375q-0.75 -0.875 -1.953125 -0.875q-0.96875 0 -1.609375 0.59375q-0.65625 0.59375 -0.828125 1.828125zm-9.640625 -0.4375l-1.6875 -0.203125q0.40625 -1.484375 1.484375 -2.3125q1.078125 -0.8125 2.765625 -0.8125q2.125 0 3.375 1.296875q1.234375 1.3125 1.234375 3.671875q0 2.453125 -1.25 3.796875q-1.265625 1.34375 -3.265625 1.34375q-1.9375 0 -3.15625 -1.328125q-1.234375 -1.3125 -1.234375 -3.703125q0 -0.15625 0 -0.4375l7.21875 0q-0.09375 -1.59375 -0.90625 -2.453125q-0.8125 -0.84375 -2.015625 -0.84375q-0.90625 0 -1.546875 0.46875q-0.640625 0.484375 -1.015625 1.515625zm5.390625 2.65625l-5.40625 0q0.109375 1.21875 0.625 1.828125q0.78125 0.953125 2.03125 0.953125q1.125 0 1.90625 -0.765625q0.765625 -0.75 0.84375 -2.015625z" fill-rule="nonzero"/><path fill="#000000" d="m262.22363 462.28464l0 13.359375l-1.765625 0l0 -5.484375l-6.9375 0l0 5.484375l-1.765625 0l0 -13.359375l1.765625 0l0 6.296875l6.9375 0l0 -6.296875l1.765625 0zm-19.535446 0l0 1.421875q1.125 -1.640625 3.0625 -1.640625q0.859375 0 1.609375 0.328125q0.734375 0.328125 1.09375 0.828125q0.359375 0.5 0.5 1.21875q0.109375 0.46875 0.109375 1.53125l0 5.984375l-1.640625 0l0 -5.359375q0 -1.28125 -0.109375 -1.734375q-0.15625 -0.640625 -0.65625 -1.015625q-0.5 -0.375 -1.234375 -0.375q-0.734375 0 -1.375 0.375q-0.65625 0.390625 -0.921875 1.03125q-0.265625 0.65625 -0.265625 1.890625l0 5.1875l-1.640625 0l0 -9.671875l1.46875 0zm-4.047592 0l0 9.671875l-1.46875 0l0 -1.359375q-0.453125 0.71875 -1.203125 1.140625q-0.765625 0.4375 -1.71875 0.4375q-1.078125 0 -1.765625 -0.453125q-0.6875 -0.4375 -0.96875 -1.234375q-1.15625 1.6875 -2.984375 1.6875q-1.453125 0 -2.21875 -0.796875q-0.78125 -0.796875 -0.78125 -2.453125l0 -6.640625l1.640625 0l0 6.09375q0 0.984375 0.15625 1.40625q0.15625 0.4375 0.578125 0.703125q0.421875 0.265625 0.984375 0.265625q1.015625 0 1.6875 -0.6875q0.671875 -0.671875 0.671875 -2.15625l0 -5.625l1.640625 0l0 6.28125q0 1.09375 0.40625 1.640625q0.40625 0.546875 1.3125 0.546875q0.6875 0 1.28125 -0.359375q0.59375 -0.359375 0.859375 -1.0625q0.25 -0.703125 0.25 -2.03125l0 -5.015625l1.640625 0zm-21.853302 1.1875q0.921875 -0.765625 1.765625 -1.09375q0.828125 -0.3125 1.796875 -0.3125q1.59375 0 2.453125 0.78125q0.859375 0.78125 0.859375 1.984375q0 0.71875 -0.328125 1.296875q-0.328125 0.59375 -0.84375 0.9375q-0.53125 0.359375 -1.1875 0.546875q-0.46875 0.125 -1.453125 0.25q-1.984375 0.234375 -2.921875 0.5625q-0.015625 0.34375 -0.015625 0.421875q0 1.0 0.46875 1.421875q0.625 0.546875 1.875 0.546875q1.15625 0 1.703125 -0.40625q0.546875 -0.40625 0.8125 -1.421875l1.609375 0.21875q-0.21875 1.015625 -0.71875 1.640625q-0.5 0.640625 -1.453125 0.984375q-0.953125 0.34375 -2.1875 0.34375q-1.25 0 -2.015625 -0.296875q-0.78125 -0.28125 -1.140625 -0.734375q-0.375 -0.4375 -0.515625 -1.109375q-0.078125 -0.421875 -0.078125 -1.515625l0 -2.1875q0 -2.28125 -0.109375 -2.890625q-0.109375 -0.59375 -0.40625 -1.15625l1.703125 0q0.265625 0.515625 0.328125 1.1875zm0.140625 3.671875q0.890625 -0.375 2.671875 -0.625q1.015625 -0.140625 1.4375 -0.328125q0.421875 -0.1875 0.65625 -0.53125q0.21875 -0.34375 0.21875 -0.78125q0 -0.65625 -0.5 -1.09375q-0.5 -0.4375 -1.453125 -0.4375q-0.9375 0 -1.671875 0.40625q-0.75 0.421875 -1.09375 1.140625q-0.265625 0.5625 -0.265625 1.640625l0 0.609375zm-4.203842 6.609375l0 1.890625l-1.640625 0l0 -1.890625l1.640625 0zm0 -11.46875l0 9.671875l-1.640625 0l0 -9.671875l1.640625 0zm-4.144821 0l0 9.671875l-1.46875 0l0 -1.375q-1.0625 1.59375 -3.078125 1.59375q-0.875 0 -1.609375 -0.3125q-0.734375 -0.3125 -1.09375 -0.828125q-0.375 -0.5 -0.515625 -1.203125q-0.09375 -0.453125 -0.09375 -1.59375l0 -5.953125l1.640625 0l0 5.890625q0 1.0 0.203125 1.484375q0.1875 0.5 0.671875 0.796875q0.484375 0.296875 1.140625 0.296875q1.046875 0 1.8125 -0.671875q0.75 -0.65625 0.75 -2.515625l0 -5.28125l1.640625 0z" fill-rule="nonzero"/></g><g filter="url(#shadowFilter-p.4)"><use xlink:href="#p.4" transform="matrix(1.0 0.0 0.0 1.0 68.8087716535433 -48.18042073490815)"/></g><defs><filter id="shadowFilter-p.4" filterUnits="userSpaceOnUse"><feGaussianBlur in="SourceAlpha" stdDeviation="7.0" result="blur"/><feComponentTransfer in="blur" color-interpolation-filters="sRGB"><feFuncR type="linear" slope="0" intercept="0.0"/><feFuncG type="linear" slope="0" intercept="0.0"/><feFuncB type="linear" slope="0" intercept="0.0"/><feFuncA type="linear" slope="0.3" intercept="0"/></feComponentTransfer></filter></defs><g id="p.4"><path fill="#434343" d="m40.100468 292.90552l100.55638 -240.0945l181.84789 0l100.556366 240.0945z" fill-rule="evenodd"/><path stroke="#434343" stroke-width="1.0" stroke-linejoin="round" stroke-linecap="butt" d="m40.100468 292.90552l100.55638 -240.0945l181.84789 0l100.556366 240.0945z" fill-rule="evenodd"/></g><g filter="url(#shadowFilter-p.5)"><use xlink:href="#p.5" transform="matrix(1.0 0.0 0.0 1.0 68.8087716535433 -48.18042073490815)"/></g><defs><filter id="shadowFilter-p.5" filterUnits="userSpaceOnUse"><feGaussianBlur in="SourceAlpha" stdDeviation="7.0" result="blur"/><feComponentTransfer in="blur" color-interpolation-filters="sRGB"><feFuncR type="linear" slope="0" intercept="0.0"/><feFuncG type="linear" slope="0" intercept="0.0"/><feFuncB type="linear" slope="0" intercept="0.0"/><feFuncA type="linear" slope="0.3" intercept="0"/></feComponentTransfer></filter></defs><g id="p.5"><path fill="#000000" d="m8.070888 307.12665l100.55637 -240.09448l181.8479 0l100.556366 240.09448z" fill-rule="evenodd"/><path stroke="#000000" stroke-width="1.0" stroke-linejoin="round" stroke-linecap="butt" d="m8.070888 307.12665l100.55637 -240.09448l181.8479 0l100.556366 240.09448z" fill-rule="evenodd"/></g><g filter="url(#shadowFilter-p.6)"><use xlink:href="#p.6" transform="matrix(1.0 0.0 0.0 1.0 68.8087716535433 -48.18042073490815)"/></g><defs><filter id="shadowFilter-p.6" filterUnits="userSpaceOnUse"><feGaussianBlur in="SourceAlpha" stdDeviation="7.0" result="blur"/><feComponentTransfer in="blur" color-interpolation-filters="sRGB"><feFuncR type="linear" slope="0" intercept="0.0"/><feFuncG type="linear" slope="0" intercept="0.0"/><feFuncB type="linear" slope="0" intercept="0.0"/><feFuncA type="linear" slope="0.3" intercept="0"/></feComponentTransfer></filter></defs><g id="p.6"><path fill="#000000" d="m8.070888 307.13123l87.881805 442.2362l207.19702 0l87.881805 -442.2362z" fill-rule="evenodd"/><path stroke="#000000" stroke-width="1.0" stroke-linejoin="round" stroke-linecap="butt" d="m8.070888 307.13123l87.881805 442.2362l207.19702 0l87.881805 -442.2362z" fill-rule="evenodd"/><path fill="#000000" d="m234.9675 476.50122l0 13.359375l-2.65625 0l-3.15625 -9.453125q-0.4375 -1.328125 -0.640625 -1.984375q-0.234375 0.734375 -0.703125 2.140625l-3.203125 9.296875l-2.375 0l0 -13.359375l1.703125 0l0 11.171875l3.875 -11.171875l1.59375 0l3.859375 11.375l0 -11.375l1.703125 0zm-21.697052 1.1875q0.921875 -0.765625 1.765625 -1.09375q0.828125 -0.3125 1.796875 -0.3125q1.59375 0 2.453125 0.78125q0.859375 0.78125 0.859375 1.984375q0 0.71875 -0.328125 1.296875q-0.328125 0.59375 -0.84375 0.9375q-0.53125 0.359375 -1.1875 0.546875q-0.46875 0.125 -1.453125 0.25q-1.984375 0.234375 -2.921875 0.5625q-0.015625 0.34375 -0.015625 0.421875q0 1.0 0.46875 1.421875q0.625 0.546875 1.875 0.546875q1.15625 0 1.703125 -0.40625q0.546875 -0.40625 0.8125 -1.421875l1.609375 0.21875q-0.21875 1.015625 -0.71875 1.640625q-0.5 0.640625 -1.453125 0.984375q-0.953125 0.34375 -2.1875 0.34375q-1.25 0 -2.015625 -0.296875q-0.78125 -0.28125 -1.140625 -0.734375q-0.375 -0.4375 -0.515625 -1.109375q-0.078125 -0.421875 -0.078125 -1.515625l0 -2.1875q0 -2.28125 -0.109375 -2.890625q-0.109375 -0.59375 -0.40625 -1.15625l1.703125 0q0.265625 0.515625 0.328125 1.1875zm0.140625 3.671875q0.890625 -0.375 2.671875 -0.625q1.015625 -0.140625 1.4375 -0.328125q0.421875 -0.1875 0.65625 -0.53125q0.21875 -0.34375 0.21875 -0.78125q0 -0.65625 -0.5 -1.09375q-0.5 -0.4375 -1.453125 -0.4375q-0.9375 0 -1.671875 0.40625q-0.75 0.421875 -1.09375 1.140625q-0.265625 0.5625 -0.265625 1.640625l0 0.609375zm-3.5475922 -1.96875l-1.625 0.25q-0.125 -0.96875 -0.75 -1.5q-0.625 -0.515625 -1.75 -0.515625q-1.125 0 -1.671875 0.453125q-0.546875 0.46875 -0.546875 1.09375q0 0.546875 0.484375 0.875q0.328125 0.21875 1.671875 0.546875q1.8125 0.46875 2.515625 0.796875q0.6875 0.328125 1.046875 0.90625q0.359375 0.59375 0.359375 1.3125q0 0.640625 -0.296875 1.1875q-0.296875 0.5625 -0.8125 0.921875q-0.375 0.28125 -1.03125 0.46875q-0.671875 0.203125 -1.421875 0.203125q-1.140625 0 -2.0 -0.328125q-0.859375 -0.328125 -1.265625 -0.890625q-0.421875 -0.5625 -0.578125 -1.5l1.609375 -0.21875q0.109375 0.75 0.640625 1.171875q0.515625 0.421875 1.46875 0.421875q1.140625 0 1.625 -0.375q0.46875 -0.375 0.46875 -0.875q0 -0.3125 -0.1875 -0.578125q-0.203125 -0.265625 -0.640625 -0.4375q-0.234375 -0.09375 -1.4375 -0.421875q-1.75 -0.453125 -2.4375 -0.75q-0.6875 -0.296875 -1.078125 -0.859375q-0.390625 -0.5625 -0.390625 -1.40625q0 -0.828125 0.484375 -1.546875q0.46875 -0.71875 1.375 -1.125q0.90625 -0.390625 2.046875 -0.390625q1.875 0 2.875 0.78125q0.984375 0.78125 1.25 2.328125zm-16.296875 0.65625l-1.609375 -0.21875q0.265625 -1.65625 1.359375 -2.609375q1.078125 -0.9375 2.671875 -0.9375q1.984375 0 3.1875 1.296875q1.203125 1.296875 1.203125 3.71875q0 1.578125 -0.515625 2.75q-0.515625 1.171875 -1.578125 1.75q-1.0625 0.59375 -2.3125 0.59375q-1.578125 0 -2.578125 -0.796875q-1.0 -0.796875 -1.28125 -2.265625l1.59375 -0.234375q0.234375 0.96875 0.8125 1.453125q0.578125 0.5 1.390625 0.5q1.234375 0 2.015625 -0.890625q0.78125 -0.890625 0.78125 -2.8125q0 -1.953125 -0.75 -2.84375q-0.75 -0.875 -1.953125 -0.875q-0.96875 0 -1.609375 0.59375q-0.65625 0.59375 -0.828125 1.828125zm-9.34375 -3.546875l0 1.421875q1.125 -1.640625 3.0625 -1.640625q0.859375 0 1.609375 0.328125q0.734375 0.328125 1.09375 0.828125q0.359375 0.5 0.5 1.21875q0.109375 0.46875 0.109375 1.53125l0 5.984375l-1.640625 0l0 -5.359375q0 -1.28125 -0.109375 -1.734375q-0.15625 -0.640625 -0.65625 -1.015625q-0.5 -0.375 -1.234375 -0.375q-0.734375 0 -1.375 0.375q-0.65625 0.390625 -0.921875 1.03125q-0.265625 0.65625 -0.265625 1.890625l0 5.1875l-1.640625 0l0 -9.671875l1.46875 0zm-4.000717 0l0 13.359375l-1.640625 0l0 -13.359375l1.640625 0zm-4.191696 11.46875l0 1.890625l-1.640625 0l0 -1.890625l1.640625 0zm0 -11.46875l0 9.671875l-1.640625 0l0 -9.671875l1.640625 0zm-4.144821 0l0 9.671875l-1.46875 0l0 -1.375q-1.0625 1.59375 -3.078125 1.59375q-0.875 0 -1.609375 -0.3125q-0.734375 -0.3125 -1.09375 -0.828125q-0.375 -0.5 -0.515625 -1.203125q-0.09375 -0.453125 -0.09375 -1.59375l0 -5.953125l1.640625 0l0 5.890625q0 1.0 0.203125 1.484375q0.1875 0.5 0.671875 0.796875q0.484375 0.296875 1.140625 0.296875q1.046875 0 1.8125 -0.671875q0.75 -0.65625 0.75 -2.515625l0 -5.28125l1.640625 0z" fill-rule="nonzero"/></g><path fill="#ffffff" d="m276.571 217.90656l45.039368 14.220474c2.1362305E-4 6.1035156E-5 3.6621094E-4 1.9836426E-4 4.8828125E-4 3.8146973E-4c9.1552734E-5 1.9836426E-4 9.1552734E-5 4.119873E-4 3.0517578E-5 6.1035156E-4l-16.061523 53.649628c-7.4808655 24.989227 -33.710114 38.88031 -58.584656 31.02655l-45.039368 -14.2204895l0 0c-4.119873E-4 -1.2207031E-4 -6.5612793E-4 -5.493164E-4 -5.340576E-4 -9.765625E-4l16.061554 -53.649643l0 0c7.48085 -24.989227 33.710083 -38.88028 58.58464 -31.026535z" fill-rule="evenodd"/><path stroke="#ffffff" stroke-width="1.0" stroke-linejoin="round" stroke-linecap="butt" d="m276.571 217.90656l45.039368 14.220474c2.1362305E-4 6.1035156E-5 3.6621094E-4 1.9836426E-4 4.8828125E-4 3.8146973E-4c9.1552734E-5 1.9836426E-4 9.1552734E-5 4.119873E-4 3.0517578E-5 6.1035156E-4l-16.061523 53.649628c-7.4808655 24.989227 -33.710114 38.88031 -58.584656 31.02655l-45.039368 -14.2204895l0 0c-4.119873E-4 -1.2207031E-4 -6.5612793E-4 -5.493164E-4 -5.340576E-4 -9.765625E-4l16.061554 -53.649643l0 0c7.48085 -24.989227 33.710083 -38.88028 58.58464 -31.026535z" fill-rule="evenodd"/><path fill="#ffffff" d="m122.53997 217.90656l-45.039368 14.220474c-1.9836426E-4 6.1035156E-5 -3.6621094E-4 1.9836426E-4 -4.6539307E-4 3.8146973E-4c-9.918213E-5 1.9836426E-4 -1.2207031E-4 4.119873E-4 -6.1035156E-5 6.1035156E-4l16.061546 53.649628c7.48085 24.989227 33.71009 38.88031 58.58465 31.02655l45.039368 -14.2204895l0 0c4.119873E-4 -1.2207031E-4 6.5612793E-4 -5.493164E-4 5.340576E-4 -9.765625E-4l-16.061539 -53.649643l0 0c-7.4808655 -24.989227 -33.7101 -38.88028 -58.584663 -31.026535z" fill-rule="evenodd"/><path stroke="#ffffff" stroke-width="1.0" stroke-linejoin="round" stroke-linecap="butt" d="m122.53997 217.90656l-45.039368 14.220474c-1.9836426E-4 6.1035156E-5 -3.6621094E-4 1.9836426E-4 -4.6539307E-4 3.8146973E-4c-9.918213E-5 1.9836426E-4 -1.2207031E-4 4.119873E-4 -6.1035156E-5 6.1035156E-4l16.061546 53.649628c7.48085 24.989227 33.71009 38.88031 58.58465 31.02655l45.039368 -14.2204895l0 0c4.119873E-4 -1.2207031E-4 6.5612793E-4 -5.493164E-4 5.340576E-4 -9.765625E-4l-16.061539 -53.649643l0 0c-7.4808655 -24.989227 -33.7101 -38.88028 -58.584663 -31.026535z" fill-rule="evenodd"/><path fill="#ffffff" d="m262.25912 351.5563l-3.7322693 29.496063c-3.0517578E-5 1.2207031E-4 -9.1552734E-5 2.4414062E-4 -1.8310547E-4 3.3569336E-4c-1.2207031E-4 6.1035156E-5 -2.4414062E-4 9.1552734E-5 -3.6621094E-4 9.1552734E-5l-31.850647 -4.2374573l0 0c-16.276733 -2.1651917 -27.800644 -17.126282 -25.73935 -33.416534l3.7322845 -29.496063l0 0c3.0517578E-5 -2.4414062E-4 2.746582E-4 -4.5776367E-4 5.493164E-4 -3.9672852E-4l31.850632 4.2374268l0 0c16.276749 2.1652222 27.80066 17.126312 25.73935 33.416534z" fill-rule="evenodd"/><path stroke="#ffffff" stroke-width="1.0" stroke-linejoin="round" stroke-linecap="butt" d="m262.25912 351.5563l-3.7322693 29.496063c-3.0517578E-5 1.2207031E-4 -9.1552734E-5 2.4414062E-4 -1.8310547E-4 3.3569336E-4c-1.2207031E-4 6.1035156E-5 -2.4414062E-4 9.1552734E-5 -3.6621094E-4 9.1552734E-5l-31.850647 -4.2374573l0 0c-16.276733 -2.1651917 -27.800644 -17.126282 -25.73935 -33.416534l3.7322845 -29.496063l0 0c3.0517578E-5 -2.4414062E-4 2.746582E-4 -4.5776367E-4 5.493164E-4 -3.9672852E-4l31.850632 4.2374268l0 0c16.276749 2.1652222 27.80066 17.126312 25.73935 33.416534z" fill-rule="evenodd"/><path fill="#ffffff" d="m136.85037 351.5563l3.7322845 29.496063c1.5258789E-5 1.2207031E-4 7.6293945E-5 2.4414062E-4 1.8310547E-4 3.3569336E-4c1.0681152E-4 6.1035156E-5 2.2888184E-4 9.1552734E-5 3.6621094E-4 9.1552734E-5l31.850647 -4.2374573l0 0c16.276733 -2.1651917 27.800629 -17.126282 25.73935 -33.416534l-3.7322845 -29.496063l0 0c-3.0517578E-5 -2.4414062E-4 -2.746582E-4 -4.5776367E-4 -5.493164E-4 -3.9672852E-4l-31.850647 4.2374268l0 0c-16.276733 2.1652222 -27.800644 17.126312 -25.73935 33.416534z" fill-rule="evenodd"/><path stroke="#ffffff" stroke-width="1.0" stroke-linejoin="round" stroke-linecap="butt" d="m136.85037 351.5563l3.7322845 29.496063c1.5258789E-5 1.2207031E-4 7.6293945E-5 2.4414062E-4 1.8310547E-4 3.3569336E-4c1.0681152E-4 6.1035156E-5 2.2888184E-4 9.1552734E-5 3.6621094E-4 9.1552734E-5l31.850647 -4.2374573l0 0c16.276733 -2.1651917 27.800629 -17.126282 25.73935 -33.416534l-3.7322845 -29.496063l0 0c-3.0517578E-5 -2.4414062E-4 -2.746582E-4 -4.5776367E-4 -5.493164E-4 -3.9672852E-4l-31.850647 4.2374268l0 0c-16.276733 2.1652222 -27.800644 17.126312 -25.73935 33.416534z" fill-rule="evenodd"/><path fill="#ffffff" d="m94.10236 403.7546l11.787399 47.149597l187.32281 0l11.787415 -47.149597z" fill-rule="evenodd"/><path stroke="#000000" stroke-width="1.0" stroke-linejoin="round" stroke-linecap="butt" d="m94.10236 403.7546l11.787399 47.149597l187.32281 0l11.787415 -47.149597z" fill-rule="evenodd"/><path fill="#000000" fill-opacity="0.0" d="m105.062996 395.22833l188.97638 0l0 87.275604l-188.97638 0z" fill-rule="evenodd"/><path fill="#000000" d="m193.14622 411.21085l-1.5 0l0 10.9375l-0.875 0l-7.046875 -9.546875l-0.0625 0l0 8.359375l1.921875 0l0 1.1875l-4.625 0l0 -1.1875l1.390625 0l0 -9.75l-1.609375 0l0 -1.1875l2.625 0l6.890625 9.34375l0.078125 0l0 -8.15625l-1.828125 0l0 -1.1875l4.640625 0l0 1.1875zm9.123276 6.78125q0 1.875 -1.125 3.109375q-1.109375 1.234375 -3.03125 1.234375q-1.890625 0 -2.96875 -1.1875q-1.0625 -1.203125 -1.0625 -3.078125q0 -1.8125 1.046875 -3.109375q1.046875 -1.296875 3.0625 -1.296875q2.03125 0 3.046875 1.28125q1.03125 1.265625 1.03125 3.046875zm-1.375 -0.015625q0 -1.421875 -0.71875 -2.3125q-0.71875 -0.890625 -2.03125 -0.890625q-1.296875 0 -2.0 0.921875q-0.703125 0.90625 -0.703125 2.296875q0 1.359375 0.6875 2.296875q0.703125 0.921875 2.015625 0.921875q1.328125 0 2.03125 -0.921875q0.71875 -0.921875 0.71875 -2.3125zm18.008163 4.171875l-3.984375 0l0 -1.0625l1.21875 0l0 -3.859375q0 -1.34375 -0.53125 -1.890625q-0.53125 -0.5625 -1.359375 -0.5625q-1.125 0 -1.75 0.859375q-0.609375 0.859375 -0.625 1.640625l0 3.8125l1.421875 0l0 1.0625l-3.953125 0l0 -1.0625l1.203125 0l0 -3.859375q0 -1.359375 -0.53125 -1.90625q-0.515625 -0.546875 -1.3125 -0.546875q-1.15625 0 -1.765625 0.84375q-0.609375 0.828125 -0.640625 1.625l0 3.84375l1.515625 0l0 1.0625l-4.28125 0l0 -1.0625l1.453125 0l0 -6.171875l-1.46875 0l0 -1.0625l2.78125 0l0 1.546875q0.40625 -0.75 1.09375 -1.234375q0.6875 -0.484375 1.671875 -0.484375q0.984375 0 1.6875 0.484375q0.71875 0.484375 0.984375 1.515625q0.375 -0.875 1.109375 -1.4375q0.734375 -0.5625 1.828125 -0.5625q1.1875 0 1.984375 0.75q0.796875 0.734375 0.796875 2.40625l0 4.25l1.453125 0l0 1.0625z" fill-rule="nonzero"/><path fill="#000000" d="m175.10022 436.1421q0 1.890625 -1.171875 2.890625q-1.15625 1.0 -2.9375 1.0l-2.375 0l0 3.328125l2.09375 0l0 1.1875l-4.984375 0l0 -1.1875l1.53125 0l0 -9.75l-1.53125 0l0 -1.1875l5.15625 0q2.25 0 3.234375 1.109375q0.984375 1.09375 0.984375 2.609375zm-1.46875 0.03125q0 -1.171875 -0.6875 -1.859375q-0.6875 -0.703125 -2.171875 -0.703125l-2.15625 0l0 5.234375l2.203125 0q2.8125 0 2.8125 -2.671875zm9.71991 5.984375q-0.15625 1.0625 -1.0625 1.828125q-0.890625 0.75 -2.421875 0.75q-1.75 0 -2.84375 -1.09375q-1.078125 -1.109375 -1.078125 -3.125q0 -1.9375 1.03125 -3.1875q1.03125 -1.25 2.78125 -1.25q1.71875 0 2.609375 1.078125q0.890625 1.078125 0.921875 2.5625q0 0.484375 -0.125 0.984375l-5.828125 0q0.109375 2.90625 2.625 2.90625q0.984375 0 1.546875 -0.453125q0.5625 -0.46875 0.75 -1.234375l1.09375 0.234375zm-1.453125 -2.421875q0.09375 -0.9375 -0.4375 -1.75q-0.53125 -0.828125 -1.734375 -0.828125q-1.15625 0 -1.703125 0.765625q-0.546875 0.765625 -0.671875 1.8125l4.546875 0zm7.4090576 -3.640625q0.890625 0 1.421875 0.4375l0.3125 2.078125l-1.0625 0.140625l-0.3125 -1.421875q-0.328125 -0.109375 -0.640625 -0.109375q-0.71875 0 -1.203125 0.609375q-0.484375 0.59375 -0.484375 1.5625l0 4.09375l1.921875 0l0 1.0625l-4.6875 0l0 -1.0625l1.453125 0l0 -6.171875l-1.5 0l0 -1.0625l2.734375 0l0 1.484375q0.234375 -0.6875 0.78125 -1.15625q0.5625 -0.484375 1.265625 -0.484375zm12.708008 8.453125l-4.21875 0l0 -1.0625l1.453125 0l0 -3.859375q0 -1.34375 -0.546875 -1.890625q-0.546875 -0.5625 -1.40625 -0.5625q-1.078125 0 -1.765625 0.75q-0.6875 0.734375 -0.71875 1.640625l0 3.921875l1.4375 0l0 1.0625l-4.203125 0l0 -1.0625l1.4375 0l0 -10.703125l-1.4375 0l0 -1.0625l2.765625 0l0 6.015625q0.921875 -1.65625 2.90625 -1.65625q1.21875 0 2.03125 0.75q0.828125 0.734375 0.828125 2.40625l0 4.25l1.4375 0l0 1.0625zm9.04126 -4.15625q0 1.875 -1.125 3.109375q-1.109375 1.234375 -3.03125 1.234375q-1.890625 0 -2.96875 -1.1875q-1.0625 -1.203125 -1.0625 -3.078125q0 -1.8125 1.046875 -3.109375q1.046875 -1.296875 3.0625 -1.296875q2.03125 0 3.046875 1.28125q1.03125 1.265625 1.03125 3.046875zm-1.375 -0.015625q0 -1.421875 -0.71875 -2.3125q-0.71875 -0.890625 -2.03125 -0.890625q-1.296875 0 -2.0 0.921875q-0.703125 0.90625 -0.703125 2.296875q0 1.359375 0.6875 2.296875q0.703125 0.921875 2.015625 0.921875q1.328125 0 2.03125 -0.921875q0.71875 -0.921875 0.71875 -2.3125zm9.508163 1.765625q0 1.21875 -1.015625 1.90625q-1.015625 0.6875 -2.5 0.6875q-0.875 0 -1.75 -0.234375q-0.859375 -0.234375 -1.40625 -0.59375l0.265625 -1.875l1.046875 0.109375l-0.0625 1.09375q0.859375 0.421875 1.84375 0.421875q0.875 0 1.546875 -0.34375q0.6875 -0.34375 0.6875 -1.0625q0 -0.6875 -0.515625 -0.96875q-0.515625 -0.28125 -1.296875 -0.40625q-0.78125 -0.140625 -1.5625 -0.3125q-0.78125 -0.1875 -1.3125 -0.640625q-0.515625 -0.46875 -0.515625 -1.4375q0 -1.328125 0.96875 -1.859375q0.96875 -0.546875 2.109375 -0.546875q0.859375 0 1.609375 0.234375q0.765625 0.21875 1.28125 0.53125l0.21875 1.9375l-1.09375 0.125l-0.203125 -1.34375q-0.78125 -0.40625 -1.703125 -0.40625q-0.78125 0 -1.28125 0.296875q-0.5 0.296875 -0.5 0.9375q0 0.65625 0.515625 0.921875q0.53125 0.265625 1.296875 0.390625q0.765625 0.125 1.53125 0.3125q0.765625 0.1875 1.28125 0.671875q0.515625 0.46875 0.515625 1.453125zm2.6870575 -8.046875l0 -1.6875l1.421875 0l0 1.6875l-1.421875 0zm2.890625 10.453125l-4.203125 0l0 -1.0625l1.453125 0l0 -6.171875l-1.5 0l0 -1.0625l2.796875 0l0 7.234375l1.453125 0l0 1.0625zm1.8956299 -7.671875q0.65625 -0.421875 1.375 -0.609375q0.734375 -0.1875 1.546875 -0.1875q2.96875 0 2.96875 2.78125l0 3.953125q0 0.890625 0.703125 0.890625q0.328125 0 0.5625 -0.109375l0.015625 0.859375q-0.5 0.28125 -1.078125 0.28125q-1.46875 0 -1.515625 -1.6875l0 -0.03125q-0.390625 0.671875 -1.109375 1.203125q-0.71875 0.515625 -1.71875 0.515625q-0.828125 0 -1.671875 -0.5q-0.84375 -0.515625 -0.84375 -1.828125q0 -1.578125 1.234375 -2.0625q1.25 -0.5 2.640625 -0.5q0.375 0 0.75 0.015625q0.390625 0.015625 0.71875 0.0625l0 -0.75q0 -0.890625 -0.390625 -1.453125q-0.375 -0.5625 -1.484375 -0.5625q-0.921875 0 -1.609375 0.34375l-0.3125 1.4375l-1.078125 -0.140625l0.296875 -1.921875zm4.578125 4.5625l0 -0.640625q-0.34375 -0.015625 -0.734375 -0.046875q-0.390625 -0.046875 -0.8125 -0.046875q-0.921875 0 -1.6875 0.296875q-0.75 0.28125 -0.75 1.25q0 0.796875 0.5 1.109375q0.5 0.296875 1.046875 0.296875q0.859375 0 1.609375 -0.59375q0.765625 -0.609375 0.828125 -1.625z" fill-rule="nonzero"/><path fill="#ffffff" d="m105.944885 463.90945l11.787399 47.149597l163.6378 0l11.787384 -47.149597z" fill-rule="evenodd"/><path stroke="#000000" stroke-width="1.0" stroke-linejoin="round" stroke-linecap="butt" d="m105.944885 463.90945l11.787399 47.149597l163.6378 0l11.787384 -47.149597z" fill-rule="evenodd"/><path fill="#000000" fill-opacity="0.0" d="m126.13386 455.16928l146.83466 0l0 64.62991l-146.83466 0z" fill-rule="evenodd"/><path fill="#000000" d="m177.87053 473.68304q0 1.890625 -1.171875 2.890625q-1.15625 1.0 -2.9375 1.0l-2.375 0l0 3.328125l2.09375 0l0 1.1875l-4.984375 0l0 -1.1875l1.53125 0l0 -9.75l-1.53125 0l0 -1.1875l5.15625 0q2.25 0 3.234375 1.109375q0.984375 1.09375 0.984375 2.609375zm-1.46875 0.03125q0 -1.171875 -0.6875 -1.859375q-0.6875 -0.703125 -2.171875 -0.703125l-2.15625 0l0 5.234375l2.203125 0q2.8125 0 2.8125 -2.671875zm7.3180695 -0.078125q0.890625 0 1.421875 0.4375l0.3125 2.078125l-1.0625 0.140625l-0.3125 -1.421875q-0.328125 -0.109375 -0.640625 -0.109375q-0.71875 0 -1.203125 0.609375q-0.484375 0.59375 -0.484375 1.5625l0 4.09375l1.921875 0l0 1.0625l-4.6875 0l0 -1.0625l1.453125 0l0 -6.171875l-1.5 0l0 -1.0625l2.734375 0l0 1.484375q0.234375 -0.6875 0.78125 -1.15625q0.5625 -0.484375 1.265625 -0.484375zm9.945007 -3.1875l-3.203125 1.9375l-0.421875 -0.578125l2.875 -2.46875l0.75 1.109375zm0.703125 9.25q-0.15625 1.0625 -1.0625 1.828125q-0.890625 0.75 -2.421875 0.75q-1.75 0 -2.84375 -1.09375q-1.078125 -1.109375 -1.078125 -3.125q0 -1.9375 1.03125 -3.1875q1.03125 -1.25 2.78125 -1.25q1.71875 0 2.609375 1.078125q0.890625 1.078125 0.921875 2.5625q0 0.484375 -0.125 0.984375l-5.828125 0q0.109375 2.90625 2.625 2.90625q0.984375 0 1.546875 -0.453125q0.5625 -0.46875 0.75 -1.234375l1.09375 0.234375zm-1.453125 -2.421875q0.09375 -0.9375 -0.4375 -1.75q-0.53125 -0.828125 -1.734375 -0.828125q-1.15625 0 -1.703125 0.765625q-0.546875 0.765625 -0.671875 1.8125l4.546875 0zm12.627808 4.8125l-4.1875 0l0 -1.0625l1.4375 0l0 -3.859375q0 -1.34375 -0.546875 -1.890625q-0.546875 -0.5625 -1.375 -0.5625q-1.125 0 -1.8125 0.75q-0.671875 0.734375 -0.703125 1.6875l0 3.875l1.453125 0l0 1.0625l-4.21875 0l0 -1.0625l1.453125 0l0 -6.171875l-1.5 0l0 -1.0625l2.8125 0l0 1.46875q0.890625 -1.640625 2.90625 -1.640625q1.203125 0 2.015625 0.75q0.828125 0.734375 0.828125 2.40625l0 4.25l1.4375 0l0 1.0625zm9.049408 -4.15625q0 1.875 -1.125 3.109375q-1.109375 1.234375 -3.03125 1.234375q-1.890625 0 -2.96875 -1.1875q-1.0625 -1.203125 -1.0625 -3.078125q0 -1.8125 1.046875 -3.109375q1.046875 -1.296875 3.0625 -1.296875q2.03125 0 3.046875 1.28125q1.03125 1.265625 1.03125 3.046875zm-1.375 -0.015625q0 -1.421875 -0.71875 -2.3125q-0.71875 -0.890625 -2.03125 -0.890625q-1.296875 0 -2.0 0.921875q-0.703125 0.90625 -0.703125 2.296875q0 1.359375 0.6875 2.296875q0.703125 0.921875 2.015625 0.921875q1.328125 0 2.03125 -0.921875q0.71875 -0.921875 0.71875 -2.3125zm18.008163 4.171875l-3.984375 0l0 -1.0625l1.21875 0l0 -3.859375q0 -1.34375 -0.53125 -1.890625q-0.53125 -0.5625 -1.359375 -0.5625q-1.125 0 -1.75 0.859375q-0.609375 0.859375 -0.625 1.640625l0 3.8125l1.421875 0l0 1.0625l-3.953125 0l0 -1.0625l1.203125 0l0 -3.859375q0 -1.359375 -0.53125 -1.90625q-0.515625 -0.546875 -1.3125 -0.546875q-1.15625 0 -1.765625 0.84375q-0.609375 0.828125 -0.640625 1.625l0 3.84375l1.515625 0l0 1.0625l-4.28125 0l0 -1.0625l1.453125 0l0 -6.171875l-1.46875 0l0 -1.0625l2.78125 0l0 1.546875q0.40625 -0.75 1.09375 -1.234375q0.6875 -0.484375 1.671875 -0.484375q0.984375 0 1.6875 0.484375q0.71875 0.484375 0.984375 1.515625q0.375 -0.875 1.109375 -1.4375q0.734375 -0.5625 1.828125 -0.5625q1.1875 0 1.984375 0.75q0.796875 0.734375 0.796875 2.40625l0 4.25l1.453125 0l0 1.0625z" fill-rule="nonzero"/><path fill="#000000" d="m182.75758 504.4893l-4.359375 0l0 -1.1875l1.4375 0l-3.21875 -4.390625l-2.015625 0l0 4.390625l1.40625 0l0 1.1875l-4.3125 0l0 -1.1875l1.53125 0l0 -9.75l-1.53125 0l0 -1.1875l4.328125 0l0 1.1875l-1.421875 0l0 4.1875l1.984375 0l3.109375 -4.203125l-1.4375 0l0 -1.1875l4.28125 0l0 1.1875l-1.375 0l-3.5 4.640625l3.734375 5.125l1.359375 0l0 1.1875zm1.6491852 -7.671875q0.65625 -0.421875 1.375 -0.609375q0.734375 -0.1875 1.546875 -0.1875q2.96875 0 2.96875 2.78125l0 3.953125q0 0.890625 0.703125 0.890625q0.328125 0 0.5625 -0.109375l0.015625 0.859375q-0.5 0.28125 -1.078125 0.28125q-1.46875 0 -1.515625 -1.6875l0 -0.03125q-0.390625 0.671875 -1.109375 1.203125q-0.71875 0.515625 -1.71875 0.515625q-0.828125 0 -1.671875 -0.5q-0.84375 -0.515625 -0.84375 -1.828125q0 -1.578125 1.234375 -2.0625q1.25 -0.5 2.640625 -0.5q0.375 0 0.75 0.015625q0.390625 0.015625 0.71875 0.0625l0 -0.75q0 -0.890625 -0.390625 -1.453125q-0.375 -0.5625 -1.484375 -0.5625q-0.921875 0 -1.609375 0.34375l-0.3125 1.4375l-1.078125 -0.140625l0.296875 -1.921875zm4.578125 4.5625l0 -0.640625q-0.34375 -0.015625 -0.734375 -0.046875q-0.390625 -0.046875 -0.8125 -0.046875q-0.921875 0 -1.6875 0.296875q-0.75 0.28125 -0.75 1.25q0 0.796875 0.5 1.109375q0.5 0.296875 1.046875 0.296875q0.859375 0 1.609375 -0.59375q0.765625 -0.609375 0.828125 -1.625zm6.151596 -7.25l0 -1.578125l1.5 0l0 1.578125l-1.5 0zm-3.203125 0l0 -1.578125l1.515625 0l0 1.578125l-1.515625 0zm0.609375 9.296875l1.453125 0l0 -6.171875l-1.5 0l0 -1.0625l2.796875 0l0 7.234375l1.453125 0l0 1.0625l-4.203125 0l0 -1.0625zm6.473755 -9.390625l0 -1.6875l1.40625 0l0 1.6875l-1.40625 0zm1.40625 10.703125q0 2.359375 -1.015625 3.203125q-1.015625 0.859375 -2.546875 0.71875l-0.03125 -1.0q0.515625 0 1.03125 -0.171875q0.53125 -0.171875 0.890625 -0.796875q0.359375 -0.625 0.359375 -1.953125l0 -7.484375l-1.859375 0l0 -1.0625l3.171875 0l0 8.546875zm11.685745 -0.25l-4.21875 0l0 -1.0625l1.453125 0l0 -3.859375q0 -1.34375 -0.546875 -1.890625q-0.546875 -0.5625 -1.40625 -0.5625q-1.078125 0 -1.765625 0.75q-0.6875 0.734375 -0.71875 1.640625l0 3.921875l1.4375 0l0 1.0625l-4.203125 0l0 -1.0625l1.4375 0l0 -10.703125l-1.4375 0l0 -1.0625l2.765625 0l0 6.015625q0.921875 -1.65625 2.90625 -1.65625q1.21875 0 2.03125 0.75q0.828125 0.734375 0.828125 2.40625l0 4.25l1.4375 0l0 1.0625zm2.1193848 -10.453125l0 -1.6875l1.421875 0l0 1.6875l-1.421875 0zm2.890625 10.453125l-4.203125 0l0 -1.0625l1.453125 0l0 -6.171875l-1.5 0l0 -1.0625l2.796875 0l0 7.234375l1.453125 0l0 1.0625zm10.89563 0l-4.1875 0l0 -1.0625l1.4375 0l0 -3.859375q0 -1.34375 -0.546875 -1.890625q-0.546875 -0.5625 -1.375 -0.5625q-1.125 0 -1.8125 0.75q-0.671875 0.734375 -0.703125 1.6875l0 3.875l1.453125 0l0 1.0625l-4.21875 0l0 -1.0625l1.453125 0l0 -6.171875l-1.5 0l0 -1.0625l2.8125 0l0 1.46875q0.890625 -1.640625 2.90625 -1.640625q1.203125 0 2.015625 0.75q0.828125 0.734375 0.828125 2.40625l0 4.25l1.4375 0l0 1.0625z" fill-rule="nonzero"/><path fill="#ffffff" d="m117.708664 524.1693l11.787399 47.149597l140.11023 0l11.787415 -47.149597z" fill-rule="evenodd"/><path stroke="#000000" stroke-width="1.0" stroke-linejoin="round" stroke-linecap="butt" d="m117.708664 524.1693l11.787399 47.149597l140.11023 0l11.787415 -47.149597z" fill-rule="evenodd"/><path fill="#000000" fill-opacity="0.0" d="m153.01575 515.5341l93.07086 0l0 64.629944l-93.07086 0z" fill-rule="evenodd"/><path fill="#000000" d="m192.71931 528.7041l-0.34375 0.65625l-2.25 -1.15625l-2.15625 1.171875l-0.359375 -0.609375l2.375 -1.734375l0.390625 0l2.34375 1.671875zm3.640625 13.75l-4.3125 0l0 -1.1875l1.625 0l-0.875 -2.34375l-5.1875 0l-0.9375 2.34375l1.765625 0l0 1.1875l-4.28125 0l0 -1.1875l1.140625 0l3.96875 -9.75l-1.9375 0l0 -1.1875l3.453125 0l4.34375 10.9375l1.234375 0l0 1.1875zm-3.953125 -4.59375l-2.09375 -5.5625l-0.109375 0l-2.1875 5.5625l4.390625 0zm13.468536 -2.640625l-1.34375 0l0 7.125q0 1.953125 -1.078125 3.109375q-1.0625 1.15625 -3.0 1.15625q-1.3125 0 -2.359375 -0.59375q-1.03125 -0.59375 -1.359375 -1.84375l1.046875 -0.53125q0.3125 0.984375 1.09375 1.421875q0.78125 0.4375 1.625 0.4375q1.203125 0 1.953125 -0.84375q0.75 -0.828125 0.75 -2.375l0 -1.53125q-0.375 0.734375 -1.078125 1.28125q-0.703125 0.53125 -1.890625 0.53125q-1.46875 0 -2.515625 -1.046875q-1.046875 -1.046875 -1.046875 -3.0q0 -1.65625 0.890625 -3.09375q0.90625 -1.4375 2.828125 -1.4375q1.984375 0 2.8125 1.46875l0 -1.296875l2.671875 0l0 1.0625zm-2.671875 3.65625l0 -1.4375q0 -1.046875 -0.71875 -1.6875q-0.71875 -0.640625 -1.734375 -0.640625q-1.40625 0 -2.03125 1.015625q-0.625 1.0 -0.625 2.296875q0 1.53125 0.703125 2.28125q0.703125 0.75 1.71875 0.75q1.203125 0 1.921875 -0.828125q0.734375 -0.828125 0.765625 -1.75zm11.098633 1.1875q-0.15625 1.0625 -1.0625 1.828125q-0.890625 0.75 -2.421875 0.75q-1.75 0 -2.84375 -1.09375q-1.078125 -1.109375 -1.078125 -3.125q0 -1.9375 1.03125 -3.1875q1.03125 -1.25 2.78125 -1.25q1.71875 0 2.609375 1.078125q0.890625 1.078125 0.921875 2.5625q0 0.484375 -0.125 0.984375l-5.828125 0q0.109375 2.90625 2.625 2.90625q0.984375 0 1.546875 -0.453125q0.5625 -0.46875 0.75 -1.234375l1.09375 0.234375zm-1.453125 -2.421875q0.09375 -0.9375 -0.4375 -1.75q-0.53125 -0.828125 -1.734375 -0.828125q-1.15625 0 -1.703125 0.765625q-0.546875 0.765625 -0.671875 1.8125l4.546875 0z" fill-rule="nonzero"/><path fill="#000000" d="m174.74237 555.776q0.671875 -0.40625 1.59375 -0.609375q0.921875 -0.21875 1.734375 -0.21875q1.828125 0 2.609375 0.9375q0.78125 0.921875 0.78125 1.953125q0 1.28125 -0.953125 2.375q-0.9375 1.09375 -2.21875 1.96875q-1.28125 0.859375 -2.296875 1.484375l4.84375 0l0.171875 -1.5l1.140625 0.09375l-0.203125 2.59375l-7.578125 0l-0.15625 -1.0625q2.65625 -1.796875 4.21875 -3.109375q1.5625 -1.3125 1.5625 -2.6875q0 -1.875 -2.21875 -1.875q-0.390625 0 -0.953125 0.125q-0.546875 0.109375 -1.015625 0.3125l-0.296875 1.390625l-1.09375 -0.125l0.328125 -2.046875zm18.061096 4.25q0 2.3125 -1.1875 3.671875q-1.171875 1.34375 -3.359375 1.34375q-2.1875 0 -3.328125 -1.34375q-1.125 -1.359375 -1.125 -3.625q0 -2.203125 1.140625 -3.65625q1.15625 -1.46875 3.390625 -1.46875q2.296875 0 3.375 1.46875q1.09375 1.453125 1.09375 3.609375zm-1.4375 -0.0625q0 -1.75 -0.75 -2.765625q-0.734375 -1.03125 -2.296875 -1.03125q-1.546875 0 -2.3125 1.0q-0.75 0.984375 -0.75 2.8125q0 1.828125 0.765625 2.84375q0.765625 1.0 2.28125 1.0q3.0625 0 3.0625 -3.859375zm8.059097 -2.78125q0.65625 -0.421875 1.375 -0.609375q0.734375 -0.1875 1.546875 -0.1875q2.96875 0 2.96875 2.78125l0 3.953125q0 0.890625 0.703125 0.890625q0.328125 0 0.5625 -0.109375l0.015625 0.859375q-0.5 0.28125 -1.078125 0.28125q-1.46875 0 -1.515625 -1.6875l0 -0.03125q-0.390625 0.671875 -1.109375 1.203125q-0.71875 0.515625 -1.71875 0.515625q-0.828125 0 -1.671875 -0.5q-0.84375 -0.515625 -0.84375 -1.828125q0 -1.578125 1.234375 -2.0625q1.25 -0.5 2.640625 -0.5q0.375 0 0.75 0.015625q0.390625 0.015625 0.71875 0.0625l0 -0.75q0 -0.890625 -0.390625 -1.453125q-0.375 -0.5625 -1.484375 -0.5625q-0.921875 0 -1.609375 0.34375l-0.3125 1.4375l-1.078125 -0.140625l0.296875 -1.921875zm4.578125 4.5625l0 -0.640625q-0.34375 -0.015625 -0.734375 -0.046875q-0.390625 -0.046875 -0.8125 -0.046875q-0.921875 0 -1.6875 0.296875q-0.75 0.28125 -0.75 1.25q0 0.796875 0.5 1.109375q0.5 0.296875 1.046875 0.296875q0.859375 0 1.609375 -0.59375q0.765625 -0.609375 0.828125 -1.625zm13.432846 3.109375l-4.1875 0l0 -1.0625l1.4375 0l0 -3.859375q0 -1.34375 -0.546875 -1.890625q-0.546875 -0.5625 -1.375 -0.5625q-1.125 0 -1.8125 0.75q-0.671875 0.734375 -0.703125 1.6875l0 3.875l1.453125 0l0 1.0625l-4.21875 0l0 -1.0625l1.453125 0l0 -6.171875l-1.5 0l0 -1.0625l2.8125 0l0 1.46875q0.890625 -1.640625 2.90625 -1.640625q1.203125 0 2.015625 0.75q0.828125 0.734375 0.828125 2.40625l0 4.25l1.4375 0l0 1.0625zm7.611908 -2.40625q0 1.21875 -1.015625 1.90625q-1.015625 0.6875 -2.5 0.6875q-0.875 0 -1.75 -0.234375q-0.859375 -0.234375 -1.40625 -0.59375l0.265625 -1.875l1.046875 0.109375l-0.0625 1.09375q0.859375 0.421875 1.84375 0.421875q0.875 0 1.546875 -0.34375q0.6875 -0.34375 0.6875 -1.0625q0 -0.6875 -0.515625 -0.96875q-0.515625 -0.28125 -1.296875 -0.40625q-0.78125 -0.140625 -1.5625 -0.3125q-0.78125 -0.1875 -1.3125 -0.640625q-0.515625 -0.46875 -0.515625 -1.4375q0 -1.328125 0.96875 -1.859375q0.96875 -0.546875 2.109375 -0.546875q0.859375 0 1.609375 0.234375q0.765625 0.21875 1.28125 0.53125l0.21875 1.9375l-1.09375 0.125l-0.203125 -1.34375q-0.78125 -0.40625 -1.703125 -0.40625q-0.78125 0 -1.28125 0.296875q-0.5 0.296875 -0.5 0.9375q0 0.65625 0.515625 0.921875q0.53125 0.265625 1.296875 0.390625q0.765625 0.125 1.53125 0.3125q0.765625 0.1875 1.28125 0.671875q0.515625 0.46875 0.515625 1.453125z" fill-rule="nonzero"/><path fill="#ffffff" d="m129.51968 584.64044l11.787399 47.149597l116.488205 0l11.787384 -47.149597z" fill-rule="evenodd"/><path stroke="#000000" stroke-width="1.0" stroke-linejoin="round" stroke-linecap="butt" d="m129.51968 584.64044l11.787399 47.149597l116.488205 0l11.787384 -47.149597z" fill-rule="evenodd"/><path fill="#000000" fill-opacity="0.0" d="m142.10236 575.74146l114.897644 0l0 64.629944l-114.897644 0z" fill-rule="evenodd"/><path fill="#000000" d="m191.92456 602.66144l-2.421875 0l-2.625 -5.078125l-2.59375 0l0 3.890625l1.625 0l0 1.1875l-4.53125 0l0 -1.1875l1.53125 0l0 -9.75l-1.53125 0l0 -1.1875l5.25 0q2.25 0 3.21875 0.984375q0.96875 0.96875 0.96875 2.453125q0 1.171875 -0.65625 2.09375q-0.640625 0.921875 -1.9375 1.265625l2.171875 4.140625l1.53125 0l0 1.1875zm-2.546875 -8.640625q0 -1.1875 -0.6875 -1.734375q-0.6875 -0.5625 -2.234375 -0.5625l-2.171875 0l0 4.71875l2.203125 0q1.546875 0 2.21875 -0.640625q0.671875 -0.640625 0.671875 -1.78125zm4.245285 0.96875q0.65625 -0.421875 1.375 -0.609375q0.734375 -0.1875 1.546875 -0.1875q2.96875 0 2.96875 2.78125l0 3.953125q0 0.890625 0.703125 0.890625q0.328125 0 0.5625 -0.109375l0.015625 0.859375q-0.5 0.28125 -1.078125 0.28125q-1.46875 0 -1.515625 -1.6875l0 -0.03125q-0.390625 0.671875 -1.109375 1.203125q-0.71875 0.515625 -1.71875 0.515625q-0.828125 0 -1.671875 -0.5q-0.84375 -0.515625 -0.84375 -1.828125q0 -1.578125 1.234375 -2.0625q1.25 -0.5 2.640625 -0.5q0.375 0 0.75 0.015625q0.390625 0.015625 0.71875 0.0625l0 -0.75q0 -0.890625 -0.390625 -1.453125q-0.375 -0.5625 -1.484375 -0.5625q-0.921875 0 -1.609375 0.34375l-0.3125 1.4375l-1.078125 -0.140625l0.296875 -1.921875zm4.578125 4.5625l0 -0.640625q-0.34375 -0.015625 -0.734375 -0.046875q-0.390625 -0.046875 -0.8125 -0.046875q-0.921875 0 -1.6875 0.296875q-0.75 0.28125 -0.75 1.25q0 0.796875 0.5 1.109375q0.5 0.296875 1.046875 0.296875q0.859375 0 1.609375 -0.59375q0.765625 -0.609375 0.828125 -1.625zm10.901581 0.3125q-0.171875 1.078125 -0.984375 2.03125q-0.8125 0.953125 -2.5156097 0.953125q-1.71875 0 -2.75 -1.109375q-1.03125 -1.109375 -1.03125 -3.109375q0 -1.71875 0.96875 -3.078125q0.984375 -1.359375 2.921875 -1.359375q0.81248474 0 1.4999847 0.1875q0.703125 0.1875 1.328125 0.671875l0.328125 2.0l-1.09375 0.125l-0.3125 -1.40625q-0.75 -0.453125 -1.7656097 -0.453125q-1.328125 0 -1.90625 0.953125q-0.578125 0.9375 -0.578125 2.28125q0 1.5 0.640625 2.34375q0.65625 0.828125 1.890625 0.828125q1.8749847 0 2.2343597 -2.109375l1.125 0.25zm8.744186 0.40625q-0.15625 1.0625 -1.0625 1.828125q-0.890625 0.75 -2.421875 0.75q-1.75 0 -2.84375 -1.09375q-1.078125 -1.109375 -1.078125 -3.125q0 -1.9375 1.03125 -3.1875q1.03125 -1.25 2.78125 -1.25q1.71875 0 2.609375 1.078125q0.890625 1.078125 0.921875 2.5625q0 0.484375 -0.125 0.984375l-5.828125 0q0.109375 2.90625 2.625 2.90625q0.984375 0 1.546875 -0.453125q0.5625 -0.46875 0.75 -1.234375l1.09375 0.234375zm-1.453125 -2.421875q0.09375 -0.9375 -0.4375 -1.75q-0.53125 -0.828125 -1.734375 -0.828125q-1.15625 0 -1.703125 0.765625q-0.546875 0.765625 -0.671875 1.8125l4.546875 0z" fill-rule="nonzero"/><path fill="#000000" d="m180.24637 625.06146l-4.421875 0l0 -1.1875l1.53125 0l0 -4.40625l-6.734375 0l0 4.40625l1.53125 0l0 1.1875l-4.421875 0l0 -1.1875l1.53125 0l0 -9.75l-1.53125 0l0 -1.1875l4.421875 0l0 1.1875l-1.53125 0l0 4.1875l6.734375 0l0 -4.1875l-1.53125 0l0 -1.1875l4.421875 0l0 1.1875l-1.53125 0l0 9.75l1.53125 0l0 1.1875zm10.602753 0l-2.796875 0l0 -1.5625q-0.390625 0.78125 -1.15625 1.265625q-0.75 0.484375 -1.734375 0.484375q-1.21875 0 -2.046875 -0.75q-0.828125 -0.765625 -0.828125 -2.421875l0 -4.25l-1.453125 0l0 -1.0625l2.75 0l0 4.9375q0 1.34375 0.5625 1.890625q0.5625 0.53125 1.4375 0.53125q1.0625 0 1.734375 -0.796875q0.6875 -0.796875 0.734375 -1.703125l0 -3.796875l-1.734375 0l0 -1.0625l3.03125 0l0 7.234375l1.5 0l0 1.0625zm16.21614 0l-3.9843597 0l0 -1.0625l1.21875 0l0 -3.859375q0 -1.34375 -0.53125 -1.890625q-0.53125 -0.5625 -1.359375 -0.5625q-1.125 0 -1.75 0.859375q-0.609375 0.859375 -0.625 1.640625l0 3.8125l1.421875 0l0 1.0625l-3.953125 0l0 -1.0625l1.203125 0l0 -3.859375q0 -1.359375 -0.53125 -1.90625q-0.515625 -0.546875 -1.3125 -0.546875q-1.15625 0 -1.765625 0.84375q-0.609375 0.828125 -0.640625 1.625l0 3.84375l1.515625 0l0 1.0625l-4.28125 0l0 -1.0625l1.453125 0l0 -6.171875l-1.46875 0l0 -1.0625l2.78125 0l0 1.546875q0.40625 -0.75 1.09375 -1.234375q0.6875 -0.484375 1.671875 -0.484375q0.984375 0 1.6875 0.484375q0.71875 0.484375 0.984375 1.515625q0.375 -0.875 1.109375 -1.4375q0.734375 -0.5625 1.828125 -0.5625q1.1875 0 1.984375 0.75q0.796875 0.734375 0.796875 2.40625l0 4.25l1.4531097 0l0 1.0625zm1.6784668 -7.671875q0.65625 -0.421875 1.375 -0.609375q0.734375 -0.1875 1.546875 -0.1875q2.96875 0 2.96875 2.78125l0 3.953125q0 0.890625 0.703125 0.890625q0.328125 0 0.5625 -0.109375l0.015625 0.859375q-0.5 0.28125 -1.078125 0.28125q-1.46875 0 -1.515625 -1.6875l0 -0.03125q-0.390625 0.671875 -1.109375 1.203125q-0.71875 0.515625 -1.71875 0.515625q-0.828125 0 -1.671875 -0.5q-0.84375 -0.515625 -0.84375 -1.828125q0 -1.578125 1.234375 -2.0625q1.25 -0.5 2.640625 -0.5q0.375 0 0.75 0.015625q0.390625 0.015625 0.71875 0.0625l0 -0.75q0 -0.890625 -0.390625 -1.453125q-0.375 -0.5625 -1.484375 -0.5625q-0.921875 0 -1.609375 0.34375l-0.3125 1.4375l-1.078125 -0.140625l0.296875 -1.921875zm4.578125 4.5625l0 -0.640625q-0.34375 -0.015625 -0.734375 -0.046875q-0.390625 -0.046875 -0.8125 -0.046875q-0.921875 0 -1.6875 0.296875q-0.75 0.28125 -0.75 1.25q0 0.796875 0.5 1.109375q0.5 0.296875 1.046875 0.296875q0.859375 0 1.609375 -0.59375q0.765625 -0.609375 0.828125 -1.625zm4.870346 -7.34375l0 -1.6875l1.421875 0l0 1.6875l-1.421875 0zm2.890625 10.453125l-4.203125 0l0 -1.0625l1.453125 0l0 -6.171875l-1.5 0l0 -1.0625l2.796875 0l0 7.234375l1.453125 0l0 1.0625zm10.89563 0l-4.1875 0l0 -1.0625l1.4375 0l0 -3.859375q0 -1.34375 -0.546875 -1.890625q-0.546875 -0.5625 -1.375 -0.5625q-1.125 0 -1.8125 0.75q-0.671875 0.734375 -0.703125 1.6875l0 3.875l1.453125 0l0 1.0625l-4.21875 0l0 -1.0625l1.453125 0l0 -6.171875l-1.5 0l0 -1.0625l2.8125 0l0 1.46875q0.890625 -1.640625 2.90625 -1.640625q1.203125 0 2.015625 0.75q0.828125 0.734375 0.828125 2.40625l0 4.25l1.4375 0l0 1.0625z" fill-rule="nonzero"/><path fill="#ffffff" d="m141.55118 644.7953l11.787399 47.149597l92.4252 0l11.787399 -47.149597z" fill-rule="evenodd"/><path stroke="#000000" stroke-width="1.0" stroke-linejoin="round" stroke-linecap="butt" d="m141.55118 644.7953l11.787399 47.149597l92.4252 0l11.787399 -47.149597z" fill-rule="evenodd"/><path fill="#000000" fill-opacity="0.0" d="m148.00787 636.2651l103.08661 0l0 64.629944l-103.08661 0z" fill-rule="evenodd"/><path fill="#000000" d="m187.46481 658.1539l-0.953125 0l0 5.03125l-1.046875 0l-0.171875 -1.671875q-0.53125 0.796875 -1.53125 1.328125q-1.0 0.53125 -2.34375 0.53125q-2.5 0 -4.046875 -1.78125q-1.546875 -1.796875 -1.546875 -4.40625q0 -1.765625 0.75 -3.1875q0.75 -1.421875 2.078125 -2.265625q1.34375 -0.859375 3.078125 -0.859375q1.453125 0 2.546875 0.40625q1.09375 0.390625 1.78125 1.015625l0.34375 2.265625l-1.15625 0.140625l-0.375 -1.71875q-0.5 -0.34375 -1.21875 -0.609375q-0.71875 -0.265625 -1.84375 -0.265625q-2.03125 0 -3.28125 1.40625q-1.25 1.390625 -1.25 3.609375q0 2.25 1.1875 3.640625q1.203125 1.375 3.1875 1.375q1.671875 0 2.578125 -0.90625q0.921875 -0.90625 0.921875 -2.0l0 -1.078125l-2.890625 0l0 -1.21875l5.203125 0l0 1.21875zm8.610214 2.640625q-0.15625 1.0625 -1.0625 1.828125q-0.890625 0.75 -2.421875 0.75q-1.75 0 -2.84375 -1.09375q-1.078125 -1.109375 -1.078125 -3.125q0 -1.9375 1.03125 -3.1875q1.03125 -1.25 2.78125 -1.25q1.71875 0 2.609375 1.078125q0.890625 1.078125 0.921875 2.5625q0 0.484375 -0.125 0.984375l-5.828125 0q0.109375 2.90625 2.625 2.90625q0.984375 0 1.546875 -0.453125q0.5625 -0.46875 0.75 -1.234375l1.09375 0.234375zm-1.453125 -2.421875q0.09375 -0.9375 -0.4375 -1.75q-0.53125 -0.828125 -1.734375 -0.828125q-1.15625 0 -1.703125 0.765625q-0.546875 0.765625 -0.671875 1.8125l4.546875 0zm12.627808 4.8125l-4.1875 0l0 -1.0625l1.4375 0l0 -3.859375q0 -1.34375 -0.546875 -1.890625q-0.546875 -0.5625 -1.375 -0.5625q-1.125 0 -1.8125 0.75q-0.671875 0.734375 -0.703125 1.6875l0 3.875l1.453125 0l0 1.0625l-4.21875 0l0 -1.0625l1.453125 0l0 -6.171875l-1.5 0l0 -1.0625l2.8125 0l0 1.46875q0.890625 -1.640625 2.90625 -1.640625q1.203125 0 2.015625 0.75q0.828125 0.734375 0.828125 2.40625l0 4.25l1.4375 0l0 1.0625zm5.471283 -8.453125q0.890625 0 1.421875 0.4375l0.3125 2.078125l-1.0625 0.140625l-0.3125 -1.421875q-0.328125 -0.109375 -0.640625 -0.109375q-0.71875 0 -1.203125 0.609375q-0.484375 0.59375 -0.484375 1.5625l0 4.09375l1.921875 0l0 1.0625l-4.6875 0l0 -1.0625l1.453125 0l0 -6.171875l-1.5 0l0 -1.0625l2.734375 0l0 1.484375q0.234375 -0.6875 0.78125 -1.15625q0.5625 -0.484375 1.265625 -0.484375zm10.648132 6.0625q-0.15625 1.0625 -1.0625 1.828125q-0.890625 0.75 -2.421875 0.75q-1.75 0 -2.84375 -1.09375q-1.078125 -1.109375 -1.078125 -3.125q0 -1.9375 1.03125 -3.1875q1.03125 -1.25 2.78125 -1.25q1.71875 0 2.609375 1.078125q0.890625 1.078125 0.921875 2.5625q0 0.484375 -0.125 0.984375l-5.828125 0q0.109375 2.90625 2.625 2.90625q0.984375 0 1.546875 -0.453125q0.5625 -0.46875 0.75 -1.234375l1.09375 0.234375zm-1.453125 -2.421875q0.09375 -0.9375 -0.4375 -1.75q-0.53125 -0.828125 -1.734375 -0.828125q-1.15625 0 -1.703125 0.765625q-0.546875 0.765625 -0.671875 1.8125l4.546875 0z" fill-rule="nonzero"/><path fill="#000000" d="m178.54817 674.6476l-1.578125 0l0 9.75l1.515625 0l0 1.1875l-4.3125 0l0 -1.1875l1.421875 0l0 -7.734375l-0.078125 0l-4.078125 8.3125l-0.71875 0l-4.15625 -8.359375l-0.078125 0l0 7.78125l1.453125 0l0 1.1875l-4.296875 0l0 -1.1875l1.53125 0l0 -9.75l-1.578125 0l0 -1.1875l2.78125 0l4.71875 9.5l0.078125 0l4.578125 -9.5l2.796875 0l0 1.1875zm2.080658 3.265625q0.65625 -0.421875 1.375 -0.609375q0.734375 -0.1875 1.546875 -0.1875q2.96875 0 2.96875 2.78125l0 3.953125q0 0.890625 0.703125 0.890625q0.328125 0 0.5625 -0.109375l0.015625 0.859375q-0.5 0.28125 -1.078125 0.28125q-1.46875 0 -1.515625 -1.6875l0 -0.03125q-0.390625 0.671875 -1.109375 1.203125q-0.71875 0.515625 -1.71875 0.515625q-0.828125 0 -1.671875 -0.5q-0.84375 -0.515625 -0.84375 -1.828125q0 -1.578125 1.234375 -2.0625q1.25 -0.5 2.640625 -0.5q0.375 0 0.75 0.015625q0.390625 0.015625 0.71875 0.0625l0 -0.75q0 -0.890625 -0.390625 -1.453125q-0.375 -0.5625 -1.484375 -0.5625q-0.921875 0 -1.609375 0.34375l-0.3125 1.4375l-1.078125 -0.140625l0.296875 -1.921875zm4.578125 4.5625l0 -0.640625q-0.34375 -0.015625 -0.734375 -0.046875q-0.390625 -0.046875 -0.8125 -0.046875q-0.921875 0 -1.6875 0.296875q-0.75 0.28125 -0.75 1.25q0 0.796875 0.5 1.109375q0.5 0.296875 1.046875 0.296875q0.859375 0 1.609375 -0.59375q0.765625 -0.609375 0.828125 -1.625zm10.354721 0.703125q0 1.21875 -1.015625 1.90625q-1.015625 0.6875 -2.5 0.6875q-0.875 0 -1.75 -0.234375q-0.859375 -0.234375 -1.40625 -0.59375l0.265625 -1.875l1.046875 0.109375l-0.0625 1.09375q0.859375 0.421875 1.84375 0.421875q0.875 0 1.546875 -0.34375q0.6875 -0.34375 0.6875 -1.0625q0 -0.6875 -0.515625 -0.96875q-0.515625 -0.28125 -1.296875 -0.40625q-0.78125 -0.140625 -1.5625 -0.3125q-0.78125 -0.1875 -1.3125 -0.640625q-0.515625 -0.46875 -0.515625 -1.4375q0 -1.328125 0.96875 -1.859375q0.96875 -0.546875 2.109375 -0.546875q0.859375 0 1.609375 0.234375q0.765625 0.21875 1.28125 0.53125l0.21875 1.9375l-1.09375 0.125l-0.203125 -1.34375q-0.78125 -0.40625 -1.703125 -0.40625q-0.78125 0 -1.28125 0.296875q-0.5 0.296875 -0.5 0.9375q0 0.65625 0.515625 0.921875q0.53125 0.265625 1.296875 0.390625q0.765625 0.125 1.53125 0.3125q0.765625 0.1875 1.28125 0.671875q0.515625 0.46875 0.515625 1.453125zm8.7183075 -0.390625q-0.171875 1.078125 -0.984375 2.03125q-0.8125 0.953125 -2.515625 0.953125q-1.71875 0 -2.75 -1.109375q-1.03125 -1.109375 -1.03125 -3.109375q0 -1.71875 0.96875 -3.078125q0.984375 -1.359375 2.921875 -1.359375q0.8125 0 1.5 0.1875q0.703125 0.1875 1.328125 0.671875l0.328125 2.0l-1.09375 0.125l-0.3125 -1.40625q-0.75 -0.453125 -1.765625 -0.453125q-1.328125 0 -1.90625 0.953125q-0.578125 0.9375 -0.578125 2.28125q0 1.5 0.640625 2.34375q0.65625 0.828125 1.890625 0.828125q1.875 0 2.234375 -2.109375l1.125 0.25zm10.822311 2.796875l-2.796875 0l0 -1.5625q-0.390625 0.78125 -1.15625 1.265625q-0.75 0.484375 -1.734375 0.484375q-1.21875 0 -2.046875 -0.75q-0.828125 -0.765625 -0.828125 -2.421875l0 -4.25l-1.453125 0l0 -1.0625l2.75 0l0 4.9375q0 1.34375 0.5625 1.890625q0.5625 0.53125 1.4375 0.53125q1.0625 0 1.734375 -0.796875q0.6875 -0.796875 0.734375 -1.703125l0 -3.796875l-1.734375 0l0 -1.0625l3.03125 0l0 7.234375l1.5 0l0 1.0625zm4.872406 0l-4.21875 0l0 -1.0625l1.453125 0l0 -10.703125l-1.46875 0l0 -1.0625l2.78125 0l0 11.765625l1.453125 0l0 1.0625zm2.3219452 -10.453125l0 -1.6875l1.421875 0l0 1.6875l-1.421875 0zm2.890625 10.453125l-4.203125 0l0 -1.0625l1.453125 0l0 -6.171875l-1.5 0l0 -1.0625l2.796875 0l0 7.234375l1.453125 0l0 1.0625zm10.89563 0l-4.1875 0l0 -1.0625l1.4375 0l0 -3.859375q0 -1.34375 -0.546875 -1.890625q-0.546875 -0.5625 -1.375 -0.5625q-1.125 0 -1.8125 0.75q-0.671875 0.734375 -0.703125 1.6875l0 3.875l1.453125 0l0 1.0625l-4.21875 0l0 -1.0625l1.453125 0l0 -6.171875l-1.5 0l0 -1.0625l2.8125 0l0 1.46875q0.890625 -1.640625 2.90625 -1.640625q1.203125 0 2.015625 0.75q0.828125 0.734375 0.828125 2.40625l0 4.25l1.4375 0l0 1.0625z" fill-rule="nonzero"/><path fill="#ffffff" d="m94.10236 189.42018l22.183731 -54.614166l166.53018 0l22.183716 54.614166z" fill-rule="evenodd"/><path stroke="#000000" stroke-width="1.0" stroke-linejoin="round" stroke-linecap="butt" d="m94.10236 189.42018l22.183731 -54.614166l166.53018 0l22.183716 54.614166z" fill-rule="evenodd"/><path fill="#000000" d="m184.71716 159.0105q-1.46875 1.125 -4.0625 1.125q-2.640625 0 -4.28125 -1.765625q-1.640625 -1.765625 -1.640625 -4.40625q0 -1.6875 0.703125 -3.125q0.71875 -1.453125 2.0 -2.328125q1.28125 -0.875 3.0625 -0.875q1.5 0 2.515625 0.390625q1.03125 0.390625 1.765625 1.03125l0.34375 2.328125l-1.171875 0.109375l-0.34375 -1.765625q-0.59375 -0.390625 -1.28125 -0.625q-0.6875 -0.234375 -1.71875 -0.234375q-2.0 0 -3.21875 1.421875q-1.21875 1.40625 -1.21875 3.609375q0 2.265625 1.25 3.640625q1.265625 1.359375 3.421875 1.359375q1.59375 0 2.671875 -0.53125l0.359375 -1.796875l1.15625 0.109375l-0.3125 2.328125zm5.911316 0.9375l-4.21875 0l0 -1.0625l1.453125 0l0 -10.703125l-1.46875 0l0 -1.0625l2.78125 0l0 11.765625l1.453125 0l0 1.0625zm1.8844452 -7.671875q0.65625 -0.421875 1.375 -0.609375q0.734375 -0.1875 1.546875 -0.1875q2.96875 0 2.96875 2.78125l0 3.953125q0 0.890625 0.703125 0.890625q0.328125 0 0.5625 -0.109375l0.015625 0.859375q-0.5 0.28125 -1.078125 0.28125q-1.46875 0 -1.515625 -1.6875l0 -0.03125q-0.390625 0.671875 -1.109375 1.203125q-0.71875 0.515625 -1.71875 0.515625q-0.828125 0 -1.671875 -0.5q-0.84375 -0.515625 -0.84375 -1.828125q0 -1.578125 1.234375 -2.0625q1.25 -0.5 2.640625 -0.5q0.375 0 0.75 0.015625q0.390625 0.015625 0.71875 0.0625l0 -0.75q0 -0.890625 -0.390625 -1.453125q-0.375 -0.5625 -1.484375 -0.5625q-0.921875 0 -1.609375 0.34375l-0.3125 1.4375l-1.078125 -0.140625l0.296875 -1.921875zm4.578125 4.5625l0 -0.640625q-0.34375 -0.015625 -0.734375 -0.046875q-0.390625 -0.046875 -0.8125 -0.046875q-0.921875 0 -1.6875 0.296875q-0.75 0.28125 -0.75 1.25q0 0.796875 0.5 1.109375q0.5 0.296875 1.046875 0.296875q0.859375 0 1.609375 -0.59375q0.765625 -0.609375 0.828125 -1.625zm10.354721 0.703125q0 1.21875 -1.015625 1.90625q-1.015625 0.6875 -2.5 0.6875q-0.875 0 -1.75 -0.234375q-0.859375 -0.234375 -1.40625 -0.59375l0.265625 -1.875l1.046875 0.109375l-0.0625 1.09375q0.859375 0.421875 1.84375 0.421875q0.875 0 1.546875 -0.34375q0.6875 -0.34375 0.6875 -1.0625q0 -0.6875 -0.515625 -0.96875q-0.515625 -0.28125 -1.296875 -0.40625q-0.78125 -0.140625 -1.5625 -0.3125q-0.78125 -0.1875 -1.3125 -0.640625q-0.515625 -0.46875 -0.515625 -1.4375q0 -1.328125 0.96875 -1.859375q0.96875 -0.546875 2.109375 -0.546875q0.859375 0 1.609375 0.234375q0.765625 0.21875 1.28125 0.53125l0.21875 1.9375l-1.09375 0.125l-0.203125 -1.34375q-0.78125 -0.40625 -1.703125 -0.40625q-0.78125 0 -1.28125 0.296875q-0.5 0.296875 -0.5 0.9375q0 0.65625 0.515625 0.921875q0.53125 0.265625 1.296875 0.390625q0.765625 0.125 1.53125 0.3125q0.765625 0.1875 1.28125 0.671875q0.515625 0.46875 0.515625 1.453125zm8.1714325 0q0 1.21875 -1.015625 1.90625q-1.015625 0.6875 -2.5 0.6875q-0.875 0 -1.75 -0.234375q-0.859375 -0.234375 -1.40625 -0.59375l0.265625 -1.875l1.046875 0.109375l-0.0625 1.09375q0.859375 0.421875 1.84375 0.421875q0.875 0 1.546875 -0.34375q0.6875 -0.34375 0.6875 -1.0625q0 -0.6875 -0.515625 -0.96875q-0.515625 -0.28125 -1.296875 -0.40625q-0.78125 -0.140625 -1.5625 -0.3125q-0.78125 -0.1875 -1.3125 -0.640625q-0.515625 -0.46875 -0.515625 -1.4375q0 -1.328125 0.96875 -1.859375q0.96875 -0.546875 2.109375 -0.546875q0.859375 0 1.609375 0.234375q0.765625 0.21875 1.28125 0.53125l0.21875 1.9375l-1.09375 0.125l-0.203125 -1.34375q-0.78125 -0.40625 -1.703125 -0.40625q-0.78125 0 -1.28125 0.296875q-0.5 0.296875 -0.5 0.9375q0 0.65625 0.515625 0.921875q0.53125 0.265625 1.296875 0.390625q0.765625 0.125 1.53125 0.3125q0.765625 0.1875 1.28125 0.671875q0.515625 0.46875 0.515625 1.453125zm8.8433075 0.015625q-0.15625 1.0625 -1.0625 1.828125q-0.890625 0.75 -2.421875 0.75q-1.75 0 -2.84375 -1.09375q-1.078125 -1.109375 -1.078125 -3.125q0 -1.9375 1.03125 -3.1875q1.03125 -1.25 2.78125 -1.25q1.71875 0 2.609375 1.078125q0.890625 1.078125 0.921875 2.5625q0 0.484375 -0.125 0.984375l-5.828125 0q0.109375 2.90625 2.625 2.90625q0.984375 0 1.546875 -0.453125q0.5625 -0.46875 0.75 -1.234375l1.09375 0.234375zm-1.453125 -2.421875q0.09375 -0.9375 -0.4375 -1.75q-0.53125 -0.828125 -1.734375 -0.828125q-1.15625 0 -1.703125 0.765625q-0.546875 0.765625 -0.671875 1.8125l4.546875 0z" fill-rule="nonzero"/><path fill="#000000" d="m145.30275 171.0105l-1.578125 0l0 9.75l1.515625 0l0 1.1875l-4.3125 0l0 -1.1875l1.421875 0l0 -7.734375l-0.078125 0l-4.078125 8.3125l-0.71875 0l-4.15625 -8.359375l-0.078125 0l0 7.78125l1.453125 0l0 1.1875l-4.296875 0l0 -1.1875l1.53125 0l0 -9.75l-1.578125 0l0 -1.1875l2.78125 0l4.71875 9.5l0.078125 0l4.578125 -9.5l2.796875 0l0 1.1875zm2.080658 3.265625q0.65625 -0.421875 1.375 -0.609375q0.734375 -0.1875 1.546875 -0.1875q2.96875 0 2.96875 2.78125l0 3.953125q0 0.890625 0.703125 0.890625q0.328125 0 0.5625 -0.109375l0.015625 0.859375q-0.5 0.28125 -1.078125 0.28125q-1.46875 0 -1.515625 -1.6875l0 -0.03125q-0.390625 0.671875 -1.109375 1.203125q-0.71875 0.515625 -1.71875 0.515625q-0.828125 0 -1.671875 -0.5q-0.84375 -0.515625 -0.84375 -1.828125q0 -1.578125 1.234375 -2.0625q1.25 -0.5 2.640625 -0.5q0.375 0 0.75 0.015625q0.390625 0.015625 0.71875 0.0625l0 -0.75q0 -0.890625 -0.390625 -1.453125q-0.375 -0.5625 -1.484375 -0.5625q-0.921875 0 -1.609375 0.34375l-0.3125 1.4375l-1.078125 -0.140625l0.296875 -1.921875zm4.578125 4.5625l0 -0.640625q-0.34375 -0.015625 -0.734375 -0.046875q-0.390625 -0.046875 -0.8125 -0.046875q-0.921875 0 -1.6875 0.296875q-0.75 0.28125 -0.75 1.25q0 0.796875 0.5 1.109375q0.5 0.296875 1.046875 0.296875q0.859375 0 1.609375 -0.59375q0.765625 -0.609375 0.828125 -1.625zm12.823471 -4.125l-1.34375 0l0 7.125q0 1.953125 -1.078125 3.109375q-1.0625 1.15625 -3.0 1.15625q-1.3125 0 -2.359375 -0.59375q-1.03125 -0.59375 -1.359375 -1.84375l1.046875 -0.53125q0.3125 0.984375 1.09375 1.421875q0.78125 0.4375 1.625 0.4375q1.203125 0 1.953125 -0.84375q0.75 -0.828125 0.75 -2.375l0 -1.53125q-0.375 0.734375 -1.078125 1.28125q-0.703125 0.53125 -1.890625 0.53125q-1.46875 0 -2.515625 -1.046875q-1.046875 -1.046875 -1.046875 -3.0q0 -1.65625 0.890625 -3.09375q0.90625 -1.4375 2.828125 -1.4375q1.984375 0 2.8125 1.46875l0 -1.296875l2.671875 0l0 1.0625zm-2.671875 3.65625l0 -1.4375q0 -1.046875 -0.71875 -1.6875q-0.71875 -0.640625 -1.734375 -0.640625q-1.40625 0 -2.03125 1.015625q-0.625 1.0 -0.625 2.296875q0 1.53125 0.703125 2.28125q0.703125 0.75 1.71875 0.75q1.203125 0 1.921875 -0.828125q0.734375 -0.828125 0.765625 -1.75zm11.098633 1.1875q-0.15625 1.0625 -1.0625 1.828125q-0.890625 0.75 -2.421875 0.75q-1.75 0 -2.84375 -1.09375q-1.078125 -1.109375 -1.078125 -3.125q0 -1.9375 1.03125 -3.1875q1.03125 -1.25 2.78125 -1.25q1.71875 0 2.609375 1.078125q0.890625 1.078125 0.921875 2.5625q0 0.484375 -0.125 0.984375l-5.828125 0q0.109375 2.90625 2.625 2.90625q0.984375 0 1.546875 -0.453125q0.5625 -0.46875 0.75 -1.234375l1.09375 0.234375zm-1.453125 -2.421875q0.09375 -0.9375 -0.4375 -1.75q-0.53125 -0.828125 -1.734375 -0.828125q-1.15625 0 -1.703125 0.765625q-0.546875 0.765625 -0.671875 1.8125l4.546875 0zm12.237778 -8.015625l-4.0 12.828125l-1.296875 0l4.015625 -12.828125l1.28125 0zm17.075058 6.75q0 2.65625 -1.640625 4.375q-1.625 1.703125 -4.5 1.703125l-5.484375 0l0 -1.171875l1.53125 0l0 -9.78125l-1.53125 0l0 -1.171875l5.4375 0q2.953125 0 4.5625 1.703125q1.625 1.703125 1.625 4.34375zm-1.453125 0.015625q0 -2.203125 -1.234375 -3.546875q-1.21875 -1.34375 -3.53125 -1.34375l-2.515625 0l0 9.78125l2.515625 0q2.3125 0 3.53125 -1.3125q1.234375 -1.328125 1.234375 -3.578125zm10.308914 3.671875q-0.15625 1.0625 -1.0625 1.828125q-0.890625 0.75 -2.421875 0.75q-1.75 0 -2.84375 -1.09375q-1.078125 -1.109375 -1.078125 -3.125q0 -1.9375 1.03125 -3.1875q1.03125 -1.25 2.78125 -1.25q1.71875 0 2.609375 1.078125q0.890625 1.078125 0.921875 2.5625q0 0.484375 -0.125 0.984375l-5.828125 0q0.109375 2.90625 2.625 2.90625q0.984375 0 1.546875 -0.453125q0.5625 -0.46875 0.75 -1.234375l1.09375 0.234375zm-1.453125 -2.421875q0.09375 -0.9375 -0.4375 -1.75q-0.53125 -0.828125 -1.734375 -0.828125q-1.15625 0 -1.703125 0.765625q-0.546875 0.765625 -0.671875 1.8125l4.546875 0zm12.299683 4.8125l-2.796875 0l0 -1.5625q-0.390625 0.78125 -1.15625 1.265625q-0.75 0.484375 -1.734375 0.484375q-1.21875 0 -2.046875 -0.75q-0.828125 -0.765625 -0.828125 -2.421875l0 -4.25l-1.453125 0l0 -1.0625l2.75 0l0 4.9375q0 1.34375 0.5625 1.890625q0.5625 0.53125 1.4375 0.53125q1.0625 0 1.734375 -0.796875q0.6875 -0.796875 0.734375 -1.703125l0 -3.796875l-1.734375 0l0 -1.0625l3.03125 0l0 7.234375l1.5 0l0 1.0625zm9.575531 0l-3.65625 0l0 -1.0625l1.078125 0l-1.9375 -2.390625l-1.96875 2.390625l1.0 0l0 1.0625l-3.453125 0l0 -1.0625l1.140625 0l2.609375 -3.078125l-2.640625 -3.09375l-1.109375 0l0 -1.0625l3.78125 0l0 1.0625l-1.125 0l1.875 2.34375l1.921875 -2.34375l-0.984375 0l0 -1.0625l3.3125 0l0 1.0625l-0.96875 0l-2.59375 3.015625l2.671875 3.15625l1.046875 0l0 1.0625zm2.2455597 -10.453125l0 -1.6875l1.421875 0l0 1.6875l-1.421875 0zm2.890625 10.453125l-4.203125 0l0 -1.0625l1.453125 0l0 -6.171875l-1.5 0l0 -1.0625l2.796875 0l0 7.234375l1.453125 0l0 1.0625zm6.036255 -10.28125l-0.390625 0.578125l-3.234375 -1.9375l0.75 -1.109375l2.875 2.46875zm2.453125 7.890625q-0.15625 1.0625 -1.0625 1.828125q-0.890625 0.75 -2.421875 0.75q-1.75 0 -2.84375 -1.09375q-1.078125 -1.109375 -1.078125 -3.125q0 -1.9375 1.03125 -3.1875q1.03125 -1.25 2.78125 -1.25q1.71875 0 2.609375 1.078125q0.890625 1.078125 0.921875 2.5625q0 0.484375 -0.125 0.984375l-5.828125 0q0.109375 2.90625 2.625 2.90625q0.984375 0 1.546875 -0.453125q0.5625 -0.46875 0.75 -1.234375l1.09375 0.234375zm-1.453125 -2.421875q0.09375 -0.9375 -0.4375 -1.75q-0.53125 -0.828125 -1.734375 -0.828125q-1.15625 0 -1.703125 0.765625q-0.546875 0.765625 -0.671875 1.8125l4.546875 0zm18.049683 4.8125l-3.984375 0l0 -1.0625l1.21875 0l0 -3.859375q0 -1.34375 -0.53125 -1.890625q-0.53125 -0.5625 -1.359375 -0.5625q-1.125 0 -1.75 0.859375q-0.609375 0.859375 -0.625 1.640625l0 3.8125l1.421875 0l0 1.0625l-3.953125 0l0 -1.0625l1.203125 0l0 -3.859375q0 -1.359375 -0.53125 -1.90625q-0.515625 -0.546875 -1.3125 -0.546875q-1.15625 0 -1.765625 0.84375q-0.609375 0.828125 -0.640625 1.625l0 3.84375l1.515625 0l0 1.0625l-4.28125 0l0 -1.0625l1.453125 0l0 -6.171875l-1.46875 0l0 -1.0625l2.78125 0l0 1.546875q0.40625 -0.75 1.09375 -1.234375q0.6875 -0.484375 1.671875 -0.484375q0.984375 0 1.6875 0.484375q0.71875 0.484375 0.984375 1.515625q0.375 -0.875 1.109375 -1.4375q0.734375 -0.5625 1.828125 -0.5625q1.1875 0 1.984375 0.75q0.796875 0.734375 0.796875 2.40625l0 4.25l1.453125 0l0 1.0625zm8.272217 -2.390625q-0.15625 1.0625 -1.0625 1.828125q-0.890625 0.75 -2.421875 0.75q-1.75 0 -2.84375 -1.09375q-1.078125 -1.109375 -1.078125 -3.125q0 -1.9375 1.03125 -3.1875q1.03125 -1.25 2.78125 -1.25q1.71875 0 2.609375 1.078125q0.890625 1.078125 0.921875 2.5625q0 0.484375 -0.125 0.984375l-5.828125 0q0.109375 2.90625 2.625 2.90625q0.984375 0 1.546875 -0.453125q0.5625 -0.46875 0.75 -1.234375l1.09375 0.234375zm-1.453125 -2.421875q0.09375 -0.9375 -0.4375 -1.75q-0.53125 -0.828125 -1.734375 -0.828125q-1.15625 0 -1.703125 0.765625q-0.546875 0.765625 -0.671875 1.8125l4.546875 0z" fill-rule="nonzero"/></g></svg>