<svg version="1.1" viewBox="0.0 0.0 956.5616797900262 236.7270341207349" fill="none" stroke="none" stroke-linecap="square" stroke-miterlimit="10" xmlns:xlink="http://www.w3.org/1999/xlink" xmlns="http://www.w3.org/2000/svg"><clipPath id="p.0"><path d="m0 0l956.5617 0l0 236.72704l-956.5617 0l0 -236.72704z" clip-rule="nonzero"/></clipPath><g clip-path="url(#p.0)"><path fill="#000000" fill-opacity="0.0" d="m0 0l956.5617 0l0 236.72704l-956.5617 0z" fill-rule="evenodd"/><path fill="#000000" d="m139.04295 145.20016l0 0c0 -5.737503 4.6511536 -10.388672 10.388657 -10.388672l795.6636 0c2.755249 0 5.397644 1.0945282 7.345886 3.0427704c1.9483032 1.9482574 3.0427856 4.5906525 3.0427856 7.3459015l0 41.55339c0 5.737488 -4.651184 10.388657 -10.388672 10.388657l-795.6636 0c-5.737503 0 -10.388657 -4.651169 -10.388657 -10.388657z" fill-rule="evenodd"/><path stroke="#ffffff" stroke-width="3.0" stroke-linejoin="round" stroke-linecap="butt" d="m139.04295 145.20016l0 0c0 -5.737503 4.6511536 -10.388672 10.388657 -10.388672l795.6636 0c2.755249 0 5.397644 1.0945282 7.345886 3.0427704c1.9483032 1.9482574 3.0427856 4.5906525 3.0427856 7.3459015l0 41.55339c0 5.737488 -4.651184 10.388657 -10.388672 10.388657l-795.6636 0c-5.737503 0 -10.388657 -4.651169 -10.388657 -10.388657z" fill-rule="evenodd"/><g filter="url(#shadowFilter-p.1)"><use xlink:href="#p.1" transform="matrix(1.0 0.0 0.0 1.0 24.996192388451444 -0.4363102362204888)"/></g><defs><filter id="shadowFilter-p.1" filterUnits="userSpaceOnUse"><feGaussianBlur in="SourceAlpha" stdDeviation="2.0" result="blur"/><feComponentTransfer in="blur" color-interpolation-filters="sRGB"><feFuncR type="linear" slope="0" intercept="0.0"/><feFuncG type="linear" slope="0" intercept="0.0"/><feFuncB type="linear" slope="0" intercept="0.0"/><feFuncA type="linear" slope="0.5" intercept="0"/></feComponentTransfer></filter></defs><g id="p.1"><path fill="#ffffff" d="m26.860815 119.09703l-25.574804 40.14174c-1.13129616E-4 1.6784668E-4 -1.5187263E-4 3.9672852E-4 -1.077652E-4 5.950928E-4c4.4107437E-5 2.1362305E-4 1.6736984E-4 3.9672852E-4 3.4284592E-4 5.0354004E-4l46.935925 31.096237c21.913563 14.518738 51.12824 8.3164215 65.25282 -13.853241l25.574799 -40.14174l0 0c2.4414062E-4 -3.6621094E-4 1.373291E-4 -8.69751E-4 -2.2888184E-4 -0.0010986328l-46.93593 -31.096237l0 0c-21.913567 -14.51873 -51.128242 -8.3164215 -65.252815 13.853241z" fill-rule="evenodd"/><path stroke="#000000" stroke-width="1.0" stroke-linejoin="round" stroke-linecap="butt" d="m26.860815 119.09703l-25.574804 40.14174c-1.13129616E-4 1.6784668E-4 -1.5187263E-4 3.9672852E-4 -1.077652E-4 5.950928E-4c4.4107437E-5 2.1362305E-4 1.6736984E-4 3.9672852E-4 3.4284592E-4 5.0354004E-4l46.935925 31.096237c21.913563 14.518738 51.12824 8.3164215 65.25282 -13.853241l25.574799 -40.14174l0 0c2.4414062E-4 -3.6621094E-4 1.373291E-4 -8.69751E-4 -2.2888184E-4 -0.0010986328l-46.93593 -31.096237l0 0c-21.913567 -14.51873 -51.128242 -8.3164215 -65.252815 13.853241z" fill-rule="evenodd"/></g><g filter="url(#shadowFilter-p.2)"><use xlink:href="#p.2" transform="matrix(1.0 0.0 0.0 1.0 24.99619238845144 -0.4363102362204697)"/></g><defs><filter id="shadowFilter-p.2" filterUnits="userSpaceOnUse"><feGaussianBlur in="SourceAlpha" stdDeviation="2.0" result="blur"/><feComponentTransfer in="blur" color-interpolation-filters="sRGB"><feFuncR type="linear" slope="0" intercept="0.0"/><feFuncG type="linear" slope="0" intercept="0.0"/><feFuncB type="linear" slope="0" intercept="0.0"/><feFuncA type="linear" slope="0.5" intercept="0"/></feComponentTransfer></filter></defs><g id="p.2"><path fill="#ffffff" d="m145.67253 19.427038l43.905518 -18.141731c1.9836426E-4 -8.022785E-5 4.119873E-4 -8.046627E-5 6.1035156E-4 -5.9604645E-7c1.9836426E-4 7.9751015E-5 3.5095215E-4 2.3305416E-4 4.272461E-4 4.261732E-4l22.254623 52.009342c10.321762 24.121185 -0.96795654 51.7976 -25.216293 61.817l-43.905518 18.141739l0 0c-3.9672852E-4 1.6784668E-4 -8.69751E-4 -3.0517578E-5 -0.0010375977 -4.272461E-4l-22.254616 -52.009346l0 0c-10.321777 -24.121185 0.9679413 -51.7976 25.216286 -61.817z" fill-rule="evenodd"/><path stroke="#000000" stroke-width="1.0" stroke-linejoin="round" stroke-linecap="butt" d="m145.67253 19.427038l43.905518 -18.141731c1.9836426E-4 -8.022785E-5 4.119873E-4 -8.046627E-5 6.1035156E-4 -5.9604645E-7c1.9836426E-4 7.9751015E-5 3.5095215E-4 2.3305416E-4 4.272461E-4 4.261732E-4l22.254623 52.009342c10.321762 24.121185 -0.96795654 51.7976 -25.216293 61.817l-43.905518 18.141739l0 0c-3.9672852E-4 1.6784668E-4 -8.69751E-4 -3.0517578E-5 -0.0010375977 -4.272461E-4l-22.254616 -52.009346l0 0c-10.321777 -24.121185 0.9679413 -51.7976 25.216286 -61.817z" fill-rule="evenodd"/></g><g filter="url(#shadowFilter-p.3)"><use xlink:href="#p.3" transform="matrix(1.0 0.0 0.0 1.0 24.99619238845144 -0.4363102362204888)"/></g><defs><filter id="shadowFilter-p.3" filterUnits="userSpaceOnUse"><feGaussianBlur in="SourceAlpha" stdDeviation="2.0" result="blur"/><feComponentTransfer in="blur" color-interpolation-filters="sRGB"><feFuncR type="linear" slope="0" intercept="0.0"/><feFuncG type="linear" slope="0" intercept="0.0"/><feFuncB type="linear" slope="0" intercept="0.0"/><feFuncA type="linear" slope="0.5" intercept="0"/></feComponentTransfer></filter></defs><g id="p.3"><path fill="#ffffff" d="m124.11774 213.27185l21.905518 20.409454c9.1552734E-5 9.1552734E-5 2.2888184E-4 1.373291E-4 3.5095215E-4 1.2207031E-4c1.373291E-4 0 2.593994E-4 -6.1035156E-5 3.5095215E-4 -1.5258789E-4l21.827133 -23.905869l0 0c11.149475 -12.2109375 10.380478 -31.247467 -1.7176056 -42.519302l-21.905502 -20.409454l0 0c-2.1362305E-4 -1.8310547E-4 -5.187988E-4 -1.6784668E-4 -7.019043E-4 3.0517578E-5l-21.82714 23.905884l0 0c-11.149475 12.210922 -10.380478 31.247467 1.717598 42.519287z" fill-rule="evenodd"/><path stroke="#000000" stroke-width="1.0" stroke-linejoin="round" stroke-linecap="butt" d="m124.11774 213.27185l21.905518 20.409454c9.1552734E-5 9.1552734E-5 2.2888184E-4 1.373291E-4 3.5095215E-4 1.2207031E-4c1.373291E-4 0 2.593994E-4 -6.1035156E-5 3.5095215E-4 -1.5258789E-4l21.827133 -23.905869l0 0c11.149475 -12.2109375 10.380478 -31.247467 -1.7176056 -42.519302l-21.905502 -20.409454l0 0c-2.1362305E-4 -1.8310547E-4 -5.187988E-4 -1.6784668E-4 -7.019043E-4 3.0517578E-5l-21.82714 23.905884l0 0c-11.149475 12.210922 -10.380478 31.247467 1.717598 42.519287z" fill-rule="evenodd"/></g><g filter="url(#shadowFilter-p.4)"><use xlink:href="#p.4" transform="matrix(1.0 0.0 0.0 1.0 24.99619238845144 -0.4363102362204888)"/></g><defs><filter id="shadowFilter-p.4" filterUnits="userSpaceOnUse"><feGaussianBlur in="SourceAlpha" stdDeviation="2.0" result="blur"/><feComponentTransfer in="blur" color-interpolation-filters="sRGB"><feFuncR type="linear" slope="0" intercept="0.0"/><feFuncG type="linear" slope="0" intercept="0.0"/><feFuncB type="linear" slope="0" intercept="0.0"/><feFuncA type="linear" slope="0.5" intercept="0"/></feComponentTransfer></filter></defs><g id="p.4"><path fill="#ffffff" d="m220.86528 132.11795l16.157486 25.244095c6.1035156E-5 1.0681152E-4 9.1552734E-5 2.4414062E-4 6.1035156E-5 3.6621094E-4c-3.0517578E-5 1.373291E-4 -1.0681152E-4 2.4414062E-4 -2.1362305E-4 3.2043457E-4l-27.259247 17.295715l0 0c-13.976959 8.868546 -32.54149 4.7557526 -41.46501 -9.1861725l-16.157486 -25.244095l0 0c-1.5258789E-4 -2.2888184E-4 -7.6293945E-5 -5.340576E-4 1.5258789E-4 -6.866455E-4l27.259247 -17.295715l0 0c13.976959 -8.868553 32.54149 -4.75576 41.46501 9.1861725z" fill-rule="evenodd"/><path stroke="#000000" stroke-width="1.0" stroke-linejoin="round" stroke-linecap="butt" d="m220.86528 132.11795l16.157486 25.244095c6.1035156E-5 1.0681152E-4 9.1552734E-5 2.4414062E-4 6.1035156E-5 3.6621094E-4c-3.0517578E-5 1.373291E-4 -1.0681152E-4 2.4414062E-4 -2.1362305E-4 3.2043457E-4l-27.259247 17.295715l0 0c-13.976959 8.868546 -32.54149 4.7557526 -41.46501 -9.1861725l-16.157486 -25.244095l0 0c-1.5258789E-4 -2.2888184E-4 -7.6293945E-5 -5.340576E-4 1.5258789E-4 -6.866455E-4l27.259247 -17.295715l0 0c13.976959 -8.868553 32.54149 -4.75576 41.46501 9.1861725z" fill-rule="evenodd"/></g><path fill="#000000" fill-opacity="0.0" d="m361.12167 140.11859l372.28348 0l0 51.716537l-372.28348 0z" fill-rule="evenodd"/><path fill="#ffffff" d="m510.18536 156.90608l-2.875 -0.34375l0 -1.65625l8.3125 0l3.171875 11.46875l0.75 3.125l0.640625 -3.125l3.140625 -11.46875l8.234375 0l0 1.65625l-2.90625 0.34375l2.140625 15.921875l2.15625 0.296875l0 1.59375l-8.5 0l0 -1.59375l2.34375 -0.265625l-1.171875 -11.6875l-0.515625 -4.875l-0.984375 4.109375l-3.859375 13.484375l-2.828125 0l-3.9375 -12.796875l-1.375 -4.796875l-0.390625 4.875l-1.015625 11.6875l2.6875 0.265625l0 1.59375l-7.40625 0l0 -1.59375l2.234375 -0.265625l1.953125 -15.953125zm23.749939 13.65625q0 -2.421875 2.4375 -3.640625q2.4375 -1.234375 6.3125 -1.265625l0 -0.609375q0 -1.09375 -0.234375 -1.703125q-0.21875 -0.625 -0.828125 -0.921875q-0.59375 -0.3125 -1.75 -0.3125q-1.296875 0 -2.34375 0.34375q-1.03125 0.328125 -2.15625 0.859375l-0.828125 -1.703125q0.40625 -0.359375 1.34375 -0.828125q0.953125 -0.484375 2.25 -0.84375q1.3125 -0.359375 2.703125 -0.359375q2.046875 0 3.203125 0.53125q1.171875 0.53125 1.671875 1.703125q0.5 1.171875 0.5 3.15625l0 8.15625l1.453125 0l0 1.484375q-0.546875 0.140625 -1.53125 0.265625q-0.984375 0.140625 -1.734375 0.140625q-0.90625 0 -1.21875 -0.265625q-0.296875 -0.265625 -0.296875 -1.09375l0 -0.71875q-0.71875 0.796875 -1.875 1.4375q-1.140625 0.640625 -2.578125 0.640625q-1.21875 0 -2.25 -0.515625q-1.03125 -0.53125 -1.640625 -1.53125q-0.609375 -1.0 -0.609375 -2.40625zm6.21875 2.234375q0.546875 0 1.265625 -0.328125q0.71875 -0.328125 1.265625 -0.8125l0 -4.375q-2.40625 0 -3.59375 0.8125q-1.1875 0.8125 -1.1875 2.09375q0 1.28125 0.59375 1.953125q0.609375 0.65625 1.65625 0.65625zm15.618591 9.125q-3.578125 0 -5.1875 -1.125q-1.59375 -1.125 -1.59375 -3.046875q0 -1.078125 0.734375 -2.0625q0.734375 -0.96875 1.78125 -1.453125q-1.234375 -0.71875 -1.234375 -2.28125q0 -0.90625 0.578125 -1.71875q0.59375 -0.8125 1.53125 -1.265625q-1.46875 -0.5625 -2.1875 -1.703125q-0.71875 -1.15625 -0.71875 -2.734375q0 -1.515625 0.890625 -2.640625q0.890625 -1.140625 2.390625 -1.75q1.515625 -0.609375 3.28125 -0.609375q3.109375 0 4.640625 1.1875q0.34375 -0.453125 1.15625 -0.84375q0.828125 -0.40625 1.71875 -0.40625l0.921875 0l0 2.90625l-2.734375 0q0.390625 0.859375 0.390625 1.8125q0.03125 2.421875 -1.703125 3.875q-1.734375 1.453125 -4.734375 1.453125q-1.265625 0 -2.109375 -0.1875q-0.265625 0.359375 -0.421875 0.75q-0.140625 0.375 -0.140625 0.671875q0 0.875 0.625 1.203125q0.625 0.3125 2.25 0.3125l2.859375 0q5.4375 0 5.4375 3.953125q0 1.640625 -1.171875 2.9375q-1.171875 1.3125 -3.125 2.03125q-1.9375 0.734375 -4.125 0.734375zm0.1875 -14.046875q2.46875 0 2.46875 -3.390625q0 -1.734375 -0.625 -2.546875q-0.625 -0.8125 -1.90625 -0.8125q-1.25 0 -1.9375 0.8125q-0.671875 0.8125 -0.671875 2.4375q0 3.5 2.671875 3.5zm0.203125 12.203125q1.6875 0 2.90625 -0.8125q1.234375 -0.8125 1.234375 -2.25q0 -1.15625 -0.609375 -1.65625q-0.59375 -0.5 -2.140625 -0.5l-2.90625 0q-0.671875 0 -1.234375 -0.09375q-0.71875 0.96875 -0.71875 2.296875q0 1.46875 0.796875 2.234375q0.8125 0.78125 2.671875 0.78125zm12.908264 -22.609375q-0.96875 0 -1.53125 -0.546875q-0.546875 -0.5625 -0.546875 -1.453125q0 -1.015625 0.640625 -1.671875q0.640625 -0.671875 1.703125 -0.671875q1.0625 0 1.625 0.578125q0.5625 0.578125 0.5625 1.421875q0 1.0625 -0.640625 1.703125q-0.640625 0.640625 -1.796875 0.640625l-0.015625 0zm-1.421875 4.96875l-1.890625 -0.515625l0 -1.78125l4.875 -0.59375l0.0625 0l0.75 0.53125l0 12.828125l1.78125 0.21875l0 1.59375l-7.4375 0l0 -1.59375l1.859375 -0.25l0 -10.4375zm14.218445 12.578125q-3.53125 0 -5.25 -2.0625q-1.71875 -2.078125 -1.71875 -5.640625q0 -2.40625 0.890625 -4.15625q0.90625 -1.765625 2.53125 -2.6875q1.625 -0.9375 3.75 -0.9375q2.671875 0 4.109375 1.40625q1.4375 1.390625 1.5 3.96875q0 1.765625 -0.21875 2.609375l-8.671875 0q0.109375 2.4375 1.140625 3.78125q1.046875 1.34375 2.96875 1.34375q1.046875 0 2.140625 -0.34375q1.109375 -0.34375 1.75 -0.828125l0.671875 1.46875q-0.71875 0.765625 -2.34375 1.421875q-1.609375 0.65625 -3.25 0.65625zm2.078125 -9.09375q0.046875 -0.75 0.046875 -1.140625q0 -3.546875 -2.375 -3.546875q-1.296875 0 -2.015625 1.046875q-0.71875 1.03125 -0.8125 3.640625l5.15625 0z" fill-rule="nonzero"/></g></svg>