<svg version="1.1" viewBox="0.0 0.0 404.83989501312334 243.54855643044618" fill="none" stroke="none" stroke-linecap="square" stroke-miterlimit="10" xmlns:xlink="http://www.w3.org/1999/xlink" xmlns="http://www.w3.org/2000/svg"><clipPath id="p.0"><path d="m0 0l404.8399 0l0 243.54855l-404.8399 0l0 -243.54855z" clip-rule="nonzero"/></clipPath><g clip-path="url(#p.0)"><path fill="#000000" fill-opacity="0.0" d="m0 0l404.8399 0l0 243.54855l-404.8399 0z" fill-rule="evenodd"/><path fill="#a2c4c9" d="m225.03067 11.224637l6.517624 22.346004l-40.508377 9.0424385l-6.517639 -22.346z" fill-rule="evenodd"/><path fill="#a2c4c9" d="m182.66579 17.565811l16.421326 17.840973l-36.217667 27.091755l-16.421326 -17.840973z" fill-rule="evenodd"/><path fill="#a2c4c9" d="m229.60144 30.318058l13.813568 13.092731l-32.723145 10.342133l-13.813568 -13.092728z" fill-rule="evenodd"/><path fill="#a2c4c9" d="m220.2946 28.949053l11.238159 10.651712l-48.03253 15.180656l-11.238159 -10.6517105z" fill-rule="evenodd"/><path fill="#a2c4c9" d="m243.00923 45.01731l-3.5872803 14.15366l-41.737885 -9.273018l3.5872803 -14.15366z" fill-rule="evenodd"/><path fill="#434343" d="m235.5796 30.84831l0 0l-2.0724182 2.523306l-23.395203 -0.28145218l0 0l-1.0763702 -5.1094303l0 0l23.395203 0.2814541z" fill-rule="evenodd"/><path fill="#434343" d="m209.01448 27.977888l5.4055023 4.2590466l-38.460754 18.468182l-5.4055023 -4.2590446z" fill-rule="evenodd"/><path fill="#434343" d="m245.00232 42.196644l0 0l-0.89334106 3.3386421l-31.083527 8.641708l0 0l-4.770706 -4.8542137l0 0l31.083527 -8.641712z" fill-rule="evenodd"/><path fill="#434343" d="m234.22247 13.54681l0 0l-2.0724182 2.5233078l-23.395187 -0.28145313l0 0l-1.0763855 -5.1094303l0 0l23.395203 0.2814541z" fill-rule="evenodd"/><path fill="#434343" d="m174.89224 18.177465l6.440979 2.8467922l-32.549026 27.79493l-6.4409943 -2.8467941z" fill-rule="evenodd"/><path fill="#434343" d="m208.02974 10.67403l3.7946472 4.778495l-33.79991 7.864045l-3.7946472 -4.778496z" fill-rule="evenodd"/><path fill="#7c969a" d="m250.7579 201.85295l-54.17668 -5.7730255l47.20587 -28.286743z" fill-rule="evenodd"/><path fill="#7c969a" d="m176.47098 161.86334l51.369003 -22.494568l12.251953 29.292145l-51.369003 22.494583z" fill-rule="evenodd"/><path fill="#a2c4c9" d="m166.13026 163.85713l16.465149 -7.2133484l9.598373 22.956635l-16.465134 7.2133636z" fill-rule="evenodd"/><path fill="#a2c4c9" d="m159.33736 143.2354l39.87291 -24.520348l13.385986 22.49395l-39.87291 24.520355z" fill-rule="evenodd"/><path fill="#a2c4c9" d="m156.29918 115.944466l42.218704 -9.375381l3.4816895 17.01178l-42.21869 9.375374z" fill-rule="evenodd"/><path fill="#434343" d="m147.9273 116.53743l11.609253 -2.5780258l12.282257 60.011772l-11.609253 2.5780182z" fill-rule="evenodd"/><path fill="#434343" d="m159.8835 176.61378l7.3792114 -9.433777l37.2444 29.304688l-7.379196 9.433777z" fill-rule="evenodd"/><path fill="#434343" d="m261.10767 202.8683l0 0l-6.33107 5.6782837l-58.210327 -2.7924805l0 0l0.72465515 -11.92926l0 0l58.21031 2.7924805z" fill-rule="evenodd"/><path fill="#434343" d="m248.64989 163.31833l0 0l-2.6128082 8.013412l-52.31476 27.020828l0 0l-5.296295 -10.592209l0 0l52.31476 -27.020828z" fill-rule="evenodd"/><path fill="#434343" d="m235.93727 137.22073l0 0l-3.3794556 7.752945l-62.83159 25.189377l0 0l-4.2665405 -11.08577l0 0l62.83159 -25.189362z" fill-rule="evenodd"/><path fill="#434343" d="m210.71227 119.81873l0 0l-3.8905792 7.5251236l-46.780334 15.249588l0 0l-3.5316315 -11.362488l0 0l46.780334 -15.24958z" fill-rule="evenodd"/><path fill="#a2c4c9" d="m101.08206 26.306719l14.700752 8.02883l-23.373482 17.888134l-14.70076 -8.0288315z" fill-rule="evenodd"/><path fill="#a2c4c9" d="m93.24016 27.54662l11.959938 6.531929l-24.538399 18.779663l-11.959938 -6.531929z" fill-rule="evenodd"/><path fill="#a2c4c9" d="m115.9023 35.876587l1.0426941 13.579994l-36.032555 2.7688637l-1.0427017 -13.579994z" fill-rule="evenodd"/><path fill="#434343" d="m106.02211 25.198051l0 0l-1.170929 2.865757l-18.627998 5.8737907l0 0l-2.277748 -4.2748566l0 0l18.627998 -5.8737907z" fill-rule="evenodd"/><path fill="#434343" d="m83.92785 29.665592l5.513344 2.370449l-20.490479 21.23685l-5.5133476 -2.370449z" fill-rule="evenodd"/><path fill="#434343" d="m116.71934 32.832027l0 0l0.1305542 3.2706833l-22.452087 15.8819275l0 0l-5.1691666 -3.0695572l0 0l22.452087 -15.8819275z" fill-rule="evenodd"/><path fill="#434343" d="m120.98546 47.37585l-0.15477753 4.7204933l-51.313515 1.6922913l0.1547699 -4.7204933z" fill-rule="evenodd"/><path fill="#2a2a2a" d="m94.95081 129.14468l0 0c0.12529755 0.22970581 -1.1200256 1.3078003 -3.4620132 2.9971008c-2.3419876 1.6893158 -5.588806 3.8514404 -9.026176 6.0107727l0 0c-7.157959 4.4965515 -13.17215 7.753937 -13.433067 7.275589l0 0c-0.2609253 -0.47836304 5.3302307 -4.511322 12.488182 -9.007874l0 0c7.157959 -4.4965515 13.17215 -7.753952 13.433075 -7.275589z" fill-rule="evenodd"/><path fill="#8caaae" d="m204.3659 142.26683l-6.692917 15.496063l-16.582672 -6.299225z" fill-rule="evenodd"/><path fill="#8caaae" d="m275.8504 122.57774l-4.519684 17.338577l-17.307083 -4.582672z" fill-rule="evenodd"/><path fill="#8caaae" d="m261.28583 130.71817l-7.165344 16.425201l-16.362213 -7.259842z" fill-rule="evenodd"/><path fill="#8caaae" d="m48.118095 145.3669l-16.062992 7.388153l-7.874016 -14.996643z" fill-rule="evenodd"/><path fill="#8caaae" d="m63.28607 150.66199l-16.062992 7.388153l-7.874016 -14.996643z" fill-rule="evenodd"/><path fill="#8caaae" d="m81.6684 153.24515l-14.755905 9.473892l-10.094486 -13.792221z" fill-rule="evenodd"/><path fill="#8caaae" d="m102.02721 152.44078l-11.889763 12.484955l-13.338585 -11.133652z" fill-rule="evenodd"/><path fill="#8caaae" d="m116.39204 150.32079l-11.889763 12.484955l-13.338585 -11.133652z" fill-rule="evenodd"/><path fill="#8caaae" d="m136.27634 150.75633l-12.629921 11.838669l-12.629921 -11.838669z" fill-rule="evenodd"/><path fill="#8caaae" d="m155.7724 150.98155l-12.629913 11.838669l-12.629929 -11.838669z" fill-rule="evenodd"/><path fill="#8caaae" d="m220.4184 140.52829l-6.692917 15.496048l-16.582672 -6.301239z" fill-rule="evenodd"/><path fill="#8caaae" d="m233.75172 135.5539l-6.692917 15.496033l-16.582672 -6.3012238z" fill-rule="evenodd"/><path fill="#8caaae" d="m247.37402 135.5537l-8.881897 14.511932l-15.496048 -8.3428955z" fill-rule="evenodd"/><path fill="#434343" d="m13.13087 99.02272l0 0c0 -29.536018 63.039715 -53.479694 140.80315 -53.479694l0 0c77.76343 0 140.80316 23.943676 140.80316 53.479694l0 0c0 29.536026 -63.039734 53.47969 -140.80316 53.47969l0 0c-77.763435 0 -140.80315 -23.943665 -140.80315 -53.47969z" fill-rule="evenodd"/><path fill="#8caaae" d="m32.955082 142.23372l-17.795277 1.9094696l-1.984251 -16.597656z" fill-rule="evenodd"/><path fill="#000000" d="m12.225358 84.83638l121.76378 0l0 44.06456l-121.76378 0z" fill-rule="evenodd"/><path fill="#a2c4c9" d="m2.6224349 85.73871l9.858268 23.64798l9.858268 -23.64798z" fill-rule="evenodd"/><path fill="#a2c4c9" d="m17.788097 85.73871l9.858267 23.64798l9.858267 -23.64798z" fill-rule="evenodd"/><path fill="#a2c4c9" d="m48.118645 85.73871l9.858269 23.64798l9.858269 -23.64798z" fill-rule="evenodd"/><path fill="#a2c4c9" d="m32.95376 85.73871l9.858269 23.64798l9.858269 -23.64798z" fill-rule="evenodd"/><path fill="#a2c4c9" d="m63.285084 85.73871l9.858265 23.64798l9.858269 -23.64798z" fill-rule="evenodd"/><path fill="#a2c4c9" d="m79.09962 85.739746l8.598427 24.83773l11.055115 -22.281982z" fill-rule="evenodd"/><path fill="#a2c4c9" d="m92.51739 87.53572l7.480316 25.70433l12.015747 -21.062859z" fill-rule="evenodd"/><path fill="#a2c4c9" d="m118.73151 93.71806l-1.8897629 28.14257l17.133858 -8.460403z" fill-rule="evenodd"/><path fill="#a2c4c9" d="m104.8328 89.55415l5.2126007 27.055649l13.71653 -18.301483z" fill-rule="evenodd"/><path fill="#a2c4c9" d="m88.89837 124.5186l-9.858269 -23.633293l-9.858269 23.662674z" fill-rule="evenodd"/><path fill="#a2c4c9" d="m75.27289 124.53264l-9.858269 -23.647987l-9.858265 23.647987z" fill-rule="evenodd"/><path fill="#a2c4c9" d="m60.107227 124.53264l-9.858269 -23.647987l-9.858269 23.647987z" fill-rule="evenodd"/><path fill="#a2c4c9" d="m29.77668 124.53264l-9.858269 -23.647987l-9.858268 23.647987z" fill-rule="evenodd"/><path fill="#a2c4c9" d="m44.941566 124.53264l-9.858269 -23.647987l-9.858269 23.647987z" fill-rule="evenodd"/><path fill="#a2c4c9" d="m132.94429 124.439125l-14.740158 -2.5263672l-0.69290924 13.983162z" fill-rule="evenodd"/><path fill="#a2c4c9" d="m100.97561 130.43826l-6.535431 -26.335915l-12.771652 19.902496z" fill-rule="evenodd"/><path fill="#a2c4c9" d="m109.98295 137.75702l-4.0944824 -27.525673l-14.425201 16.832664z" fill-rule="evenodd"/><path fill="#a2c4c9" d="m117.27643 143.7812l-1.5590591 -28.142578l-15.795273 13.4543915z" fill-rule="evenodd"/><path fill="#434343" d="m8.960834 124.443085l0 0c0.71318626 -6.952034 21.935596 -7.2808456 47.401573 -0.7344055l0 0c25.465984 6.5464325 45.532085 17.489105 44.818897 24.441147l0 0c-0.7131882 6.9520416 -21.935593 7.280838 -47.401573 0.7344055l0 0c-25.46598 -6.5464325 -45.532085 -17.489105 -44.818897 -24.441147z" fill-rule="evenodd"/><path fill="#434343" d="m2.0943203 86.83144l0 0c-1.156754 -7.755127 18.274794 -21.597878 43.401573 -30.918636l0 0c25.126778 -9.320759 46.4338 -10.589951 47.590553 -2.8348198l0 0c1.1567535 7.7551346 -18.274796 21.597878 -43.401577 30.91864l0 0c-25.126781 9.320763 -46.433796 10.589951 -47.590553 2.834816z" fill-rule="evenodd"/><path fill="#434343" d="m22.935253 76.870445l0 0c-0.33050156 -9.304535 20.292603 -18.714973 46.062992 -21.018799l0 0c25.770386 -2.3038254 46.929344 3.3713722 47.259842 12.675903l0 0c0.33049774 9.304543 -20.292603 18.714973 -46.062996 21.018799l0 0c-25.770386 2.3038254 -46.929337 -3.3713684 -47.25984 -12.675903z" fill-rule="evenodd"/><path fill="#434343" d="m22.877533 135.48576l0 0c0 -8.006607 20.919231 -14.47094 46.72441 -14.438492l0 0c25.805176 0.032455444 46.72441 6.5493927 46.72441 14.556l0 0c0 8.006607 -20.919235 14.470932 -46.72441 14.438492l0 0c-25.80518 -0.032455444 -46.72441 -6.5493927 -46.72441 -14.556z" fill-rule="evenodd"/><path fill="#434343" d="m32.317223 137.01372c0 -8.8502655 20.919231 -15.998505 46.72441 -15.966057l0 0c25.805176 0.032447815 46.724403 7.2332993 46.724403 16.083565l0 0c0 8.8502655 -20.919228 15.998505 -46.724403 15.966064l0 0c-25.80518 -0.032455444 -46.72441 -7.233307 -46.72441 -16.083572z" fill-rule="evenodd"/><path fill="#434343" d="m57.874924 62.239834l0 0c1.1741486 -12.314114 22.840744 -17.351425 48.3937 -11.251156l0 0c25.552956 6.100273 45.31588 21.028076 44.14173 33.342194l0 0c-1.1741486 12.31411 -22.840744 17.351418 -48.3937 11.251152l0 0c-25.552956 -6.100273 -45.31588 -21.028084 -44.14173 -33.34219z" fill-rule="evenodd"/><path fill="#434343" d="m12.225102 87.61629l79.244095 0l0 2.5851212l-79.244095 0z" fill-rule="evenodd"/><path fill="#434343" d="m18.350996 120.02831l79.244095 0l0 2.5851212l-79.244095 0z" fill-rule="evenodd"/><path fill="#434343" d="m76.62851 134.52556l0 0c0 -8.006607 9.595909 -14.490669 21.433067 -14.482559l0 0c11.837158 0.008117676 21.433067 6.5053253 21.433067 14.511932l0 0c0 8.006607 -9.595909 14.490662 -21.433067 14.482559l0 0c-11.837158 -0.008117676 -21.433067 -6.5053253 -21.433067 -14.511932z" fill-rule="evenodd"/><path fill="#434343" d="m133.12035 100.582115l0 0c0 -12.168091 6.042389 -22.03228 13.496063 -22.03228l0 0c3.5793762 0 7.012146 2.321251 9.543152 6.453102c2.5310059 4.131859 3.9529114 9.735855 3.9529114 15.579178l0 0c0 12.168098 -6.042404 22.032288 -13.496063 22.032288l0 0c-7.4536743 0 -13.496063 -9.864189 -13.496063 -22.032288z" fill-rule="evenodd"/><path fill="#434343" d="m127.73052 85.011215l16.913383 30.463303l-8.598419 11.868057l-16.913391 -30.463303z" fill-rule="evenodd"/><path fill="#434343" d="m113.79921 132.23729l19.590546 -26.144981l7.401581 13.748146l-19.590553 26.144974z" fill-rule="evenodd"/><path fill="#434343" d="m122.29962 132.67337l0 0c0 -10.959404 8.4748535 -19.84375 18.929123 -19.84375l0 0c5.0203247 0 9.835022 2.0906754 13.384933 5.8121033c3.5498962 3.7214203 5.5442047 8.768753 5.5442047 14.031647l0 0c0 10.959396 -8.4748535 19.843735 -18.929138 19.843735l0 0c-10.454269 0 -18.929123 -8.884338 -18.929123 -19.843735z" fill-rule="evenodd"/><path fill="#434343" d="m91.46957 138.69778l48.661415 0.029373169l0 13.777527l-48.661415 -0.029388428z" fill-rule="evenodd"/><path fill="#434343" d="m76.80028 48.079l48.661415 0.029376984l0 13.777519l-48.661415 -0.029376984z" fill-rule="evenodd"/><path fill="#2a2a2a" d="m163.1051 64.60224c0.13365173 -0.31943512 5.380356 1.2219238 14.585876 4.2850113c9.205536 3.0630798 21.615814 7.396965 34.500748 12.048256l0 0c26.831467 9.685799 48.35704 18.076935 48.07875 18.742126l0 0c-0.2783203 0.66519165 -22.255157 -6.647461 -49.086624 -16.333267l0 0c-26.831482 -9.685799 -48.357056 -18.076942 -48.07875 -18.742126z" fill-rule="evenodd"/><path fill="#2a2a2a" d="m234.54333 66.11896l0 0c0.20046997 0.28826904 -2.9952698 2.6414795 -8.884201 6.5419464c-5.8889465 3.9004745 -13.988693 9.028694 -22.51738 14.256523l0 0c-17.760086 10.886391 -32.49591 19.224922 -32.91339 18.624626l0 0c-0.4174652 -0.600296 13.641495 -9.9120865 31.40158 -20.798477l0 0c17.760086 -10.886383 32.49591 -19.224915 32.91339 -18.624619z" fill-rule="evenodd"/><path fill="#2a2a2a" d="m64.99701 56.86259l0 0c0.22971344 -0.12465668 1.3044891 1.1222343 2.9878845 3.4663734c1.6833954 2.344139 3.8375244 5.593506 5.9884872 9.033279l0 0c4.479164 7.1629486 7.722458 13.180107 7.244095 13.43969l0 0c-0.4783554 0.25959015 -4.4972153 -5.336693 -8.976372 -12.499649l0 0c-4.479164 -7.1629486 -7.722458 -13.180107 -7.244095 -13.439693z" fill-rule="evenodd"/><path fill="#2a2a2a" d="m93.48522 69.478806l0 0c0 0.24931335 -2.2896423 0.5023422 -6.3652344 0.7034302c-4.0755997 0.20108032 -9.603287 0.33374786 -15.36705 0.36880493l0 0c-12.002407 0.073013306 -21.73228 -0.2886734 -21.73228 -0.80784607l0 0c0 -0.51917267 9.729874 -0.99922943 21.73228 -1.0722427l0 0c12.002411 -0.073005676 21.732285 0.28868103 21.732285 0.8078537z" fill-rule="evenodd"/><path fill="#a2c4c9" d="m233.29507 225.4801l-53.90335 -7.34848l48.331482 -26.899902z" fill-rule="evenodd"/><path fill="#a2c4c9" d="m160.69582 183.3438l52.25467 -20.988937l11.044556 29.636612l-52.25467 20.988937z" fill-rule="evenodd"/><path fill="#a2c4c9" d="m150.28056 185.03557l16.74916 -6.7307587l8.65213 23.226501l-16.74916 6.7307587z" fill-rule="evenodd"/><path fill="#a2c4c9" d="m144.33641 164.2247l40.84935 -23.348679l12.456085 22.874313l-40.84935 23.348679z" fill-rule="evenodd"/><path fill="#a2c4c9" d="m142.41742 136.85681l42.573593 -8.141785l2.7829895 17.105988l-42.57361 8.1418z" fill-rule="evenodd"/><path fill="#434343" d="m134.02701 137.2057l11.706833 -2.2388153l9.817383 60.344116l-11.706833 2.2388153z" fill-rule="evenodd"/><path fill="#434343" d="m143.5159 197.60489l7.760315 -9.214874l36.01941 30.377045l-7.760315 9.214874z" fill-rule="evenodd"/><path fill="#434343" d="m243.5962 226.79646l0 0l-6.570801 5.4906006l-58.044617 -4.485779l0 0l1.2124634 -11.903107l0 0l58.044617 4.485779z" fill-rule="evenodd"/><path fill="#434343" d="m232.76582 186.90039l0 0l-2.8902588 7.9106445l-53.433807 25.509003l0 0l-4.8591003 -10.741989l0 0l53.433807 -25.509003z" fill-rule="evenodd"/><path fill="#434343" d="m221.13016 160.44356l0 0l-3.652481 7.6358795l-63.861725 23.36412l0 0l-3.8098602 -11.205353l0 0l63.86174 -23.364105z" fill-rule="evenodd"/><path fill="#434343" d="m196.63472 142.31424l0 0l-4.1601562 7.3981476l-47.408356 13.891129l0 0l-3.0641327 -11.4605255l0 0l47.408356 -13.891144z" fill-rule="evenodd"/><path fill="#434343" d="m184.92902 118.70312l2.1107635 11.667183l-52.20517 10.898331l-2.1107635 -11.667175z" fill-rule="evenodd"/><path fill="#a2c4c9" d="m381.0406 137.91315l7.011383 -5.582245l-7.799011 -3.2166138l-7.011383 5.58226z" fill-rule="evenodd"/><path fill="#a2c4c9" d="m362.4956 167.12732l8.412445 -21.701645l-39.58197 -12.492142l-8.412445 21.701645z" fill-rule="evenodd"/><path fill="#a2c4c9" d="m320.83203 157.16664l17.89264 -16.361816l-33.75717 -30.104713l-17.89264 16.361816z" fill-rule="evenodd"/><path fill="#a2c4c9" d="m368.05606 148.23558l15.349335 -12.22406l-31.102081 -12.864365l-15.349335 12.224045z" fill-rule="evenodd"/><path fill="#a2c4c9" d="m359.29742 149.0629l16.31659 -12.994339l-59.04297 -24.421219l-16.31659 12.994339z" fill-rule="evenodd"/><path fill="#434343" d="m374.69064 148.48447l0 0l-1.8478394 -2.6920319l-23.333008 -1.7315674l0 0l-1.5111389 4.997696l0 0l23.333008 1.7315521z" fill-rule="evenodd"/><path fill="#434343" d="m347.97806 149.06l5.751251 -3.7781982l-49.10309 -29.036575l-5.7512207 3.7781982z" fill-rule="evenodd"/><path fill="#434343" d="m390.35635 132.98767l0 0l-1.278717 -3.217743l-27.722656 -4.3635178l0 0l-4.1583557 5.3784103l0 0l27.722687 4.3635254z" fill-rule="evenodd"/><path fill="#434343" d="m371.8528 165.60432l0 0l-1.8478394 -2.692047l-23.333008 -1.7315521l0 0l-1.5111694 4.997696l0 0l23.333008 1.7315521z" fill-rule="evenodd"/><path fill="#434343" d="m313.1398 155.88878l6.6615906 -2.282196l-30.041718 -30.489761l-6.661621 2.2822037z" fill-rule="evenodd"/><path fill="#434343" d="m345.5103 166.2138l4.1909485 -4.4342194l-32.99951 -10.741257l-4.1909485 4.4342346z" fill-rule="evenodd"/><path fill="#434343" d="m357.34744 130.83966l5.532898 -4.736206l-52.13565 -22.442978l-5.5328674 4.7361984z" fill-rule="evenodd"/><path fill="#a2c4c9" d="m388.09723 80.277756l6.1865234 6.484421l-8.164185 2.1254044l-6.1865234 -6.484421z" fill-rule="evenodd"/><path fill="#a2c4c9" d="m373.70016 48.811764l5.3810425 22.64452l-40.913696 6.9896774l-5.3810425 -22.64452z" fill-rule="evenodd"/><path fill="#a2c4c9" d="m331.0687 53.010254l15.499725 18.644424l-37.539795 25.231056l-15.499695 -18.644424z" fill-rule="evenodd"/><path fill="#a2c4c9" d="m376.63812 68.284424l13.543121 14.199066l-32.563324 8.512375l-13.543152 -14.199059z" fill-rule="evenodd"/><path fill="#a2c4c9" d="m368.07355 66.27295l14.396545 15.093796l-61.816956 16.159569l-14.396545 -15.093803z" fill-rule="evenodd"/><path fill="#434343" d="m383.24487 68.940674l0 0l-2.196991 2.4155502l-23.351593 -1.459671l0 0l-0.8170166 -5.1568375l0 0l23.351593 1.459671z" fill-rule="evenodd"/><path fill="#434343" d="m356.85907 64.73549l5.1836243 4.525673l-52.597565 22.084602l-5.1836243 -4.525673z" fill-rule="evenodd"/><path fill="#434343" d="m396.65607 86.42509l0 0l-1.7046814 3.0138016l-28.058594 0.5504761l0 0l-3.3877563 -5.894249l0 0l28.058594 -0.5504761z" fill-rule="evenodd"/><path fill="#434343" d="m382.76306 51.593895l0 0l-2.1969604 2.4155502l-23.351593 -1.4596748l0 0l-0.8170471 -5.1568336l0 0l23.351593 1.4596748z" fill-rule="evenodd"/><path fill="#434343" d="m323.2741 53.22948l6.289093 3.1674728l-33.911285 26.118114l-6.289093 -3.1674728z" fill-rule="evenodd"/><path fill="#434343" d="m356.74857 47.405434l3.5485535 4.9632797l-34.154236 6.1508064l-3.5485535 -4.9632797z" fill-rule="evenodd"/><path fill="#434343" d="m363.66193 84.06132l4.836914 5.445053l-54.70468 15.139671l-4.836914 -5.4450455z" fill-rule="evenodd"/><path fill="#434343" d="m348.21643 119.57333l0 0c-23.952637 -1.635109 -42.9823 -8.629341 -42.503937 -15.622047c0.47836304 -6.9927063 20.28357 -11.335899 44.236206 -9.70079c-13.855499 2.0570755 -22.210388 6.1995163 -22.551178 11.181107c-0.34075928 4.9815903 7.3723145 10.220894 20.818909 14.141731z" fill-rule="evenodd"/><path fill="#434343" d="m258.36755 63.311924l69.37222 33.64001l-1.1066284 16.184547l-73.30496 23.876228z" fill-rule="evenodd"/></g></svg>