<svg version="1.1" viewBox="0.0 0.0 537.7742782152231 172.78740157480314" fill="none" stroke="none" stroke-linecap="square" stroke-miterlimit="10" xmlns:xlink="http://www.w3.org/1999/xlink" xmlns="http://www.w3.org/2000/svg"><clipPath id="p.0"><path d="m0 0l537.7743 0l0 172.7874l-537.7743 0l0 -172.7874z" clip-rule="nonzero"/></clipPath><g clip-path="url(#p.0)"><path fill="#000000" fill-opacity="0.0" d="m0 0l537.7743 0l0 172.7874l-537.7743 0z" fill-rule="evenodd"/><path fill="#434343" d="m0 0l537.2598 0l0 172.18898l-537.2598 0z" fill-rule="evenodd"/><path stroke="#434343" stroke-width="1.0" stroke-linejoin="round" stroke-linecap="butt" d="m0 0l537.2598 0l0 172.18898l-537.2598 0z" fill-rule="evenodd"/><path fill="#434343" d="m335.40683 7.1653543l96.8819 0l0 157.85826l-96.8819 0z" fill-rule="evenodd"/><path stroke="#ffffff" stroke-width="1.0" stroke-linejoin="round" stroke-linecap="butt" d="m335.40683 7.1653543l96.8819 0l0 157.85826l-96.8819 0z" fill-rule="evenodd"/><path fill="#63a79d" d="m349.17584 13.238845l9.039368 0l0 143.81102l-9.039368 0z" fill-rule="evenodd"/><path stroke="#63a79d" stroke-width="1.0" stroke-linejoin="round" stroke-linecap="butt" d="m349.17584 13.238845l9.039368 0l0 143.81102l-9.039368 0z" fill-rule="evenodd"/><path fill="#999999" d="m368.89764 126.32809l9.039368 0l0 30.708656l-9.039368 0z" fill-rule="evenodd"/><path stroke="#999999" stroke-width="1.0" stroke-linejoin="round" stroke-linecap="butt" d="m368.89764 126.32809l9.039368 0l0 30.708656l-9.039368 0z" fill-rule="evenodd"/><path fill="#999999" d="m388.61942 134.76149l9.039368 0l0 22.267715l-9.039368 0z" fill-rule="evenodd"/><path stroke="#999999" stroke-width="1.0" stroke-linejoin="round" stroke-linecap="butt" d="m388.61942 134.76149l9.039368 0l0 22.267715l-9.039368 0z" fill-rule="evenodd"/><path fill="#999999" d="m408.34122 142.21786l9.039368 0l0 14.67717l-9.039368 0z" fill-rule="evenodd"/><path stroke="#999999" stroke-width="1.0" stroke-linejoin="round" stroke-linecap="butt" d="m408.34122 142.21786l9.039368 0l0 14.67717l-9.039368 0z" fill-rule="evenodd"/><path fill="#434343" d="m318.66666 50.598427l-300.992 0l-5.1182117 -5.1182137l0 -25.59045l306.11023 0z" fill-rule="evenodd"/><path stroke="#ffffff" stroke-width="1.0" stroke-linejoin="round" stroke-linecap="butt" d="m318.66666 50.598427l-300.992 0l-5.1182117 -5.1182137l0 -25.59045l306.11023 0z" fill-rule="evenodd"/><path fill="#434343" d="m147.98557 58.031498l170.67715 0l0 30.70866l-170.67715 0z" fill-rule="evenodd"/><path stroke="#ffffff" stroke-width="1.0" stroke-linejoin="round" stroke-linecap="butt" d="m147.98557 58.031498l170.67715 0l0 30.70866l-170.67715 0z" fill-rule="evenodd"/><path fill="#434343" d="m147.98425 96.173225l170.67715 0l0 30.708664l-170.67715 0z" fill-rule="evenodd"/><path stroke="#ffffff" stroke-width="1.0" stroke-linejoin="round" stroke-linecap="butt" d="m147.98425 96.173225l170.67715 0l0 30.708664l-170.67715 0z" fill-rule="evenodd"/><path fill="#434343" d="m147.98557 134.31496l170.67715 0l0 30.708664l-170.67715 0z" fill-rule="evenodd"/><path stroke="#ffffff" stroke-width="1.0" stroke-linejoin="round" stroke-linecap="butt" d="m147.98557 134.31496l170.67715 0l0 30.708664l-170.67715 0z" fill-rule="evenodd"/><path fill="#434343" d="m368.89764 14.188976l48.472443 0l0 30.70866l-48.472443 0z" fill-rule="evenodd"/><path stroke="#ffffff" stroke-width="1.0" stroke-linejoin="round" stroke-linecap="butt" d="m368.89764 14.188976l48.472443 0l0 30.70866l-48.472443 0z" fill-rule="evenodd"/><path fill="#434343" d="m449.02887 6.2152233l75.90552 0l0 157.85826l-75.90552 0z" fill-rule="evenodd"/><path stroke="#ffffff" stroke-width="1.0" stroke-linejoin="round" stroke-linecap="butt" d="m449.02887 6.2152233l75.90552 0l0 157.85826l-75.90552 0z" fill-rule="evenodd"/><path fill="#63a79d" d="m477.94226 82.637794l40.031494 0l0 37.70079l-40.031494 0zm8.614258 8.61425l0 20.472282l22.802979 0l0 -20.472282z" fill-rule="evenodd"/><path stroke="#63a79d" stroke-width="1.0" stroke-linejoin="round" stroke-linecap="butt" d="m477.94226 82.637794l40.031494 0l0 37.70079l-40.031494 0zm8.614258 8.61425l0 20.472282l22.802979 0l0 -20.472282z" fill-rule="evenodd"/><path fill="#63a79d" d="m478.00504 156.08661l0 -6.572586l33.32837 0l0 -31.222687l6.577118 0l0 37.795273z" fill-rule="evenodd"/><path stroke="#63a79d" stroke-width="1.0" stroke-linejoin="round" stroke-linecap="butt" d="m478.00504 156.08661l0 -6.572586l33.32837 0l0 -31.222687l6.577118 0l0 37.795273z" fill-rule="evenodd"/><path fill="#b7b7b7" d="m457.98688 82.637794l9.039368 0l0 75.874016l-9.039368 0z" fill-rule="evenodd"/><path stroke="#ffffff" stroke-width="1.0" stroke-linejoin="round" stroke-linecap="butt" d="m457.98688 82.637794l9.039368 0l0 75.874016l-9.039368 0z" fill-rule="evenodd"/><path fill="#434343" d="m457.98688 28.593176l0 0c0 -6.923128 5.436035 -12.535433 12.141724 -12.535433l0 0c3.2201843 0 6.308502 1.320694 8.58551 3.6715431c2.277008 2.3508492 3.556244 5.5392857 3.556244 8.86389l0 0c0 6.923128 -5.4360657 12.535433 -12.141754 12.535433l0 0c-6.7056885 0 -12.141724 -5.6123047 -12.141724 -12.535433z" fill-rule="evenodd"/><path stroke="#ffffff" stroke-width="1.0" stroke-linejoin="round" stroke-linecap="butt" d="m457.98688 28.593176l0 0c0 -6.923128 5.436035 -12.535433 12.141724 -12.535433l0 0c3.2201843 0 6.308502 1.320694 8.58551 3.6715431c2.277008 2.3508492 3.556244 5.5392857 3.556244 8.86389l0 0c0 6.923128 -5.4360657 12.535433 -12.141754 12.535433l0 0c-6.7056885 0 -12.141724 -5.6123047 -12.141724 -12.535433z" fill-rule="evenodd"/><path fill="#434343" d="m12.556431 163.5853l63.763783 0l52.677162 -52.677162l0 -52.677162l-116.44095 0z" fill-rule="evenodd"/><path stroke="#ffffff" stroke-width="1.0" stroke-linejoin="round" stroke-linecap="butt" d="m12.556431 163.5853l63.763783 0l52.677162 -52.677162l0 -52.677162l-116.44095 0z" fill-rule="evenodd"/><path fill="#434343" d="m368.89764 51.464565l48.472443 0l0 30.70866l-48.472443 0z" fill-rule="evenodd"/><path stroke="#ffffff" stroke-width="1.0" stroke-linejoin="round" stroke-linecap="butt" d="m368.89764 51.464565l48.472443 0l0 30.70866l-48.472443 0z" fill-rule="evenodd"/><path fill="#434343" d="m368.89764 88.54593l48.472443 0l0 30.708664l-48.472443 0z" fill-rule="evenodd"/><path stroke="#ffffff" stroke-width="1.0" stroke-linejoin="round" stroke-linecap="butt" d="m368.89764 88.54593l48.472443 0l0 30.708664l-48.472443 0z" fill-rule="evenodd"/><path fill="#b7b7b7" d="m499.6404 16.057743l9.039368 0l0 8.692913l-9.039368 0z" fill-rule="evenodd"/><path stroke="#ffffff" stroke-width="1.0" stroke-linejoin="round" stroke-linecap="butt" d="m499.6404 16.057743l9.039368 0l0 8.692913l-9.039368 0z" fill-rule="evenodd"/><path fill="#b7b7b7" d="m499.6404 30.27559l9.039368 0l0 10.834646l-9.039368 0z" fill-rule="evenodd"/><path stroke="#ffffff" stroke-width="1.0" stroke-linejoin="round" stroke-linecap="butt" d="m499.6404 30.27559l9.039368 0l0 10.834646l-9.039368 0z" fill-rule="evenodd"/><path fill="#b7b7b7" d="m499.6404 46.700787l7.3070984 0l0 7.1811028l-7.3070984 0z" fill-rule="evenodd"/><path stroke="#ffffff" stroke-width="1.0" stroke-linejoin="round" stroke-linecap="butt" d="m499.6404 46.700787l7.3070984 0l0 7.1811028l-7.3070984 0z" fill-rule="evenodd"/><path fill="#63a79d" d="m22.20735 70.6273l7.307085 0l0 33.039368l-7.307085 0z" fill-rule="evenodd"/><path stroke="#63a79d" stroke-width="1.0" stroke-linejoin="round" stroke-linecap="butt" d="m22.20735 70.6273l7.307085 0l0 33.039368l-7.307085 0z" fill-rule="evenodd"/><path fill="#63a79d" d="m43.404198 70.6273l7.307087 0l0 33.039368l-7.307087 0z" fill-rule="evenodd"/><path stroke="#63a79d" stroke-width="1.0" stroke-linejoin="round" stroke-linecap="butt" d="m43.404198 70.6273l7.307087 0l0 33.039368l-7.307087 0z" fill-rule="evenodd"/><path fill="#63a79d" d="m22.19469 78.04925l5.165354 -5.1653595l23.37008 23.370079l-5.1653557 5.1653595z" fill-rule="evenodd"/><path stroke="#63a79d" stroke-width="1.0" stroke-linejoin="round" stroke-linecap="butt" d="m22.19469 78.04925l5.165354 -5.1653595l23.37008 23.370079l-5.1653557 5.1653595z" fill-rule="evenodd"/><path fill="#ffffff" d="m179.14494 88.74016l16.215256 -30.70866l12.320175 0l-16.215256 30.70866z" fill-rule="evenodd"/><path stroke="#ffffff" stroke-width="1.0" stroke-linejoin="round" stroke-linecap="butt" d="m179.14494 88.74016l16.215256 -30.70866l12.320175 0l-16.215256 30.70866z" fill-rule="evenodd"/><path fill="#ffffff" d="m179.14494 126.88189l16.215256 -30.708664l12.320175 0l-16.215256 30.708664z" fill-rule="evenodd"/><path stroke="#ffffff" stroke-width="1.0" stroke-linejoin="round" stroke-linecap="butt" d="m179.14494 126.88189l16.215256 -30.708664l12.320175 0l-16.215256 30.708664z" fill-rule="evenodd"/><path fill="#ffffff" d="m179.14494 165.02362l16.215256 -30.708664l12.320175 0l-16.215256 30.708664z" fill-rule="evenodd"/><path stroke="#ffffff" stroke-width="1.0" stroke-linejoin="round" stroke-linecap="butt" d="m179.14494 165.02362l16.215256 -30.708664l12.320175 0l-16.215256 30.708664z" fill-rule="evenodd"/><path fill="#434343" d="m93.215225 70.6273l30.362206 0l0 37.795273l-30.362206 0z" fill-rule="evenodd"/><path stroke="#ffffff" stroke-width="1.0" stroke-linejoin="round" stroke-linecap="butt" d="m93.215225 70.6273l30.362206 0l0 37.795273l-30.362206 0z" fill-rule="evenodd"/><path fill="#ffffff" d="m93.215225 93.74541l30.362206 0l0 14.677162l-30.362206 0z" fill-rule="evenodd"/><path stroke="#ffffff" stroke-width="1.0" stroke-linejoin="round" stroke-linecap="butt" d="m93.215225 93.74541l30.362206 0l0 14.677162l-30.362206 0z" fill-rule="evenodd"/><path fill="#434343" d="m12.556431 19.889763l2.1732283 -8.692912l67.27559 0l2.1732254 8.692912z" fill-rule="evenodd"/><path stroke="#ffffff" stroke-width="1.0" stroke-linejoin="round" stroke-linecap="butt" d="m12.556431 19.889763l2.1732283 -8.692912l67.27559 0l2.1732254 8.692912z" fill-rule="evenodd"/><path fill="#434343" d="m13.2021 19.283464l70.29921 0l0 4.692913l-70.29921 0z" fill-rule="evenodd"/></g></svg>