<svg version="1.1" viewBox="0.0 0.0 279.68503937007875 1016.6929133858267" fill="none" stroke="none" stroke-linecap="square" stroke-miterlimit="10" xmlns:xlink="http://www.w3.org/1999/xlink" xmlns="http://www.w3.org/2000/svg"><clipPath id="p.0"><path d="m0 0l279.68503 0l0 1016.69293l-279.68503 0l0 -1016.69293z" clip-rule="nonzero"/></clipPath><g clip-path="url(#p.0)"><path fill="#000000" fill-opacity="0.0" d="m0 0l279.68503 0l0 1016.69293l-279.68503 0z" fill-rule="evenodd"/><path fill="#434343" d="m7.5265718 189.08482l13.574804 3.3937073l0 20.141739l-13.574804 3.393692z" fill-rule="evenodd"/><path stroke="#434343" stroke-width="1.0" stroke-linejoin="round" stroke-linecap="butt" d="m7.5265718 189.08482l13.574804 3.3937073l0 20.141739l-13.574804 3.393692z" fill-rule="evenodd"/><path fill="#434343" d="m158.7283 42.502094l0 150.01575l-38.456696 0l0 -150.01575z" fill-rule="evenodd"/><path stroke="#434343" stroke-width="1.0" stroke-linejoin="round" stroke-linecap="butt" d="m158.7283 42.502094l0 150.01575l-38.456696 0l0 -150.01575z" fill-rule="evenodd"/><path fill="#4a86e8" d="m120.27161 42.502094l38.456696 4.318302l0 142.73682l-38.456696 -4.3183136z" fill-rule="evenodd"/><path stroke="#4a86e8" stroke-width="1.0" stroke-linejoin="round" stroke-linecap="butt" d="m120.27161 42.502094l38.456696 4.318302l0 142.73682l-38.456696 -4.3183136z" fill-rule="evenodd"/><path fill="#000000" fill-opacity="0.0" d="m159.1163 75.559746l-39.338585 -13.322834" fill-rule="evenodd"/><path stroke="#000000" stroke-width="1.0" stroke-linejoin="round" stroke-linecap="butt" d="m159.1163 75.559746l-39.338585 -13.322834" fill-rule="evenodd"/><path fill="#000000" fill-opacity="0.0" d="m159.14932 115.74933l-39.338585 -13.322838" fill-rule="evenodd"/><path stroke="#000000" stroke-width="1.0" stroke-linejoin="round" stroke-linecap="butt" d="m159.14932 115.74933l-39.338585 -13.322838" fill-rule="evenodd"/><path fill="#000000" fill-opacity="0.0" d="m159.1163 141.03386l-39.338585 13.32283" fill-rule="evenodd"/><path stroke="#000000" stroke-width="1.0" stroke-linejoin="round" stroke-linecap="butt" d="m159.1163 141.03386l-39.338585 13.32283" fill-rule="evenodd"/><path fill="#434343" d="m159.10768 212.60368l0 89.41731l-38.456696 0l0 -89.41731z" fill-rule="evenodd"/><path stroke="#434343" stroke-width="1.0" stroke-linejoin="round" stroke-linecap="butt" d="m159.10768 212.60368l0 89.41731l-38.456696 0l0 -89.41731z" fill-rule="evenodd"/><path fill="#828282" d="m163.84416 322.12943l0 551.8425l-24.0 0l0 -551.8425z" fill-rule="evenodd"/><path stroke="#828282" stroke-width="1.0" stroke-linejoin="round" stroke-linecap="butt" d="m163.84416 322.12943l0 551.8425l-24.0 0l0 -551.8425z" fill-rule="evenodd"/><path fill="#999999" d="m139.84555 322.12943l0 551.8425l-23.999992 0l0 -551.8425z" fill-rule="evenodd"/><path stroke="#999999" stroke-width="1.0" stroke-linejoin="round" stroke-linecap="butt" d="m139.84555 322.12943l0 551.8425l-23.999992 0l0 -551.8425z" fill-rule="evenodd"/><path fill="#828282" d="m139.84416 873.9783l24.0 0l-24.0 130.36218z" fill-rule="evenodd"/><path stroke="#828282" stroke-width="1.0" stroke-linejoin="round" stroke-linecap="butt" d="m139.84416 873.9783l24.0 0l-24.0 130.36218z" fill-rule="evenodd"/><path fill="#999999" d="m139.83966 873.9783l-24.0 0l24.0 130.36218z" fill-rule="evenodd"/><path stroke="#999999" stroke-width="1.0" stroke-linejoin="round" stroke-linecap="butt" d="m139.83966 873.9783l-24.0 0l24.0 130.36218z" fill-rule="evenodd"/><path fill="#434343" d="m214.48848 312.07898l0 10.047241l-149.29135 0l0 -10.047241z" fill-rule="evenodd"/><path stroke="#434343" stroke-width="1.0" stroke-linejoin="round" stroke-linecap="butt" d="m214.48848 312.07898l0 10.047241l-149.29135 0l0 -10.047241z" fill-rule="evenodd"/><path fill="#666666" d="m214.48848 302.0285l0 10.047241l-149.29135 0l0 -10.047241z" fill-rule="evenodd"/><path stroke="#666666" stroke-width="1.0" stroke-linejoin="round" stroke-linecap="butt" d="m214.48848 302.0285l0 10.047241l-149.29135 0l0 -10.047241z" fill-rule="evenodd"/><path fill="#434343" d="m51.61767 298.6145l13.574799 3.3936768l0 20.141754l-13.574799 3.3937073z" fill-rule="evenodd"/><path stroke="#434343" stroke-width="1.0" stroke-linejoin="round" stroke-linecap="butt" d="m51.61767 298.6145l13.574799 3.3936768l0 20.141754l-13.574799 3.3937073z" fill-rule="evenodd"/><path fill="#4a86e8" d="m120.650986 212.60368l38.456696 4.3182983l0 83.33525l-38.456696 -4.3182983z" fill-rule="evenodd"/><path stroke="#4a86e8" stroke-width="1.0" stroke-linejoin="round" stroke-linecap="butt" d="m120.650986 212.60368l38.456696 4.3182983l0 83.33525l-38.456696 -4.3182983z" fill-rule="evenodd"/><path fill="#434343" d="m228.06328 298.6145l-13.574799 3.3936768l0 20.141754l13.574799 3.3937073z" fill-rule="evenodd"/><path stroke="#434343" stroke-width="1.0" stroke-linejoin="round" stroke-linecap="butt" d="m228.06328 298.6145l-13.574799 3.3936768l0 20.141754l13.574799 3.3937073z" fill-rule="evenodd"/><path fill="#434343" d="m260.09903 202.55055l0 10.047241l-238.99213 0l0 -10.047241z" fill-rule="evenodd"/><path stroke="#434343" stroke-width="1.0" stroke-linejoin="round" stroke-linecap="butt" d="m260.09903 202.55055l0 10.047241l-238.99213 0l0 -10.047241z" fill-rule="evenodd"/><path fill="#666666" d="m260.09903 192.50009l0 10.047241l-238.99213 0l0 -10.047241z" fill-rule="evenodd"/><path stroke="#666666" stroke-width="1.0" stroke-linejoin="round" stroke-linecap="butt" d="m260.09903 192.50009l0 10.047241l-238.99213 0l0 -10.047241z" fill-rule="evenodd"/><path fill="#434343" d="m272.15698 189.08482l-13.574799 3.3937073l0 20.141739l13.574799 3.393692z" fill-rule="evenodd"/><path stroke="#434343" stroke-width="1.0" stroke-linejoin="round" stroke-linecap="butt" d="m272.15698 189.08482l-13.574799 3.3937073l0 20.141739l13.574799 3.393692z" fill-rule="evenodd"/><path fill="#000000" fill-opacity="0.0" d="m159.49568 232.31062l-39.338577 -7.9370117" fill-rule="evenodd"/><path stroke="#000000" stroke-width="1.0" stroke-linejoin="round" stroke-linecap="butt" d="m159.49568 232.31062l-39.338577 -7.9370117" fill-rule="evenodd"/><path fill="#000000" fill-opacity="0.0" d="m159.52872 256.26917l-39.338593 -7.9369965" fill-rule="evenodd"/><path stroke="#000000" stroke-width="1.0" stroke-linejoin="round" stroke-linecap="butt" d="m159.52872 256.26917l-39.338593 -7.9369965" fill-rule="evenodd"/><path fill="#000000" fill-opacity="0.0" d="m159.49568 271.34225l-39.338577 7.9370117" fill-rule="evenodd"/><path stroke="#000000" stroke-width="1.0" stroke-linejoin="round" stroke-linecap="butt" d="m159.49568 271.34225l-39.338577 7.9370117" fill-rule="evenodd"/><path fill="#000000" fill-opacity="0.0" d="m159.18845 177.51187l-39.370087 -4.8188934" fill-rule="evenodd"/><path stroke="#000000" stroke-width="1.0" stroke-linejoin="round" stroke-linecap="butt" d="m159.18845 177.51187l-39.370087 -4.8188934" fill-rule="evenodd"/><path fill="#434343" d="m111.56187 42.501213l0 -14.283466l0 0c0 -7.8885384 12.655891 -14.2834635 28.267723 -14.2834635c15.611816 0 28.267715 6.394925 28.267715 14.2834635l0 14.283466z" fill-rule="evenodd"/><path stroke="#434343" stroke-width="1.0" stroke-linejoin="round" stroke-linecap="butt" d="m111.56187 42.501213l0 -14.283466l0 0c0 -7.8885384 12.655891 -14.2834635 28.267723 -14.2834635c15.611816 0 28.267715 6.394925 28.267715 14.2834635l0 14.283466z" fill-rule="evenodd"/><path fill="#434343" d="m152.71477 12.352442l0 10.047243l-26.55117 0l0 -10.047243z" fill-rule="evenodd"/><path stroke="#434343" stroke-width="1.0" stroke-linejoin="round" stroke-linecap="butt" d="m152.71477 12.352442l0 10.047243l-26.55117 0l0 -10.047243z" fill-rule="evenodd"/><path fill="#666666" d="m172.79306 36.583652l0 5.921261l-66.70867 0l0 -5.921261z" fill-rule="evenodd"/><path stroke="#666666" stroke-width="1.0" stroke-linejoin="round" stroke-linecap="butt" d="m172.79306 36.583652l0 5.921261l-66.70867 0l0 -5.921261z" fill-rule="evenodd"/><path fill="#000000" fill-opacity="0.0" d="m177.89815 322.1286l0 679.30707l-72.7244 0l0 -679.30707z" fill-rule="evenodd"/><path fill="#ffffff" d="m125.695946 602.73676l28.593758 0l0 4.09375l-28.593758 0l0 -4.09375zm0 -3.484375l1.40625 -0.265625q0.484375 1.015625 0.859375 2.140625q0.37500763 1.125 0.6875076 2.21875l-2.9531326 0.046875l0 -4.140625zm0 5.640625l2.7656326 0.125l-0.7031326 6.078125l-2.0625 -0.046875l0 -6.15625zm25.828133 0.53125l0.703125 -6.078125l2.0625 0.046875l0 6.15625l-2.765625 -0.125zm-0.171875 0.78125l2.9375 -0.046875l0 4.140625l-1.40625 0.265625q-0.4375 -0.96875 -0.8125 -2.109375q-0.375 -1.140625 -0.71875 -2.25zm-26.312508 20.815613q-0.046875 -2.90625 0.71875 -5.203125q0.78125 -2.28125 2.15625 -3.96875q1.3906326 -1.6875 3.2343826 -2.796875q1.84375 -1.09375 4.015625 -1.65625q2.1875 -0.546875 4.484375 -0.546875q2.859375 0 5.625 0.828125q2.78125 0.84375 5.015625 2.53125q2.25 1.703125 3.5625 4.25q1.328125 2.5625 1.328125 5.984375q0 3.09375 -0.9375 5.25q-0.921875 2.15625 -1.75 3.25l-4.21875 -1.140625q2.0625 -2.375 3.0625 -5.109375q1.015625 -2.734375 0.625 -6.109375q-1.09375 -1.9375 -2.96875 -3.109375q-1.875 -1.15625 -4.078125 -1.640625q-2.1875 -0.484375 -4.265625 -0.484375q-3.421875 0 -6.25 1.203125q-2.8125 1.203125 -4.390625 3.59375q-1.578125 2.40625 -1.328125 5.9375l2.390625 6.765625l-2.15625 0.796875l-3.8750076 -8.625zm20.625008 4.53125l4.84375 -0.34375l1.984375 3.734375q-0.703125 0.09375 -1.859375 0.0625q-1.140625 -0.015625 -2.421875 -0.203125q-1.265625 -0.171875 -2.546875 -0.609375l0 -2.640625zm-19.968758 10.036316l28.593758 0l0 4.09375l-28.593758 0l0 -4.09375zm12.625008 3.34375l3.078125 0l0 16.890625l-3.078125 0l0 -16.890625zm-12.625008 14.953125l28.593758 0l0 4.09375l-28.593758 0l0 -4.09375zm25.828133 -15.609375l0.703125 -6.078125l2.0625 0.046875l0 6.15625l-2.765625 -0.125zm-0.171875 0.78125l2.9375 -0.046875l0 4.140625l-1.40625 0.265625q-0.4375 -0.96875 -0.8125 -2.109375q-0.375 -1.140625 -0.71875 -2.25zm0.171875 17.515625l0.703125 -6.078125l2.0625 0.046875l0 6.171875l-2.765625 -0.140625zm-0.171875 0.796875l2.9375 -0.046875l0 4.140625l-1.40625 0.265625q-0.4375 -0.96875 -0.8125 -2.125q-0.375 -1.140625 -0.71875 -2.234375zm-25.656258 -25.265625l1.40625 -0.265625q0.484375 1.015625 0.859375 2.140625q0.37500763 1.125 0.6875076 2.21875l-2.9531326 0.046875l0 -4.140625zm0 5.640625l2.7656326 0.125l-0.7031326 6.078125l-2.0625 -0.046875l0 -6.15625zm0 12.671875l1.40625 -0.265625q0.484375 1.015625 0.859375 2.125q0.37500763 1.125 0.6875076 2.234375l-2.9531326 0.046875l0 -4.140625zm0 5.625l2.7656326 0.140625l-0.7031326 6.0625l-2.0625 -0.03125l0 -6.171875zm-0.875 21.557068q0 -2.546875 0.921875 -4.96875q0.921875 -2.421875 2.7812576 -4.375q1.875 -1.953125 4.6875 -3.109375q2.828125 -1.140625 6.609375 -1.140625q4.625 0 8.078125 1.734375q3.453125 1.75 5.359375 4.734375q1.921875 3.0 1.921875 6.78125q0 2.734375 -1.015625 5.171875q-1.015625 2.4375 -3.0 4.375q-1.96875 1.9375 -4.875 3.03125q-2.90625 1.109375 -6.640625 1.109375q-3.796875 0 -6.59375 -1.125q-2.78125 -1.125 -4.609375 -3.046875q-1.8281326 -1.90625 -2.7343826 -4.28125q-0.890625 -2.375 -0.890625 -4.890625zm3.125 0.796875q0 0.796875 0.10938263 1.625q0.109375 0.84375 0.328125 1.765625q1.3125 2.0625 4.28125 3.34375q2.96875 1.28125 6.765625 1.28125q2.40625 0 4.671875 -0.578125q2.28125 -0.578125 4.078125 -1.765625q1.796875 -1.1875 2.875 -3.015625q1.078125 -1.8125 1.078125 -4.328125q0 -0.96875 -0.171875 -2.03125q-0.171875 -1.046875 -0.5625 -2.1875q-0.9375 -1.1875 -2.625 -2.09375q-1.6875 -0.90625 -3.84375 -1.40625q-2.15625 -0.5 -4.5 -0.5q-2.328125 0 -4.578125 0.5625q-2.234375 0.578125 -4.015625 1.765625q-1.78125 1.1875 -2.84375 3.046875q-1.0468826 1.875 -1.0468826 4.515625zm9.140633 21.125427l3.171875 0.125q-0.3125 1.40625 -0.453125 2.75q-0.125 1.34375 -0.125 2.3125q0 2.25 0.59375 3.703125q0.609375 1.453125 1.59375 2.21875q0.984375 0.765625 2.109375 1.078125q1.125 0.3125 2.171875 0.3125q1.9375 0 3.5 -0.828125q1.5625 -0.8125 2.40625 -2.609375l-0.703125 -8.140625l2.9375 -6.640625l0.359375 12.265625q0 3.53125 -1.234375 5.828125q-1.234375 2.3125 -3.171875 3.453125q-1.9375 1.15625 -4.09375 1.15625q-2.0625 0 -4.140625 -1.109375q-2.0625 -1.09375 -3.453125 -3.3125q-1.375 -2.21875 -1.421875 -5.609375l-0.046875 -6.953125zm-11.390633 -6.125l1.40625 -0.265625q0.484375 1.015625 0.859375 2.140625q0.37500763 1.125 0.6875076 2.21875l-2.9531326 0.046875l0 -4.140625zm0 6.078125l2.7656326 0.125l-0.7031326 6.078125l-2.0625 -0.046875l0 -6.15625zm0 -2.59375l28.593758 0l0 4.09375l-28.593758 0l0 -4.09375zm0 16.140625l2.6406326 0.140625l-0.5781326 6.0625l-2.0625 -0.03125l0 -6.171875zm26.218758 -15.046875l0.265625 -4.21875l2.109375 0.046875l0 4.09375l-2.375 0.078125zm-26.218758 14.53125l13.156258 -7.265625l0.390625 4.09375l-13.546883 8.359375l0 -5.1875z" fill-rule="nonzero"/><path fill="#1b1f29" d="m187.74016 181.26282l11.557312 0l0 33.93701l2.0174866 0l0 6.7873993l-13.574799 0z" fill-rule="evenodd"/><path stroke="#434343" stroke-width="1.0" stroke-linejoin="round" stroke-linecap="butt" d="m187.74016 181.26282l11.557312 0l0 33.93701l2.0174866 0l0 6.7873993l-13.574799 0z" fill-rule="evenodd"/><path fill="#1b1f29" d="m81.755905 181.26282l11.55732 0l0 33.93701l2.0174866 0l0 6.7873993l-13.574806 0z" fill-rule="evenodd"/><path stroke="#434343" stroke-width="1.0" stroke-linejoin="round" stroke-linecap="butt" d="m81.755905 181.26282l11.55732 0l0 33.93701l2.0174866 0l0 6.7873993l-13.574806 0z" fill-rule="evenodd"/><path fill="#1b1f29" d="m187.74016 290.81293l11.557312 0l0 33.93701l2.0174866 0l0 6.787384l-13.574799 0z" fill-rule="evenodd"/><path stroke="#434343" stroke-width="1.0" stroke-linejoin="round" stroke-linecap="butt" d="m187.74016 290.81293l11.557312 0l0 33.93701l2.0174866 0l0 6.787384l-13.574799 0z" fill-rule="evenodd"/><path fill="#1b1f29" d="m81.755905 290.81293l11.55732 0l0 33.93701l2.0174866 0l0 6.787384l-13.574806 0z" fill-rule="evenodd"/><path stroke="#434343" stroke-width="1.0" stroke-linejoin="round" stroke-linecap="butt" d="m81.755905 290.81293l11.55732 0l0 33.93701l2.0174866 0l0 6.787384l-13.574806 0z" fill-rule="evenodd"/></g></svg>