<svg version="1.1" viewBox="0.0 0.0 271.62729658792654 272.5590551181102" fill="none" stroke="none" stroke-linecap="square" stroke-miterlimit="10" xmlns:xlink="http://www.w3.org/1999/xlink" xmlns="http://www.w3.org/2000/svg"><clipPath id="p.0"><path d="m0 0l271.6273 0l0 272.55905l-271.6273 0l0 -272.55905z" clip-rule="nonzero"/></clipPath><g clip-path="url(#p.0)"><path fill="#000000" fill-opacity="0.0" d="m0 0l271.6273 0l0 272.55905l-271.6273 0z" fill-rule="evenodd"/><path fill="#666666" d="m122.60235 18.454985l0 0c-1.2913895 -5.9058533 2.6736755 -11.918397 9.101753 -13.801699c6.42807 -1.8833017 13.153656 0.99708796 15.438461 6.6118884c2.2848053 5.6148014 -0.6408539 12.072491 -6.7158203 14.823526l-1.6105194 -3.1589146c4.4351807 -1.9204254 6.634552 -6.4288845 5.0431976 -10.338012c-1.5913391 -3.9091272 -6.434738 -5.895704 -11.106033 -4.555273c-4.6713104 1.3404312 -7.589287 5.554141 -6.691017 9.662148z" fill-rule="evenodd"/><path fill="#666666" d="m133.63649 36.810925l0 0c-1.8141632 -4.9714584 0.32865906 -10.697401 5.205658 -13.910391l2.1072388 2.9124756c-3.567566 2.2690296 -5.1961823 6.290045 -3.9470825 9.745218z" fill-rule="evenodd"/><path fill="#b7b7b7" d="m1.5619525 8.674731l0 0c0 -0.26672554 0.21622384 -0.48294926 0.48294938 -0.48294926l267.53806 0c0.12808228 0 0.25091553 0.05088234 0.3414917 0.14145279c0.09057617 0.09057045 0.14144897 0.21341038 0.14144897 0.34149647l0 1.9317398c0 0.26672554 -0.21621704 0.48294926 -0.48294067 0.48294926l-267.53806 0c-0.26672554 0 -0.48294938 -0.21622372 -0.48294938 -0.48294926z" fill-rule="evenodd"/><path stroke="#b7b7b7" stroke-width="1.0" stroke-linejoin="round" stroke-linecap="butt" d="m1.5619525 8.674731l0 0c0 -0.26672554 0.21622384 -0.48294926 0.48294938 -0.48294926l267.53806 0c0.12808228 0 0.25091553 0.05088234 0.3414917 0.14145279c0.09057617 0.09057045 0.14144897 0.21341038 0.14144897 0.34149647l0 1.9317398c0 0.26672554 -0.21621704 0.48294926 -0.48294067 0.48294926l-267.53806 0c-0.26672554 0 -0.48294938 -0.21622372 -0.48294938 -0.48294926z" fill-rule="evenodd"/><path fill="#000000" fill-opacity="0.0" d="m24.228346 99.983765l110.92914 -65.543304l110.92912 65.543304z" fill-rule="evenodd"/><path stroke="#666666" stroke-width="3.0" stroke-linejoin="round" stroke-linecap="butt" d="m24.228346 99.983765l110.92914 -65.543304l110.92912 65.543304z" fill-rule="evenodd"/><path fill="#666666" d="m122.60235 18.454985l0 0c-0.7526703 -3.4421673 0.27394867 -7.076867 2.7890701 -9.874581c2.5151215 -2.7977142 6.2448273 -4.4537354 10.132675 -4.499l-0.117889404 3.5502033c-2.7938843 0.077672005 -5.4740753 1.2604737 -7.2886047 3.216537c-1.8145218 1.9560633 -2.567871 4.47464 -2.048668 6.8490725z" fill-rule="evenodd"/><path fill="#ead1dc" d="m51.53018 85.568245l166.67717 0l0 185.32285l-166.67717 0z" fill-rule="evenodd"/><path stroke="#ead1dc" stroke-width="1.0" stroke-linejoin="round" stroke-linecap="butt" d="m51.53018 85.568245l166.67717 0l0 185.32285l-166.67717 0z" fill-rule="evenodd"/><path fill="#ead1dc" d="m193.26247 64.15092l0 0c0 11.828461 -25.720718 21.417328 -57.448822 21.417328c-31.728104 0 -57.448814 -9.588867 -57.448814 -21.417328l0 0c6.51474 9.854317 30.225082 16.779617 57.448814 16.779617c27.22374 0 50.934082 -6.9253006 57.448822 -16.779617z" fill-rule="evenodd"/><path stroke="#ead1dc" stroke-width="1.0" stroke-linejoin="round" stroke-linecap="butt" d="m193.26247 64.15092l0 0c0 11.828461 -25.720718 21.417328 -57.448822 21.417328c-31.728104 0 -57.448814 -9.588867 -57.448814 -21.417328l0 0c6.51474 9.854317 30.225082 16.779617 57.448814 16.779617c27.22374 0 50.934082 -6.9253006 57.448822 -16.779617z" fill-rule="evenodd"/><path fill="#ead1dc" d="m7.6514916 100.02563l51.02362 -35.874016l22.677166 32.314957l-51.02362 35.874023z" fill-rule="evenodd"/><path stroke="#ead1dc" stroke-width="1.0" stroke-linejoin="round" stroke-linecap="butt" d="m7.6514916 100.02563l51.02362 -35.874016l22.677166 32.314957l-51.02362 35.874023z" fill-rule="evenodd"/><path fill="#ead1dc" d="m263.97696 100.02563l-51.023636 -35.874016l-22.677155 32.314957l51.02362 35.874023z" fill-rule="evenodd"/><path stroke="#ead1dc" stroke-width="1.0" stroke-linejoin="round" stroke-linecap="butt" d="m263.97696 100.02563l-51.023636 -35.874016l-22.677155 32.314957l51.02362 35.874023z" fill-rule="evenodd"/><path fill="#ead1dc" d="m78.36483 89.355644l0 -22.614174l37.480316 22.614174z" fill-rule="evenodd"/><path stroke="#ead1dc" stroke-width="1.0" stroke-linejoin="round" stroke-linecap="butt" d="m78.36483 89.355644l0 -22.614174l37.480316 22.614174z" fill-rule="evenodd"/><path fill="#ead1dc" d="m193.26247 89.36614l0 -22.614174l-37.480316 22.614174z" fill-rule="evenodd"/><path stroke="#ead1dc" stroke-width="1.0" stroke-linejoin="round" stroke-linecap="butt" d="m193.26247 89.36614l0 -22.614174l-37.480316 22.614174z" fill-rule="evenodd"/><path fill="#ead1dc" d="m93.78215 81.75197l84.06299 0l0 7.6220474l-84.06299 0z" fill-rule="evenodd"/><path stroke="#ead1dc" stroke-width="1.0" stroke-linejoin="round" stroke-linecap="butt" d="m93.78215 81.75197l84.06299 0l0 7.6220474l-84.06299 0z" fill-rule="evenodd"/><path fill="#ead1dc" d="m193.26247 64.00131l19.527557 0l0 28.09449l-19.527557 0z" fill-rule="evenodd"/><path stroke="#ead1dc" stroke-width="1.0" stroke-linejoin="round" stroke-linecap="butt" d="m193.26247 64.00131l19.527557 0l0 28.09449l-19.527557 0z" fill-rule="evenodd"/><path fill="#ead1dc" d="m58.83727 64.01181l19.527561 0l0 28.09449l-19.527561 0z" fill-rule="evenodd"/><path stroke="#ead1dc" stroke-width="1.0" stroke-linejoin="round" stroke-linecap="butt" d="m58.83727 64.01181l19.527561 0l0 28.09449l-19.527561 0z" fill-rule="evenodd"/><path fill="#000000" fill-opacity="0.0" d="m83.25923 107.309235l114.078735 30.519684l-10.866135 40.566925l-114.07874 -30.519684z" fill-rule="evenodd"/><path fill="#000000" d="m103.041534 126.02621l3.7282562 0.9974289q1.5094147 0.40381622 2.259819 0.8633652q0.7503967 0.45954132 1.0366592 1.0213699q0.30539703 0.55075073 0.26741028 1.2360992q-0.018859863 0.6742859 -0.37461853 2.0024567l-0.33150482 1.2376251q-0.3678894 1.3734589 -0.82447815 1.9306335q-0.45253754 0.54208374 -1.2961884 0.67222595q-0.82855225 0.13417053 -2.0511856 -0.19291687l-0.9962158 -0.26652527l-1.5362396 5.735321l-3.6980743 -0.98934937l3.8163605 -14.247734zm3.0431442 3.43441l-0.9702606 3.6222992q0.16603851 0.044418335 0.271698 0.07269287q0.51319885 0.13729858 0.7741089 -0.051696777q0.28004456 -0.20004272 0.4902649 -0.98487854l0.31533813 -1.1772461q0.19404602 -0.7244568 0.009140015 -1.0003815q-0.16577148 -0.2869568 -0.8902893 -0.48078918zm14.51638 1.2633209l-3.8163605 14.247726l-3.6980667 -0.98934937l1.6009293 -5.9768066l-1.1169662 -0.29881287l-1.6009293 5.9768066l-3.6980743 -0.9893646l3.8163605 -14.247726l3.6980667 0.98934937l-1.3664474 5.10141l1.1169662 0.29882812l1.3664474 -5.10141l3.6980743 0.98934937zm9.386765 2.511261l-5.135597 8.363113l-1.3826218 5.161789l-3.4263763 -0.91667175l1.3826218 -5.161789l-0.1775589 -9.784546l3.4112854 0.9126282q-0.31581116 4.379669 -0.60930634 5.837723q0.9274368 -2.1942291 2.526268 -5.324875l3.4112854 0.9126282zm7.325699 6.5857544l-3.4414673 -0.9207001l0.2829895 -1.0565033q0.1980896 -0.7395477 0.11480713 -0.97210693q-0.06416321 -0.24360657 -0.38113403 -0.32839966q-0.33207703 -0.08885193 -0.585968 0.1343689q-0.23881531 0.22724915 -0.38839722 0.7856903q-0.19000244 0.70936584 -0.09080505 1.1240997q0.084106445 0.4106903 0.8070221 1.1540222q2.0832977 2.1262665 2.4816895 3.235672q0.3792572 1.1204681 -0.18267822 3.2183838q-0.40428162 1.5092926 -0.96058655 2.1368408q-0.541214 0.63157654 -1.7010345 0.85505676q-1.1406708 0.2124176 -2.4991455 -0.1510315q-1.4792328 -0.3957367 -2.3862457 -1.2368469q-0.90296936 -0.8562012 -1.0046005 -1.8053436q-0.08249664 -0.9601898 0.3460312 -2.5600433l0.25065613 -0.9357605l3.4414673 0.9207001l-0.46492004 1.7356873q-0.21426392 0.79992676 -0.13905334 1.0626678q0.09030151 0.26678467 0.46765137 0.36773682q0.3622589 0.09690857 0.62020874 -0.1414032q0.25793457 -0.23829651 0.41156006 -0.8118286q0.33958435 -1.267807 0.0934906 -1.7380066q-0.24205017 -0.4853058 -1.3730621 -1.7583466q-1.1420441 -1.2921906 -1.4857178 -1.8208313q-0.32858276 -0.5246277 -0.43640137 -1.3298492q-0.08869934 -0.8162842 0.21450806 -1.9482422q0.44065857 -1.6451416 1.0503387 -2.2907562q0.6247711 -0.64157104 1.6738129 -0.81381226q1.0530701 -0.18733215 2.366272 0.1639862q1.4490356 0.3876648 2.335022 1.1261139q0.88597107 0.73843384 1.0280457 1.5366364q0.14205933 0.7982178 -0.31072998 2.488617l-0.15362549 0.5735321zm6.3245544 -2.9338837l-3.8163605 14.247726l-3.6980743 -0.98934937l3.8163605 -14.247726l3.6980743 0.98934937zm6.145401 16.912827l-0.46087646 1.7205963l-2.7924194 -0.7470703q-1.0113068 -0.2705536 -1.3935089 -0.5345459q-0.36712646 -0.259964 -0.4331665 -0.6172943q-0.054992676 -0.33821106 0.15927124 -1.1381378q-1.2447205 -0.36535645 -1.9997101 -1.230484q-0.7358551 -0.8761902 -0.763916 -1.918869q-0.028045654 -1.0426788 0.48538208 -2.9594727l1.180481 -4.4071503q0.3881073 -1.4489136 0.75627136 -2.1591492q0.38731384 -0.72128296 1.0934906 -1.2440338q0.7253113 -0.5337982 1.6635742 -0.6548004q0.9382477 -0.1210022 1.9646606 0.15359497q1.2377167 0.33113098 2.0905457 1.0121765q0.8679199 0.68507385 1.1730499 1.4783936q0.30918884 0.7782135 0.25906372 1.5088348q-0.03501892 0.73464966 -0.4069519 2.1231995l-1.2370911 4.6184387q-0.50938416 1.9017181 -0.88752747 2.5283966q-0.36305237 0.6307373 -1.0005035 0.89689636q-0.61831665 0.25512695 -1.5503845 0.23220825q-0.09916687 0.49105835 0.03451538 0.6562195q0.14878845 0.16920471 0.78274536 0.33880615l1.2830048 0.34324646zm-0.87919617 -11.573547q0.26683044 -0.99612427 0.2339325 -1.2960663q-0.028839111 -0.31503296 -0.37600708 -0.4079132q-0.28678894 -0.07672119 -0.5134735 0.10523987q-0.21157837 0.1860199 -0.5066986 1.2878113l-1.7788086 6.6408844q-0.33555603 1.2527161 -0.30670166 1.567749q0.028839111 0.31503296 0.39109802 0.41194153q0.3773651 0.10096741 0.57196045 -0.20281982q0.19459534 -0.30377197 0.53419495 -1.571579l1.7505035 -6.535248zm14.497498 -0.051864624l-2.5509796 9.523651q-0.4325714 1.6149445 -0.7161102 2.250763q-0.2795105 0.62072754 -0.9937744 1.1736603q-0.6991577 0.5569916 -1.6414642 0.6930847q-0.9382477 0.12098694 -2.1005096 -0.1899414q-1.2678986 -0.33921814 -2.1358337 -1.024292q-0.8679199 -0.6850891 -1.1690063 -1.4934845q-0.30108643 -0.80841064 -0.18951416 -1.5872803q0.111572266 -0.7788849 0.754364 -3.17865l2.259903 -8.436966l3.7131653 0.99339294l-2.8622742 10.685806q-0.25064087 0.9357605 -0.22880554 1.216568q0.03692627 0.28485107 0.35391235 0.36964417q0.3471527 0.09288025 0.5145416 -0.16964722q0.1824646 -0.25849915 0.4654541 -1.3150177l2.8137665 -10.504684l3.7131653 0.99339294zm1.4334717 0.38349915l6.1735077 1.6516113l-0.76408386 2.8525696l-2.4754333 -0.66226196l-0.72366333 2.7016296l2.3245087 0.6218872l-0.72769165 2.7167206l-2.3245087 -0.62187195l-0.836853 3.124237l2.7320557 0.73091125l-0.76408386 2.8525696l-6.4301147 -1.7202606l3.8163605 -14.247742z" fill-rule="nonzero"/><path fill="#000000" d="m88.694405 152.42758l81.95275 21.763779l-0.91337585 3.3700867l-81.95276 -21.763779z" fill-rule="evenodd"/><path stroke="#000000" stroke-width="1.0" stroke-linejoin="round" stroke-linecap="butt" d="m88.694405 152.42758l81.95275 21.763779l-0.91337585 3.3700867l-81.95276 -21.763779z" fill-rule="evenodd"/><path fill="#000000" d="m101.17673 108.459274l81.95276 21.763779l-0.9133911 3.3700867l-81.95275 -21.763786z" fill-rule="evenodd"/><path stroke="#000000" stroke-width="1.0" stroke-linejoin="round" stroke-linecap="butt" d="m101.17673 108.459274l81.95276 21.763779l-0.9133911 3.3700867l-81.95275 -21.763786z" fill-rule="evenodd"/><path fill="#999999" d="m262.50656 9.641732l0 0c0 -2.1047702 1.6921387 -3.8110237 3.779541 -3.8110237l0 0c1.0023804 0 1.9637146 0.4015174 2.6725159 1.1162233c0.70880127 0.71470547 1.1069946 1.6840544 1.1069946 2.6948004l0 0c0 2.1047707 -1.6921387 3.8110237 -3.7795105 3.8110237l0 0c-2.0874023 0 -3.779541 -1.706253 -3.779541 -3.8110237z" fill-rule="evenodd"/><path stroke="#999999" stroke-width="1.0" stroke-linejoin="round" stroke-linecap="butt" d="m262.50656 9.641732l0 0c0 -2.1047702 1.6921387 -3.8110237 3.779541 -3.8110237l0 0c1.0023804 0 1.9637146 0.4015174 2.6725159 1.1162233c0.70880127 0.71470547 1.1069946 1.6840544 1.1069946 2.6948004l0 0c0 2.1047707 -1.6921387 3.8110237 -3.7795105 3.8110237l0 0c-2.0874023 0 -3.779541 -1.706253 -3.779541 -3.8110237z" fill-rule="evenodd"/><path fill="#999999" d="m1.5616798 9.641732l0 0c0 -2.1047702 1.692152 -3.8110237 3.7795277 -3.8110237l0 0c1.0023928 0 1.9637303 0.4015174 2.6725292 1.1162233c0.70879936 0.71470547 1.1069984 1.6840544 1.1069984 2.6948004l0 0c0 2.1047707 -1.6921525 3.8110237 -3.7795277 3.8110237l0 0c-2.0873756 0 -3.7795277 -1.706253 -3.7795277 -3.8110237z" fill-rule="evenodd"/><path stroke="#999999" stroke-width="1.0" stroke-linejoin="round" stroke-linecap="butt" d="m1.5616798 9.641732l0 0c0 -2.1047702 1.692152 -3.8110237 3.7795277 -3.8110237l0 0c1.0023928 0 1.9637303 0.4015174 2.6725292 1.1162233c0.70879936 0.71470547 1.1069984 1.6840544 1.1069984 2.6948004l0 0c0 2.1047707 -1.6921525 3.8110237 -3.7795277 3.8110237l0 0c-2.0873756 0 -3.7795277 -1.706253 -3.7795277 -3.8110237z" fill-rule="evenodd"/></g></svg>